<svg id="Layer_1" data-name="Layer 1" xmlns="http://www.w3.org/2000/svg" viewBox="0 0 301.33 346.9"><defs><style>.cls-1{fill:#59129e;}.cls-2{fill:#fff;}</style></defs><path class="cls-1" d="M305.54,264.4s-20.7,25.81-74.59,40.08c-21.17,5.61-97.08,8.57-97.08,8.57s-10.35,27.12-3.29,27.6C148.93,341.9,162,355,147.79,363.73s-13.11,20.39-1.43,22.84,14.78,4,16.06,13.56S158.29,423.33,171,429a26.86,26.86,0,0,0,23.2-.36s-18.52-13.56-2.14-25.69c18-13.36,50.91-1.6,62.74-12.94s98.79-61.3,103.14-74.68,8.19-40.12,8.19-40.12Z" transform="translate(-128.11 -199.12)"/><path class="cls-2" d="M416.89,306.27c-9.47-15.74-16-35-21.41-39.62C390.12,252,382,252.4,375.73,250.7c-3.45-.93-9-1.41-15.13-1.62a31.23,31.23,0,0,1-3.61-7.52,27.22,27.22,0,0,1-.78-9.06c.14-.85.26-1.74.39-2.67,3.7-.76,6.13-6.64,4.59-9.86a2.4,2.4,0,0,0-3.53-1.26c.17-2.3.25-3.84.25-3.84l0-10.69s-13.46-7.32-23.23-4.35a30.36,30.36,0,0,0-6.12,2.48c-4.6,1.7-10.08.53-10.08.53s1.66,4,4.79,5.48c-1.6,1.32-8,0-8,0s2.11,5.54,7.72,6.06c1.14,3.9,1.11,16.18,2.84,21.56.8,2.49,5,8.47,9.87,10.78,0,.9,0,1.77,0,2.57-6.57.25-11.2.54-11.2.54-5.4-1.75-14.28-2.17-22.85,8.22-7.28,8.84-10.21,24.66-19.73,28.94s-15.06,8.78-27.09,20.7c-6.26,6.22-8.5,13.9-12.42,21.42-3.61,6.91-6.65,14.84-7.14,18.2-1,7-.39,14.24,4.8,15.35,2.73.58,10.18-1.41,12.94-6.78,2.5-4.87.48-16.18,0-19.63-1-7.27,22.78-21.95,33.65-27.49,17.14-8.71,31.77-29.26,31.77-29.26s11.06,14.29,9.63,24.81c-1,7.52-11.29,18.14-17.08,23.59-2.31,2.18-17.17,8.47-29.06,24.84-8.79,12.08-20.48,31.21-19.53,45.42s7.64,15.18,19.53,14.22c7.43-.59,18.63-10.18,26-17.28-.83,12.73,1,23.07.18,27.86-1.91,10.68-6.9,28.07-10.71,33.92s-17.84,32.7-21.65,41.69-25.87,29.9-27.07,35.79c-1.6,7.82.72,14.65,8.39,10.32a83.12,83.12,0,0,0,15.35-11.78c5-5,11.06-3.93,15.7-9.33,3.19-3.71,0-12.73,4.76-19.61s18.4-20,27.76-33.88c4.12-6.12,1.88-21.13,20.3-47.12,20-28.18,25.26-58.34,25.25-69.55,0,0,10.37-29.63,15.79-49.13,4.86,5.65,16.51,11,21.42,17.69,7.75,17.75,7.13,42.28,9,48.29s-3.84,9.62-5.83,20.23c-2.14,11.43,10.88,14.38,17.54,9.68,3.78-2.67,3.78-10.68,3.16-21.1-.47-7.95,1.42-19.46,2.05-26.33C430.06,344.37,428.18,325,416.89,306.27Z" transform="translate(-128.11 -199.12)"/><path class="cls-1" d="M318.39,248.87s5.53,9.18,12.13,9.18c4.65,0,5.14-5.3,5.14-10.39C332.13,245.22,325.53,241.66,318.39,248.87Z" transform="translate(-128.11 -199.12)"/><path class="cls-1" d="M358.42,245.19s-6.61,10-1.84,13.79c5.13,4.1,15.52-3.75,18.39-8.46C373.53,247.66,370.07,241.38,358.42,245.19Z" transform="translate(-128.11 -199.12)"/></svg>