<svg id="Layer_1" data-name="Layer 1" xmlns="http://www.w3.org/2000/svg" viewBox="0 0 4953.12 4941.7"><defs><style>.cls-1{fill:#894eed;}.cls-2{fill:#adadad;}.cls-3{fill:#ccccce;}.cls-4{fill:#fff;}.cls-30,.cls-5{fill:#78787a;}.cls-6{fill:#8d8d8e;}.cls-7{fill:#bc5555;}.cls-8{fill:#f4d3b5;}.cls-9{fill:#401712;}.cls-10{fill:#8c2b3f;}.cls-11{fill:#7d93a4;}.cls-12{fill:#6489a3;}.cls-13{fill:#f2a324;}.cls-14{fill:#d86a27;}.cls-15{fill:#556e7f;}.cls-16{fill:#dbdbdb;}.cls-17{fill:#a6acae;}.cls-18{fill:#bfdaef;}.cls-19{fill:#adc9db;}.cls-20{fill:#908e8e;}.cls-21{fill:none;}.cls-22{fill:#2d6775;}.cls-23{fill:#154b59;}.cls-24{fill:#01c5c5;}.cls-25{fill:#b8de70;}.cls-26{fill:#f29232;}.cls-27{fill:#636363;}.cls-28{fill:#c94343;}.cls-29{fill:#af3333;}.cls-30{font-size:291.39px;font-family:MyriadPro-Regular, Myriad Pro;}</style></defs><circle class="cls-1" cx="2481.49" cy="2388.96" r="2388.96"/><rect class="cls-2" x="900.77" y="2108.71" width="1549.84" height="803.24" transform="translate(-915.41 4000.57) rotate(-87.17)"/><rect class="cls-3" x="867.34" y="2078.06" width="1549.84" height="803.24" transform="translate(-867.03 4018.62) rotate(-88.99)"/><rect class="cls-4" x="1197.23" y="1698.27" width="803.72" height="1550.29"/><rect class="cls-5" x="1235.31" y="1982.55" width="728.02" height="26"/><rect class="cls-6" x="1301.74" y="2142.61" width="223.3" height="21.8"/><rect class="cls-6" x="1301.74" y="2186.22" width="414.26" height="21.8"/><rect class="cls-6" x="1301.74" y="2271.93" width="415.77" height="23.31"/><rect class="cls-6" x="1301.74" y="2228.32" width="529.29" height="22.55"/><rect class="cls-6" x="1301.74" y="2320.8" width="639.82" height="21.8"/><path class="cls-7" d="M1285.44,2211.58a13.81,13.81,0,1,1-13.81-13.81A13.8,13.8,0,0,1,1285.44,2211.58Z" transform="translate(-1 -59.3)"/><path class="cls-7" d="M1285.44,2257.08a13.81,13.81,0,1,1-13.81-13.81A13.8,13.8,0,0,1,1285.44,2257.08Z" transform="translate(-1 -59.3)"/><path class="cls-7" d="M1285.44,2297.94a13.81,13.81,0,1,1-13.81-13.81A13.8,13.8,0,0,1,1285.44,2297.94Z" transform="translate(-1 -59.3)"/><path class="cls-7" d="M1285.44,2343.44a13.81,13.81,0,1,1-13.81-13.81A13.8,13.8,0,0,1,1285.44,2343.44Z" transform="translate(-1 -59.3)"/><path class="cls-7" d="M1285.44,2391.73a13.81,13.81,0,1,1-13.81-13.81A13.8,13.8,0,0,1,1285.44,2391.73Z" transform="translate(-1 -59.3)"/><rect class="cls-5" x="1261.89" y="2932.04" width="9.02" height="244.35"/><rect class="cls-5" x="1276.17" y="2932.04" width="9.02" height="226.3"/><rect class="cls-5" x="1289.71" y="2932.04" width="9.02" height="221.04"/><rect class="cls-5" x="1304.74" y="2932.04" width="9.77" height="244.35"/><rect class="cls-5" x="1318.28" y="2932.04" width="9.77" height="226.3"/><rect class="cls-5" x="1332.56" y="2932.04" width="9.02" height="221.04"/><rect class="cls-5" x="1418.27" y="2932.04" width="9.02" height="244.35"/><rect class="cls-5" x="1403.23" y="2932.04" width="9.02" height="226.3"/><rect class="cls-5" x="1388.95" y="2932.04" width="9.77" height="221.04"/><rect class="cls-5" x="1375.42" y="2932.04" width="9.02" height="244.35"/><rect class="cls-5" x="1361.13" y="2932.04" width="9.02" height="226.3"/><rect class="cls-5" x="1346.85" y="2932.04" width="9.02" height="221.04"/><rect class="cls-5" x="1431.8" y="2932.04" width="9.77" height="244.35"/><rect class="cls-5" x="1445.34" y="2932.04" width="9.77" height="226.3"/><rect class="cls-5" x="1459.62" y="2932.04" width="9.77" height="221.04"/><rect class="cls-5" x="1474.66" y="2932.04" width="9.02" height="244.35"/><rect class="cls-5" x="1488.94" y="2932.04" width="8.27" height="226.3"/><rect class="cls-5" x="1502.48" y="2932.04" width="9.77" height="221.04"/><rect class="cls-5" x="1586.68" y="2932.04" width="9.77" height="244.35"/><rect class="cls-5" x="1573.15" y="2932.04" width="9.77" height="226.3"/><rect class="cls-5" x="1558.86" y="2932.04" width="9.02" height="221.04"/><rect class="cls-5" x="1545.33" y="2932.04" width="9.02" height="244.35"/><rect class="cls-5" x="1530.29" y="2932.04" width="9.02" height="226.3"/><rect class="cls-5" x="1516.01" y="2932.04" width="9.77" height="221.04"/><rect class="cls-5" x="1602.47" y="2932.04" width="8.27" height="244.35"/><rect class="cls-5" x="1616" y="2932.04" width="9.02" height="226.3"/><rect class="cls-5" x="1629.54" y="2932.04" width="9.02" height="221.04"/><rect class="cls-5" x="1643.82" y="2932.04" width="9.02" height="244.35"/><rect class="cls-5" x="1658.11" y="2932.04" width="9.77" height="226.3"/><rect class="cls-5" x="1672.39" y="2932.04" width="9.02" height="221.04"/><rect class="cls-5" x="1757.35" y="2932.04" width="8.27" height="244.35"/><rect class="cls-5" x="1743.07" y="2932.04" width="9.02" height="226.3"/><rect class="cls-5" x="1728.78" y="2932.04" width="9.77" height="221.04"/><rect class="cls-5" x="1713.74" y="2932.04" width="9.77" height="244.35"/><rect class="cls-5" x="1700.21" y="2932.04" width="9.02" height="226.3"/><rect class="cls-5" x="1686.68" y="2932.04" width="9.02" height="221.04"/><rect class="cls-5" x="1770.88" y="2932.04" width="9.02" height="244.35"/><rect class="cls-5" x="1785.17" y="2932.04" width="9.77" height="226.3"/><rect class="cls-5" x="1800.21" y="2932.04" width="9.02" height="221.04"/><rect class="cls-5" x="1813.74" y="2932.04" width="9.02" height="244.35"/><rect class="cls-5" x="1827.27" y="2932.04" width="9.02" height="226.3"/><rect class="cls-5" x="1842.31" y="2932.04" width="9.77" height="221.04"/><rect class="cls-5" x="1926.51" y="2932.04" width="9.77" height="244.35"/><rect class="cls-5" x="1912.98" y="2932.04" width="9.77" height="226.3"/><rect class="cls-5" x="1898.7" y="2932.04" width="9.77" height="221.04"/><rect class="cls-5" x="1884.41" y="2932.04" width="9.02" height="244.35"/><rect class="cls-5" x="1870.88" y="2932.04" width="8.27" height="226.3"/><rect class="cls-5" x="1855.84" y="2932.04" width="9.77" height="221.04"/><path class="cls-5" d="M1652.66,2962.18c0-69.43,5.86-138.72,14.15-207.61.22-1.78-2.57-1.75-2.78,0-8.16,66.9,6.94,134.91-7,201.34l2.33-.62c-8.91-8.58-12.71-21.27-15.54-33-3.08-12.79-4.61-25.9-6.29-38.92-1.75-13.53-4-26.95-5.45-40.53-1.6-14.62-3.45-29.75-10.25-43a1.41,1.41,0,0,0-2.55.34c-7,38.83,7.49,80.57-8.25,117.95l2.32-.61c-6.7-6.51-10.47-15.52-13.39-24.23-3.82-11.44-6-23.45-7.43-35.4-2.53-20.79-3.68-43.49,1.13-64.05l-2.55.33c12.65,22.22,18.61,47.53,24.05,72.29,4.15,18.92,8.51,37.61,13.52,56.31,2.45,9.15,4.66,18.49,5.29,28,.51,7.78-.7,16-7.65,20.73-6.53,4.45-14.4-1.15-19.21-5.54-6.3-5.74-11.22-13.06-15.26-20.52a52.32,52.32,0,0,1-5.27-13.12l-2.54,1.07c3.59,8.47,6.68,17.13,6.88,26.43l1.4-1.4c-19.15-.47-30.5-21.84-35.23-37.9a1.37,1.37,0,0,0-2.68.57c.85,6,.36,12.36-2.22,17.62h2.4c-8.89-13.53-9.93-38.67,5.4-48.64-.63-.16-1.27-.24-1.9-.41,5.48,7.26,7.64,18.86,8.52,27.66.44,4.36.7,10.12-2.23,13.74s-9.32,3-13,1.2c-9-4.3-14.18-15.59-17.92-24.23a124.64,124.64,0,0,1-8.2-26.44c-.29-1.53-3-1.18-2.74.37,2.49,18.62,6.25,39.17,0,57.43l1.71-1c-11.37-2-22-6.71-32.89-10.29-10.25-3.37-19.29-3.78-30-3-4.15.31-8.48.86-12.63.3-4.88-.67-9.73-5.14-13-8.48-8-8.16-13.11-19.08-19.19-28.63a1.41,1.41,0,0,0-2.41,0c-3.48,7.31-4.79,15.43-8.66,22.61-2.18,4-4.78,6.24-9.43,6.37a16,16,0,0,1-10.51-3.45c-11.11-8.89-9.38-28.9-6.15-41,3.83-14.25,16.4-22.4,29.49-27.61a87.49,87.49,0,0,1,47.6-5c8.74,1.62,17.25,5.13,23.93,11.09,7.27,6.48,10.42,15.24,11.53,24.69,3.12,26.43-15.39,55.06-41.58,61.13-1.77.41-1,3,.74,2.69,112.61-20.57,227.46-26.21,339.65-49.39a862.56,862.56,0,0,0,90.89-23.74,1.4,1.4,0,0,0-.74-2.69c-117.38,21.17-233.39,50.72-352.32,62.47-24.48,2.42-49,5-73.46,7.29-25,2.36-50.11,3.94-75.16,2.14-1.8-.13-1.79,2.66,0,2.79,27.91,2,55.92-.2,83.71-3,28.19-2.81,56.46-5.36,84.61-8.55,58.61-6.64,116.65-17.39,174.45-29,53-10.6,105.76-21.92,158.91-31.5l-.74-2.69c-109.76,35.5-225.46,44.29-339.19,59.14-30.55,4-61,8.46-91.35,14l.74,2.69c19.59-4.54,34-20.48,40.6-39,5.41-15.28,4.85-34.16-5.4-47.31-8.66-11.12-23.22-15.75-36.73-17.06a92.06,92.06,0,0,0-45.19,7.6c-9.83,4.3-20.64,11.14-25.27,21.24-4.86,10.59-5.88,23.66-3.67,35,2.17,11.12,9.54,19.66,21.51,19.32,13.66-.39,15.15-20.89,19.6-30.67h-2.41c6.06,9.78,11.26,20.06,18.75,28.58,6,6.83,13.21,10.89,22.3,10.52,5.16-.22,10.3-.71,15.46-.89a52.58,52.58,0,0,1,16.82,2.5c12.1,3.51,23.54,9.06,36,11.29a1.44,1.44,0,0,0,1.72-1c6.29-18.53,2.57-39.27,0-58.16l-2.74.38a131.14,131.14,0,0,0,9.69,29.82c4.22,9.32,10.71,21.09,21.41,23.9a14.07,14.07,0,0,0,12.25-2.56c3.54-3.07,3.75-9,3.66-13.27a71,71,0,0,0-3.49-19c-1.3-4.32-2.83-9.26-5.59-12.91a1.41,1.41,0,0,0-1.9-.5c-16.62,10.81-16.17,37.41-6.4,52.63a1.4,1.4,0,0,0,2.4,0,35,35,0,0,0,2.5-19.95l-2.68.74c5.1,17.36,17.38,39.44,37.91,39.95a1.4,1.4,0,0,0,1.39-1.39c-.21-9.8-3.48-18.9-7.27-27.83-.64-1.52-2.88-.4-2.54,1.07,3.16,13.88,13.05,28.44,24.05,37.28,4.55,3.66,10.21,6.45,16.16,5.14,5.78-1.27,10.14-7.39,11.74-12.75,2.18-7.29.79-15.66-.46-23a258.61,258.61,0,0,0-6.54-26.74c-5.67-20-9.3-40.53-14.08-60.77-4.83-20.48-10.79-41.05-21.25-59.44a1.41,1.41,0,0,0-2.55.34c-5.06,21.62-3.69,45.34-.93,67.17a180.9,180.9,0,0,0,7.57,34.75c3,8.83,7,17.89,13.77,24.47a1.42,1.42,0,0,0,2.33-.62c15.78-37.47,1.27-79.08,8.26-118l-2.55.33c7.24,14.1,8.69,30.49,10.35,46,1.45,13.56,3.8,26.94,5.53,40.46,1.67,13.06,3.44,26.15,6.74,38.92,2.83,11,7,22.57,15.35,30.59a1.42,1.42,0,0,0,2.33-.64c14-66.69-1.06-134.44,7.12-202.11H1664c-8.29,69.17-14.11,138.21-14.16,207.64a1.4,1.4,0,0,0,2.79,0Z" transform="translate(-1 -59.3)"/><rect class="cls-5" x="1235.31" y="2640.93" width="728.02" height="26"/><path class="cls-5" d="M1254.43,2610.91v-8.84H1282v8.84Z" transform="translate(-1 -59.3)"/><path class="cls-5" d="M1325.53,2610.91v-8.84h27.55v8.84Z" transform="translate(-1 -59.3)"/><path class="cls-5" d="M1396.62,2610.91v-8.84h27.55v8.84Z" transform="translate(-1 -59.3)"/><path class="cls-5" d="M1467.71,2610.91v-8.84h27.56v8.84Z" transform="translate(-1 -59.3)"/><path class="cls-5" d="M1538.82,2610.91v-8.84h27.55v8.84Z" transform="translate(-1 -59.3)"/><path class="cls-5" d="M1609.92,2610.91v-8.84h27.55v8.84Z" transform="translate(-1 -59.3)"/><path class="cls-5" d="M1681,2610.91v-8.84h27.55v8.84Z" transform="translate(-1 -59.3)"/><path class="cls-5" d="M1752.13,2610.91v-8.84h27.55v8.84Z" transform="translate(-1 -59.3)"/><path class="cls-5" d="M1823.23,2610.91v-8.84h27.55v8.84Z" transform="translate(-1 -59.3)"/><path class="cls-5" d="M1894.33,2610.91v-8.84h27.55v8.84Z" transform="translate(-1 -59.3)"/><rect class="cls-6" x="1301.74" y="2414.02" width="415.77" height="22.56"/><rect class="cls-6" x="1301.74" y="2370.42" width="529.29" height="22.55"/><rect class="cls-6" x="1301.74" y="2462.89" width="639.82" height="21.8"/><path class="cls-7" d="M1285.44,2440a13.81,13.81,0,1,1-13.81-13.8A13.81,13.81,0,0,1,1285.44,2440Z" transform="translate(-1 -59.3)"/><path class="cls-7" d="M1285.44,2485.51a13.81,13.81,0,1,1-13.81-13.8A13.81,13.81,0,0,1,1285.44,2485.51Z" transform="translate(-1 -59.3)"/><path class="cls-7" d="M1285.44,2533.8a13.81,13.81,0,1,1-13.81-13.8A13.81,13.81,0,0,1,1285.44,2533.8Z" transform="translate(-1 -59.3)"/><path class="cls-8" d="M1615.91,2339.59c-126.6-30.63-159.85,107.95-159.85,107.95L1321.87,2945.3s-74.44,41.89-132.94,23.56c-11.24-3.51-8.23-25,3.81-57.16V2559.56c-111.65,94-269.23,227.53-292.82,291.36C881,2902.16,874.19,3007.36,870.3,3145c-2.94,103.95-4.24,226.41-7.81,358.24-1.53,57.34-27.13,127-67.66,202.45,85.71,78.9,190.88,281.52,301.74,383.55,39.53,36.37,94.54,46.17,142.46,30.26,191.84-137.26,211-242.06,266.59-343.64,58.12-106.21,161.63-375.6,140.89-637.08-20.23-254.86,2.44-191.1,45.84-475.26,1.14-7.37,2.28-14.79,3.43-22.64C1741.45,2330.41,1615.91,2339.59,1615.91,2339.59Z" transform="translate(-1 -59.3)"/><path class="cls-9" d="M1032,3927.4l262.8,239.24a66.46,66.46,0,0,1,3.77,94.94L1236,4327.82c-124.31-30.11-224.82-48.92-252.48-74.12l-229.12-30.87,63.12-67.17Z" transform="translate(-1 -59.3)"/><path class="cls-10" d="M769.16,3688.16,1032,3927.4,817.5,4155.66l-63.12,67.17L491.58,3983.6a66.45,66.45,0,0,1-3.76-94.94l184.9-196.79A69,69,0,0,1,769.16,3688.16Z" transform="translate(-1 -59.3)"/><polygon class="cls-11" points="654.81 4271.63 654.83 4271.63 933.41 3978.56 654.81 4271.63"/><polygon class="cls-12" points="49.14 4941.7 49.71 4941.7 190.68 4787.54 49.14 4941.7"/><path class="cls-13" d="M932.79,4036.37,630.4,3761.09c-26.85-24.45-62.52-29.5-79.67-11.24L1,4329.86V5001H50.14l141.54-154.16Z" transform="translate(-1 -59.3)"/><path class="cls-14" d="M1232.72,4317.5,933.81,4035.25l-1,1.12,1.62,1.47-742.73,809L50.71,5001H698.53l551.4-604.88C1266.85,4377.62,1259.12,4342.43,1232.72,4317.5Z" transform="translate(-1 -59.3)"/><polygon class="cls-14" points="933.41 3978.54 931.79 3977.07 190.68 4787.52 933.41 3978.54"/><path class="cls-15" d="M3307.19,3069c0,47.28-33.92,85.59-75.74,85.59s-75.73-38.31-75.73-85.59,33.9-85.59,75.73-85.59S3307.19,3021.71,3307.19,3069Z" transform="translate(-1 -59.3)"/><rect class="cls-16" x="2946.61" y="1327.26" width="576.97" height="93.42"/><path class="cls-17" d="M3231.45,3165.11a101.75,101.75,0,1,1,101.74-101.75A101.86,101.86,0,0,1,3231.45,3165.11Zm0-162.91a61.17,61.17,0,1,0,61.17,61.16A61.24,61.24,0,0,0,3231.45,3002.2Z" transform="translate(-1 -59.3)"/><polygon class="cls-18" points="2763.33 1466.28 2763.33 2870.16 3697.06 1466.28 2763.33 1466.28"/><polygon class="cls-19" points="2763.33 2870.16 2763.33 2890.09 3697.57 2890.09 3697.57 1466.28 3697.06 1466.28 2763.33 2870.16"/><path class="cls-20" d="M3698.57,2960.62H2764.33a11.23,11.23,0,0,1-11.23-11.23V1525.58a11.23,11.23,0,0,1,11.23-11.21h934.24a11.22,11.22,0,0,1,11.22,11.21V2949.39A11.22,11.22,0,0,1,3698.57,2960.62Zm-923-22.45h911.79V1536.81H2775.55Z" transform="translate(-1 -59.3)"/><rect class="cls-21" x="2763.97" y="1470.42" width="463.75" height="1414.52"/><path class="cls-21" d="M3156,3063.79c0,41.17,32.35,74.71,72.73,76.3V2987.47C3188.34,2989.06,3156,3022.61,3156,3063.79Z" transform="translate(-1 -59.3)"/><path class="cls-21" d="M3231.58,3140.17c41.83,0,75.67-34.2,75.67-76.38s-33.81-76.39-75.63-76.39c-1,0-1.67,0-2.9.07v152.62C3230,3140.13,3230.58,3140.17,3231.58,3140.17Z" transform="translate(-1 -59.3)"/><rect class="cls-21" x="3227.72" y="1470.42" width="471.1" height="1414.52"/><path class="cls-21" d="M3460.35,1456.31c16.81,0,30.45-14.24,30.45-31.2s-13.64-31.21-30.45-31.21H3228.72v62.41Z" transform="translate(-1 -59.3)"/><path class="cls-21" d="M2972.11,1425.11c0,17,13.63,31.2,30.44,31.2h226.17V1393.9H3002.55C2985.74,1393.9,2972.11,1408.15,2972.11,1425.11Z" transform="translate(-1 -59.3)"/><path class="cls-22" d="M3156,3063.79c0-41.18,32.35-74.73,72.73-76.32v-43.23H2765V1529.72h463.75v-73.41H3002.55c-16.81,0-30.44-14.24-30.44-31.2s13.63-31.21,30.44-31.21h226.17v-71H2803.77c-71.29,0-130.57,56.9-130.57,128.79V3055.46c0,72,59.28,131.06,130.57,131.06h424.95v-46.43C3188.34,3138.5,3156,3105,3156,3063.79Z" transform="translate(-1 -59.3)"/><path class="cls-23" d="M3659.11,1322.93H3228.72v71h231.63c16.81,0,30.45,14.25,30.45,31.21s-13.64,31.2-30.45,31.2H3228.72v73.41h471.1V2944.24h-471.1v43.23c1.23,0,1.86-.07,2.86-.07,41.83,0,75.67,34.19,75.67,76.39s-33.81,76.38-75.63,76.38c-1,0-1.67,0-2.9-.08v46.43h430.39c71.38,0,130-59.21,130-131.12V1451.72C3789.15,1379.78,3730.37,1322.93,3659.11,1322.93Z" transform="translate(-1 -59.3)"/><path class="cls-24" d="M2871.55,1679a27,27,0,1,1-27-27A27,27,0,0,1,2871.55,1679Z" transform="translate(-1 -59.3)"/><path class="cls-25" d="M2944.74,1679a27,27,0,1,1-26.92-27A26.91,26.91,0,0,1,2944.74,1679Z" transform="translate(-1 -59.3)"/><path class="cls-26" d="M3018,1679a27,27,0,1,1-27-27A27,27,0,0,1,3018,1679Z" transform="translate(-1 -59.3)"/><rect class="cls-4" x="3213.98" y="1888.79" width="104.91" height="97.15"/><rect class="cls-4" x="2944.49" y="2262.64" width="104.94" height="97.1"/><rect class="cls-4" x="2944.49" y="2384.09" width="104.94" height="97"/><rect class="cls-4" x="3374" y="1888.79" width="104.94" height="97.15"/><rect class="cls-4" x="3534.16" y="1888.79" width="104.91" height="97.15"/><rect class="cls-4" x="3213.98" y="2200.97" width="425.09" height="35.2"/><rect class="cls-4" x="3213.98" y="2320.87" width="425.09" height="38.43"/><rect class="cls-4" x="3213.98" y="2447.23" width="425.09" height="35.19"/><rect class="cls-27" x="2836.25" y="1794.81" width="98.33" height="37.86"/><rect class="cls-27" x="2950.98" y="1794.81" width="173.71" height="37.86"/><rect class="cls-27" x="2836.25" y="1921.08" width="206.12" height="37.85"/><rect class="cls-27" x="3058.79" y="1921.08" width="65.89" height="37.85"/><rect class="cls-27" x="2836.25" y="2042.48" width="44.53" height="37.86"/><rect class="cls-27" x="2897.12" y="2042.48" width="227.57" height="37.86"/><rect class="cls-27" x="2836.25" y="2168.74" width="98.33" height="37.8"/><rect class="cls-27" x="2950.98" y="2168.74" width="173.71" height="37.8"/><rect class="cls-4" x="2821.9" y="1699.61" width="837.47" height="35.2"/><path class="cls-28" d="M3582,2676.87c0-50.06-41.24-90.87-91.3-90.87H2961.13c-50.06,0-90.13,40.81-90.13,90.87V2719h711Z" transform="translate(-1 -59.3)"/><path class="cls-29" d="M2871,2719v42.81c0,50.06,40.07,91.19,90.13,91.19H3490.7c50.06,0,91.3-41.13,91.3-91.19V2719Z" transform="translate(-1 -59.3)"/><path class="cls-4" d="M2995.86,2641.46c13.43-1.92,32.28-3.35,58.84-3.35,26.85,0,46,4.31,58.84,12.93,12.29,8.13,20.57,21.54,20.57,37.34s-6.28,29.2-17.71,38.3c-14.85,11.73-36.85,17-62.55,17A130.53,130.53,0,0,1,3039,2743v57.69h-43.13Zm43.13,73.25a79,79,0,0,0,14.57,1c23.14,0,37.42-9.82,37.42-26.33,0-14.85-12.28-23.7-34-23.7-8.86,0-14.85.72-18,1.43Z" transform="translate(-1 -59.3)"/><path class="cls-4" d="M3189.52,2759.23l-13.71,41.42h-45.13l58.84-161.34h57.12l59.7,161.34H3259.5l-14.86-41.42Zm48.84-27.29-12-34.23c-3.42-9.57-6.85-21.54-9.71-31.12h-.57c-2.85,9.58-5.71,21.79-8.85,31.12l-11.43,34.23Z" transform="translate(-1 -59.3)"/><path class="cls-4" d="M3349.47,2800.65v-66.07l-60.84-95.27h49.7l19.71,38.77c6,11.73,10,20.35,14.85,30.88h.57c4.29-10.05,8.86-19.38,14.57-30.88l19.42-38.77h48.85l-63.41,94.07v67.27Z" transform="translate(-1 -59.3)"/><path class="cls-8" d="M4350.84,3266.05c-58.94,13.64-95.49,71.29-86.05,130-.68,0-1.15-.09-1.62-.09L4239.1,3291.9c-14.22-61.44-76.06-100.14-137.61-85.91-61.34,14.18-100.13,76.17-85.92,137.6l-25.84-111.75c-14.21-61.44-76.05-100.14-137.6-85.9-61.33,14.18-100.12,76.15-85.91,137.59l-103.38-447c-14.21-61.44-76-100.14-137.58-85.91-61.35,14.18-100.13,76.16-85.92,137.6l16.52,71.38,138.56,599.14,18.68,80.76c3.15,13.64-6.49,28.63-18.68,35.59s-29.07,5.57-39.34-4.06c-107.08-88.19-126.36-195.38-244.88-168A79.52,79.52,0,0,0,3269,3634l524.39,672.59c13.89,15.41,142.08,117,162.38,112.27,97.79-22.61,379.91-68.43,590.11-117.05,92.53-21.4,106.16-242.57,84.73-335.21L4488.45,3352C4474.23,3290.52,4412.4,3251.82,4350.84,3266.05Z" transform="translate(-1 -59.3)"/><path class="cls-10" d="M4276.26,4283l371.58-103.11c39.12-10.86,78.39,17.38,87.68,63.07L4802.7,4573c9.3,45.68-14.89,91.52-54,102.37L4377.1,4778.5l-22.93-112.67Z" transform="translate(-1 -59.3)"/><path class="cls-9" d="M3904.68,4386.08,4276.26,4283l77.91,382.86,22.93,112.67-371.57,103.11c-39.14,10.87-78.38-17.38-87.68-63.06l-67.18-330.09C3841.39,4442.78,3865.54,4396.94,3904.68,4386.08Z" transform="translate(-1 -59.3)"/><path class="cls-14" d="M4317.66,4461.79l-429.84,119.27c-38,10.54-63.72,43.87-57.49,74.5L3900.62,5001h526.77Z" transform="translate(-1 -59.3)"/><path class="cls-13" d="M4954.12,5001l-126.61-622.13c-6.23-30.61-42.06-46.87-80-36.34l-429.81,119.28L4427.39,5001Z" transform="translate(-1 -59.3)"/><text class="cls-30" transform="translate(1314.67 1937.13)">Enab</text></svg>