<svg xmlns="http://www.w3.org/2000/svg" xmlns:xlink="http://www.w3.org/1999/xlink" viewBox="0 0 841.51 529.18"><defs><style>.cls-1{fill:none;}.cls-2{fill:#e6edfe;}.cls-3{fill:#222221;}.cls-4{fill:#fefefe;}.cls-5{clip-path:url(#clip-path);}.cls-6{fill:#ffc9e0;}.cls-7{clip-path:url(#clip-path-2);}.cls-8{fill:#c1c5ef;}.cls-9{fill:#fff;}.cls-10{fill:#894eed;}.cls-11{fill:#d9f1cf;}.cls-12{fill:#ad9fd3;}.cls-13{fill:#f87456;}</style><clipPath id="clip-path" transform="translate(54.11 29.1)"><circle class="cls-1" cx="631.4" cy="113.19" r="79.18"/></clipPath><clipPath id="clip-path-2" transform="translate(54.11 29.1)"><circle class="cls-1" cx="89.56" cy="241.63" r="79.18" transform="translate(-144.63 134.1) rotate(-45)"/></clipPath></defs><g id="OBJECTS"><path class="cls-2" d="M712.57,348.84c-17.75-44.07-48-82-68.07-125C625,182.05,614.65,135.08,585.58,99.33c-26.08-32.07-66.09-52-107.32-55s-83.18,10.76-115.6,36.41c-40,31.69-64.45,79.05-100.76,115-38.53,38.11-89.08,61.89-140.68,78.45-19.22,6.17-38.93,11.52-56.49,21.47S31.62,321,26.55,340.49c-4.87,18.78.6,39,10.63,55.66H724.63A181.17,181.17,0,0,0,712.57,348.84Z" transform="translate(54.11 29.1)"/><rect class="cls-3" x="54.11" y="425" width="750" height="0.5"/><path class="cls-4" d="M378,269.89a1.68,1.68,0,1,1-1.68-1.68A1.68,1.68,0,0,1,378,269.89Z" transform="translate(54.11 29.1)"/><path class="cls-4" d="M388.72,269.89a1.69,1.69,0,1,1-1.69-1.68A1.69,1.69,0,0,1,388.72,269.89Z" transform="translate(54.11 29.1)"/><path class="cls-4" d="M399.44,269.89a1.68,1.68,0,1,1-1.68-1.68A1.68,1.68,0,0,1,399.44,269.89Z" transform="translate(54.11 29.1)"/><path class="cls-4" d="M410.17,269.89a1.68,1.68,0,1,1-1.68-1.68A1.68,1.68,0,0,1,410.17,269.89Z" transform="translate(54.11 29.1)"/><path class="cls-4" d="M420.9,269.89a1.69,1.69,0,1,1-1.68-1.68A1.68,1.68,0,0,1,420.9,269.89Z" transform="translate(54.11 29.1)"/><path class="cls-4" d="M431.62,269.89a1.68,1.68,0,1,1-1.68-1.68A1.68,1.68,0,0,1,431.62,269.89Z" transform="translate(54.11 29.1)"/><path class="cls-4" d="M442.35,269.89a1.68,1.68,0,1,1-1.68-1.68A1.68,1.68,0,0,1,442.35,269.89Z" transform="translate(54.11 29.1)"/><path class="cls-4" d="M453.08,269.89a1.69,1.69,0,1,1-1.68-1.68A1.68,1.68,0,0,1,453.08,269.89Z" transform="translate(54.11 29.1)"/><path class="cls-4" d="M463.8,269.89a1.68,1.68,0,1,1-1.68-1.68A1.68,1.68,0,0,1,463.8,269.89Z" transform="translate(54.11 29.1)"/><path class="cls-4" d="M474.53,269.89a1.68,1.68,0,1,1-1.68-1.68A1.68,1.68,0,0,1,474.53,269.89Z" transform="translate(54.11 29.1)"/><path class="cls-4" d="M485.26,269.89a1.69,1.69,0,1,1-1.68-1.68A1.68,1.68,0,0,1,485.26,269.89Z" transform="translate(54.11 29.1)"/><path class="cls-4" d="M378,278.88a1.68,1.68,0,1,1-1.68-1.68A1.68,1.68,0,0,1,378,278.88Z" transform="translate(54.11 29.1)"/><circle class="cls-4" cx="441.14" cy="307.98" r="1.68"/><path class="cls-4" d="M399.44,278.88a1.68,1.68,0,1,1-1.68-1.68A1.68,1.68,0,0,1,399.44,278.88Z" transform="translate(54.11 29.1)"/><circle class="cls-4" cx="462.59" cy="307.98" r="1.68"/><path class="cls-4" d="M420.9,278.88a1.69,1.69,0,1,1-1.68-1.68A1.68,1.68,0,0,1,420.9,278.88Z" transform="translate(54.11 29.1)"/><circle class="cls-4" cx="484.05" cy="307.98" r="1.68"/><path class="cls-4" d="M442.35,278.88a1.68,1.68,0,1,1-1.68-1.68A1.68,1.68,0,0,1,442.35,278.88Z" transform="translate(54.11 29.1)"/><circle class="cls-4" cx="505.5" cy="307.98" r="1.68"/><circle class="cls-4" cx="516.23" cy="307.98" r="1.68"/><circle class="cls-4" cx="526.95" cy="307.98" r="1.68"/><circle class="cls-4" cx="537.68" cy="307.98" r="1.68"/><path class="cls-4" d="M378,287.87a1.68,1.68,0,1,1-1.68-1.68A1.68,1.68,0,0,1,378,287.87Z" transform="translate(54.11 29.1)"/><circle class="cls-4" cx="441.14" cy="316.97" r="1.68"/><path class="cls-4" d="M399.44,287.87a1.68,1.68,0,1,1-1.68-1.68A1.68,1.68,0,0,1,399.44,287.87Z" transform="translate(54.11 29.1)"/><circle class="cls-4" cx="462.59" cy="316.97" r="1.68"/><path class="cls-4" d="M420.9,287.87a1.69,1.69,0,1,1-1.68-1.68A1.68,1.68,0,0,1,420.9,287.87Z" transform="translate(54.11 29.1)"/><circle class="cls-4" cx="484.05" cy="316.97" r="1.68"/><path class="cls-4" d="M442.35,287.87a1.68,1.68,0,1,1-1.68-1.68A1.68,1.68,0,0,1,442.35,287.87Z" transform="translate(54.11 29.1)"/><circle class="cls-4" cx="505.5" cy="316.97" r="1.68"/><circle class="cls-4" cx="516.23" cy="316.97" r="1.68"/><circle class="cls-4" cx="526.95" cy="316.97" r="1.68"/><circle class="cls-4" cx="537.68" cy="316.97" r="1.68"/><path class="cls-4" d="M378,296.86a1.68,1.68,0,1,1-1.68-1.68A1.68,1.68,0,0,1,378,296.86Z" transform="translate(54.11 29.1)"/><path class="cls-4" d="M388.72,296.86a1.69,1.69,0,1,1-1.69-1.68A1.69,1.69,0,0,1,388.72,296.86Z" transform="translate(54.11 29.1)"/><path class="cls-4" d="M399.44,296.86a1.68,1.68,0,1,1-1.68-1.68A1.68,1.68,0,0,1,399.44,296.86Z" transform="translate(54.11 29.1)"/><path class="cls-4" d="M410.17,296.86a1.68,1.68,0,1,1-1.68-1.68A1.68,1.68,0,0,1,410.17,296.86Z" transform="translate(54.11 29.1)"/><path class="cls-4" d="M420.9,296.86a1.69,1.69,0,1,1-1.68-1.68A1.68,1.68,0,0,1,420.9,296.86Z" transform="translate(54.11 29.1)"/><path class="cls-4" d="M431.62,296.86a1.68,1.68,0,1,1-1.68-1.68A1.68,1.68,0,0,1,431.62,296.86Z" transform="translate(54.11 29.1)"/><path class="cls-4" d="M442.35,296.86a1.68,1.68,0,1,1-1.68-1.68A1.68,1.68,0,0,1,442.35,296.86Z" transform="translate(54.11 29.1)"/><path class="cls-4" d="M453.08,296.86a1.69,1.69,0,1,1-1.68-1.68A1.68,1.68,0,0,1,453.08,296.86Z" transform="translate(54.11 29.1)"/><path class="cls-4" d="M463.8,296.86a1.68,1.68,0,1,1-1.68-1.68A1.68,1.68,0,0,1,463.8,296.86Z" transform="translate(54.11 29.1)"/><path class="cls-4" d="M474.53,296.86a1.68,1.68,0,1,1-1.68-1.68A1.68,1.68,0,0,1,474.53,296.86Z" transform="translate(54.11 29.1)"/><path class="cls-4" d="M485.26,296.86a1.69,1.69,0,1,1-1.68-1.68A1.68,1.68,0,0,1,485.26,296.86Z" transform="translate(54.11 29.1)"/><path class="cls-4" d="M378,305.85a1.68,1.68,0,1,1-1.68-1.69A1.68,1.68,0,0,1,378,305.85Z" transform="translate(54.11 29.1)"/><path class="cls-4" d="M388.72,305.85a1.69,1.69,0,1,1-1.69-1.69A1.69,1.69,0,0,1,388.72,305.85Z" transform="translate(54.11 29.1)"/><path class="cls-4" d="M399.44,305.85a1.68,1.68,0,1,1-1.68-1.69A1.68,1.68,0,0,1,399.44,305.85Z" transform="translate(54.11 29.1)"/><path class="cls-4" d="M410.17,305.85a1.68,1.68,0,1,1-1.68-1.69A1.68,1.68,0,0,1,410.17,305.85Z" transform="translate(54.11 29.1)"/><path class="cls-4" d="M420.9,305.85a1.69,1.69,0,1,1-1.68-1.69A1.68,1.68,0,0,1,420.9,305.85Z" transform="translate(54.11 29.1)"/><path class="cls-4" d="M431.62,305.85a1.68,1.68,0,1,1-1.68-1.69A1.68,1.68,0,0,1,431.62,305.85Z" transform="translate(54.11 29.1)"/><path class="cls-4" d="M442.35,305.85a1.68,1.68,0,1,1-1.68-1.69A1.68,1.68,0,0,1,442.35,305.85Z" transform="translate(54.11 29.1)"/><path class="cls-4" d="M453.08,305.85a1.69,1.69,0,1,1-1.68-1.69A1.68,1.68,0,0,1,453.08,305.85Z" transform="translate(54.11 29.1)"/><path class="cls-4" d="M463.8,305.85a1.68,1.68,0,1,1-1.68-1.69A1.68,1.68,0,0,1,463.8,305.85Z" transform="translate(54.11 29.1)"/><path class="cls-4" d="M474.53,305.85a1.68,1.68,0,1,1-1.68-1.69A1.68,1.68,0,0,1,474.53,305.85Z" transform="translate(54.11 29.1)"/><path class="cls-4" d="M485.26,305.85a1.69,1.69,0,1,1-1.68-1.69A1.68,1.68,0,0,1,485.26,305.85Z" transform="translate(54.11 29.1)"/><path class="cls-4" d="M378,314.83a1.68,1.68,0,1,1-1.68-1.68A1.69,1.69,0,0,1,378,314.83Z" transform="translate(54.11 29.1)"/><circle class="cls-4" cx="441.14" cy="343.94" r="1.68"/><path class="cls-4" d="M399.44,314.83a1.68,1.68,0,1,1-1.68-1.68A1.69,1.69,0,0,1,399.44,314.83Z" transform="translate(54.11 29.1)"/><circle class="cls-4" cx="462.59" cy="343.94" r="1.68"/><path class="cls-4" d="M420.9,314.83a1.69,1.69,0,1,1-1.68-1.68A1.69,1.69,0,0,1,420.9,314.83Z" transform="translate(54.11 29.1)"/><circle class="cls-4" cx="484.05" cy="343.94" r="1.68"/><path class="cls-4" d="M442.35,314.83a1.68,1.68,0,1,1-1.68-1.68A1.69,1.69,0,0,1,442.35,314.83Z" transform="translate(54.11 29.1)"/><circle class="cls-4" cx="505.5" cy="343.94" r="1.68"/><circle class="cls-4" cx="516.23" cy="343.94" r="1.68"/><circle class="cls-4" cx="526.95" cy="343.94" r="1.68"/><circle class="cls-4" cx="537.68" cy="343.94" r="1.68"/><path class="cls-4" d="M378,323.82a1.68,1.68,0,1,1-1.68-1.68A1.69,1.69,0,0,1,378,323.82Z" transform="translate(54.11 29.1)"/><circle class="cls-4" cx="441.14" cy="352.93" r="1.68"/><path class="cls-4" d="M399.44,323.82a1.68,1.68,0,1,1-1.68-1.68A1.69,1.69,0,0,1,399.44,323.82Z" transform="translate(54.11 29.1)"/><circle class="cls-4" cx="462.59" cy="352.93" r="1.68"/><path class="cls-4" d="M420.9,323.82a1.69,1.69,0,1,1-1.68-1.68A1.69,1.69,0,0,1,420.9,323.82Z" transform="translate(54.11 29.1)"/><circle class="cls-4" cx="484.05" cy="352.93" r="1.68"/><path class="cls-4" d="M442.35,323.82a1.68,1.68,0,1,1-1.68-1.68A1.69,1.69,0,0,1,442.35,323.82Z" transform="translate(54.11 29.1)"/><circle class="cls-4" cx="505.5" cy="352.93" r="1.68"/><circle class="cls-4" cx="516.23" cy="352.93" r="1.68"/><circle class="cls-4" cx="526.95" cy="352.93" r="1.68"/><circle class="cls-4" cx="537.68" cy="352.93" r="1.68"/><path class="cls-4" d="M378,332.81a1.68,1.68,0,1,1-1.68-1.68A1.68,1.68,0,0,1,378,332.81Z" transform="translate(54.11 29.1)"/><path class="cls-4" d="M388.72,332.81a1.69,1.69,0,1,1-1.69-1.68A1.69,1.69,0,0,1,388.72,332.81Z" transform="translate(54.11 29.1)"/><path class="cls-4" d="M399.44,332.81a1.68,1.68,0,1,1-1.68-1.68A1.68,1.68,0,0,1,399.44,332.81Z" transform="translate(54.11 29.1)"/><path class="cls-4" d="M410.17,332.81a1.68,1.68,0,1,1-1.68-1.68A1.68,1.68,0,0,1,410.17,332.81Z" transform="translate(54.11 29.1)"/><path class="cls-4" d="M420.9,332.81a1.69,1.69,0,1,1-1.68-1.68A1.68,1.68,0,0,1,420.9,332.81Z" transform="translate(54.11 29.1)"/><path class="cls-4" d="M431.62,332.81a1.68,1.68,0,1,1-1.68-1.68A1.68,1.68,0,0,1,431.62,332.81Z" transform="translate(54.11 29.1)"/><path class="cls-4" d="M442.35,332.81a1.68,1.68,0,1,1-1.68-1.68A1.68,1.68,0,0,1,442.35,332.81Z" transform="translate(54.11 29.1)"/><path class="cls-4" d="M453.08,332.81a1.69,1.69,0,1,1-1.68-1.68A1.68,1.68,0,0,1,453.08,332.81Z" transform="translate(54.11 29.1)"/><path class="cls-4" d="M463.8,332.81a1.68,1.68,0,1,1-1.68-1.68A1.68,1.68,0,0,1,463.8,332.81Z" transform="translate(54.11 29.1)"/><path class="cls-4" d="M474.53,332.81a1.68,1.68,0,1,1-1.68-1.68A1.68,1.68,0,0,1,474.53,332.81Z" transform="translate(54.11 29.1)"/><path class="cls-4" d="M485.26,332.81a1.69,1.69,0,1,1-1.68-1.68A1.68,1.68,0,0,1,485.26,332.81Z" transform="translate(54.11 29.1)"/><path class="cls-4" d="M378,341.8a1.68,1.68,0,1,1-1.68-1.68A1.68,1.68,0,0,1,378,341.8Z" transform="translate(54.11 29.1)"/><circle class="cls-4" cx="441.14" cy="370.9" r="1.68"/><path class="cls-4" d="M399.44,341.8a1.68,1.68,0,1,1-1.68-1.68A1.68,1.68,0,0,1,399.44,341.8Z" transform="translate(54.11 29.1)"/><circle class="cls-4" cx="462.59" cy="370.9" r="1.68"/><path class="cls-4" d="M420.9,341.8a1.69,1.69,0,1,1-1.68-1.68A1.68,1.68,0,0,1,420.9,341.8Z" transform="translate(54.11 29.1)"/><circle class="cls-4" cx="484.05" cy="370.9" r="1.68"/><path class="cls-4" d="M442.35,341.8a1.68,1.68,0,1,1-1.68-1.68A1.68,1.68,0,0,1,442.35,341.8Z" transform="translate(54.11 29.1)"/><circle class="cls-4" cx="505.5" cy="370.9" r="1.68"/><circle class="cls-4" cx="516.23" cy="370.9" r="1.68"/><circle class="cls-4" cx="526.95" cy="370.9" r="1.68"/><circle class="cls-4" cx="537.68" cy="370.9" r="1.68"/><path class="cls-4" d="M378,350.79a1.68,1.68,0,1,1-1.68-1.68A1.68,1.68,0,0,1,378,350.79Z" transform="translate(54.11 29.1)"/><circle class="cls-4" cx="441.14" cy="379.89" r="1.68"/><path class="cls-4" d="M399.44,350.79a1.68,1.68,0,1,1-1.68-1.68A1.68,1.68,0,0,1,399.44,350.79Z" transform="translate(54.11 29.1)"/><circle class="cls-4" cx="462.59" cy="379.89" r="1.68"/><path class="cls-4" d="M420.9,350.79a1.69,1.69,0,1,1-1.68-1.68A1.68,1.68,0,0,1,420.9,350.79Z" transform="translate(54.11 29.1)"/><circle class="cls-4" cx="484.05" cy="379.89" r="1.68"/><path class="cls-4" d="M442.35,350.79a1.68,1.68,0,1,1-1.68-1.68A1.68,1.68,0,0,1,442.35,350.79Z" transform="translate(54.11 29.1)"/><circle class="cls-4" cx="505.5" cy="379.89" r="1.68"/><circle class="cls-4" cx="516.23" cy="379.89" r="1.68"/><circle class="cls-4" cx="526.95" cy="379.89" r="1.68"/><circle class="cls-4" cx="537.68" cy="379.89" r="1.68"/><path class="cls-4" d="M378,359.78a1.68,1.68,0,1,1-1.68-1.68A1.68,1.68,0,0,1,378,359.78Z" transform="translate(54.11 29.1)"/><path class="cls-4" d="M388.72,359.78A1.69,1.69,0,1,1,387,358.1,1.69,1.69,0,0,1,388.72,359.78Z" transform="translate(54.11 29.1)"/><path class="cls-4" d="M399.44,359.78a1.68,1.68,0,1,1-1.68-1.68A1.68,1.68,0,0,1,399.44,359.78Z" transform="translate(54.11 29.1)"/><path class="cls-4" d="M410.17,359.78a1.68,1.68,0,1,1-1.68-1.68A1.68,1.68,0,0,1,410.17,359.78Z" transform="translate(54.11 29.1)"/><path class="cls-4" d="M420.9,359.78a1.69,1.69,0,1,1-1.68-1.68A1.68,1.68,0,0,1,420.9,359.78Z" transform="translate(54.11 29.1)"/><path class="cls-4" d="M431.62,359.78a1.68,1.68,0,1,1-1.68-1.68A1.68,1.68,0,0,1,431.62,359.78Z" transform="translate(54.11 29.1)"/><path class="cls-4" d="M442.35,359.78a1.68,1.68,0,1,1-1.68-1.68A1.68,1.68,0,0,1,442.35,359.78Z" transform="translate(54.11 29.1)"/><path class="cls-4" d="M453.08,359.78a1.69,1.69,0,1,1-1.68-1.68A1.68,1.68,0,0,1,453.08,359.78Z" transform="translate(54.11 29.1)"/><path class="cls-4" d="M463.8,359.78a1.68,1.68,0,1,1-1.68-1.68A1.68,1.68,0,0,1,463.8,359.78Z" transform="translate(54.11 29.1)"/><path class="cls-4" d="M474.53,359.78a1.68,1.68,0,1,1-1.68-1.68A1.68,1.68,0,0,1,474.53,359.78Z" transform="translate(54.11 29.1)"/><path class="cls-4" d="M485.26,359.78a1.69,1.69,0,1,1-1.68-1.68A1.68,1.68,0,0,1,485.26,359.78Z" transform="translate(54.11 29.1)"/><path class="cls-4" d="M378,368.77a1.68,1.68,0,1,1-1.68-1.69A1.68,1.68,0,0,1,378,368.77Z" transform="translate(54.11 29.1)"/><circle class="cls-4" cx="441.14" cy="397.87" r="1.68"/><path class="cls-4" d="M399.44,368.77a1.68,1.68,0,1,1-1.68-1.69A1.68,1.68,0,0,1,399.44,368.77Z" transform="translate(54.11 29.1)"/><circle class="cls-4" cx="462.59" cy="397.87" r="1.68"/><path class="cls-4" d="M420.9,368.77a1.69,1.69,0,1,1-1.68-1.69A1.68,1.68,0,0,1,420.9,368.77Z" transform="translate(54.11 29.1)"/><circle class="cls-4" cx="484.05" cy="397.87" r="1.68"/><path class="cls-4" d="M442.35,368.77a1.68,1.68,0,1,1-1.68-1.69A1.68,1.68,0,0,1,442.35,368.77Z" transform="translate(54.11 29.1)"/><circle class="cls-4" cx="505.5" cy="397.87" r="1.68"/><circle class="cls-4" cx="516.23" cy="397.87" r="1.68"/><circle class="cls-4" cx="526.95" cy="397.87" r="1.68"/><circle class="cls-4" cx="537.68" cy="397.87" r="1.68"/><g class="cls-5"><path class="cls-6" d="M658.84,270.57a.38.38,0,0,1-.26-.11L487.84,99.73a.39.39,0,0,1,0-.53.37.37,0,0,1,.53,0L659.11,269.93a.39.39,0,0,1,0,.53A.4.4,0,0,1,658.84,270.57Z" transform="translate(54.11 29.1)"/><path class="cls-6" d="M662.61,266.8a.38.38,0,0,1-.26-.11L491.61,96a.39.39,0,0,1,0-.53.37.37,0,0,1,.53,0L662.88,266.16a.39.39,0,0,1,0,.53A.4.4,0,0,1,662.61,266.8Z" transform="translate(54.11 29.1)"/><path class="cls-6" d="M666.38,263a.38.38,0,0,1-.26-.11L495.38,92.19a.39.39,0,0,1,0-.53.37.37,0,0,1,.53,0L666.65,262.39a.39.39,0,0,1,0,.53A.4.4,0,0,1,666.38,263Z" transform="translate(54.11 29.1)"/><path class="cls-6" d="M670.15,259.26a.38.38,0,0,1-.26-.11L499.15,88.41a.37.37,0,0,1,0-.52.37.37,0,0,1,.53,0L670.42,258.62a.39.39,0,0,1,0,.53A.4.4,0,0,1,670.15,259.26Z" transform="translate(54.11 29.1)"/><path class="cls-6" d="M673.92,255.49a.38.38,0,0,1-.26-.11L502.92,84.64a.37.37,0,0,1,0-.52.37.37,0,0,1,.53,0L674.19,254.85a.39.39,0,0,1,0,.53A.4.4,0,0,1,673.92,255.49Z" transform="translate(54.11 29.1)"/><path class="cls-6" d="M677.69,251.72a.38.38,0,0,1-.26-.11L506.69,80.87a.37.37,0,0,1,0-.52.37.37,0,0,1,.53,0L678,251.08a.39.39,0,0,1,0,.53A.4.4,0,0,1,677.69,251.72Z" transform="translate(54.11 29.1)"/><path class="cls-6" d="M681.46,248a.38.38,0,0,1-.26-.11L510.47,77.1a.37.37,0,0,1,.52-.52L681.73,247.31a.38.38,0,0,1-.27.64Z" transform="translate(54.11 29.1)"/><path class="cls-6" d="M685.23,244.18a.38.38,0,0,1-.26-.11L514.24,73.33a.37.37,0,1,1,.52-.52L685.5,243.54a.38.38,0,0,1-.27.64Z" transform="translate(54.11 29.1)"/><path class="cls-6" d="M689,240.41a.38.38,0,0,1-.26-.11L518,69.56a.37.37,0,0,1,.52-.52L689.27,239.77a.38.38,0,0,1-.27.64Z" transform="translate(54.11 29.1)"/><path class="cls-6" d="M692.78,236.64a.39.39,0,0,1-.27-.11L521.78,65.79a.37.37,0,0,1,0-.53.37.37,0,0,1,.52,0L693,236a.37.37,0,0,1,0,.53A.38.38,0,0,1,692.78,236.64Z" transform="translate(54.11 29.1)"/><path class="cls-6" d="M696.55,232.87a.39.39,0,0,1-.27-.11L525.55,62a.37.37,0,0,1,0-.53.37.37,0,0,1,.52,0L696.81,232.23a.37.37,0,0,1,0,.53A.38.38,0,0,1,696.55,232.87Z" transform="translate(54.11 29.1)"/><path class="cls-6" d="M700.32,229.1a.39.39,0,0,1-.27-.11L529.32,58.25a.37.37,0,0,1,0-.53.39.39,0,0,1,.53,0L700.58,228.46a.37.37,0,0,1,0,.53A.38.38,0,0,1,700.32,229.1Z" transform="translate(54.11 29.1)"/><path class="cls-6" d="M704.09,225.33a.4.4,0,0,1-.27-.11L533.09,54.48a.37.37,0,0,1,0-.53.39.39,0,0,1,.53,0L704.35,224.69a.37.37,0,0,1,0,.53A.38.38,0,0,1,704.09,225.33Z" transform="translate(54.11 29.1)"/><path class="cls-6" d="M707.86,221.56a.4.4,0,0,1-.27-.11L536.86,50.71a.37.37,0,0,1,0-.53.39.39,0,0,1,.53,0L708.12,220.92a.37.37,0,0,1,0,.53A.38.38,0,0,1,707.86,221.56Z" transform="translate(54.11 29.1)"/><path class="cls-6" d="M711.63,217.79a.4.4,0,0,1-.27-.11L540.63,46.94a.37.37,0,0,1,0-.53.39.39,0,0,1,.53,0L711.89,217.15a.37.37,0,0,1,0,.53A.38.38,0,0,1,711.63,217.79Z" transform="translate(54.11 29.1)"/><path class="cls-6" d="M715.4,214a.4.4,0,0,1-.27-.11L544.4,43.17a.37.37,0,0,1,0-.53.39.39,0,0,1,.53,0L715.66,213.38a.37.37,0,0,1,0,.53A.38.38,0,0,1,715.4,214Z" transform="translate(54.11 29.1)"/><path class="cls-6" d="M719.17,210.24a.39.39,0,0,1-.27-.1L548.17,39.4a.37.37,0,0,1,0-.53.39.39,0,0,1,.53,0L719.43,209.61a.37.37,0,0,1-.26.63Z" transform="translate(54.11 29.1)"/><path class="cls-6" d="M722.94,206.47a.36.36,0,0,1-.27-.11L551.94,35.63a.37.37,0,0,1,0-.53.39.39,0,0,1,.53,0L723.2,205.84a.36.36,0,0,1,0,.52A.34.34,0,0,1,722.94,206.47Z" transform="translate(54.11 29.1)"/><path class="cls-6" d="M726.71,202.7a.36.36,0,0,1-.27-.11L555.71,31.86a.37.37,0,0,1,0-.53.39.39,0,0,1,.53,0L727,202.07a.36.36,0,0,1,0,.52A.34.34,0,0,1,726.71,202.7Z" transform="translate(54.11 29.1)"/><path class="cls-6" d="M730.48,198.93a.36.36,0,0,1-.27-.11L559.48,28.09a.37.37,0,0,1,0-.53.39.39,0,0,1,.53,0L730.74,198.3a.36.36,0,0,1,0,.52A.34.34,0,0,1,730.48,198.93Z" transform="translate(54.11 29.1)"/><path class="cls-6" d="M734.25,195.16a.33.33,0,0,1-.26-.11L563.25,24.32a.37.37,0,0,1,0-.53.39.39,0,0,1,.53,0L734.51,194.53a.36.36,0,0,1,0,.52A.34.34,0,0,1,734.25,195.16Z" transform="translate(54.11 29.1)"/><path class="cls-6" d="M738,191.39a.33.33,0,0,1-.26-.11L567,20.55a.37.37,0,0,1,.53-.53L738.28,190.76a.36.36,0,0,1,0,.52A.33.33,0,0,1,738,191.39Z" transform="translate(54.11 29.1)"/><path class="cls-6" d="M741.79,187.62a.33.33,0,0,1-.26-.11L570.79,16.78a.39.39,0,0,1,0-.53.37.37,0,0,1,.53,0L742.05,187a.36.36,0,0,1,0,.52A.33.33,0,0,1,741.79,187.62Z" transform="translate(54.11 29.1)"/><path class="cls-6" d="M745.56,183.85a.33.33,0,0,1-.26-.11L574.56,13a.39.39,0,0,1,0-.53.37.37,0,0,1,.53,0L745.82,183.21a.37.37,0,0,1,0,.53A.33.33,0,0,1,745.56,183.85Z" transform="translate(54.11 29.1)"/><path class="cls-6" d="M749.33,180.08a.34.34,0,0,1-.26-.11L578.33,9.24a.39.39,0,0,1,0-.53.37.37,0,0,1,.53,0L749.59,179.44a.37.37,0,0,1,0,.53A.33.33,0,0,1,749.33,180.08Z" transform="translate(54.11 29.1)"/><path class="cls-6" d="M753.1,176.31a.38.38,0,0,1-.26-.11L582.1,5.47a.39.39,0,0,1,0-.53.37.37,0,0,1,.53,0L753.36,175.67a.37.37,0,0,1,0,.53A.36.36,0,0,1,753.1,176.31Z" transform="translate(54.11 29.1)"/><path class="cls-6" d="M756.87,172.54a.38.38,0,0,1-.26-.11L585.87,1.7a.39.39,0,0,1,0-.53.37.37,0,0,1,.53,0L757.14,171.9a.39.39,0,0,1,0,.53A.4.4,0,0,1,756.87,172.54Z" transform="translate(54.11 29.1)"/><path class="cls-6" d="M760.64,168.77a.38.38,0,0,1-.26-.11L589.64-2.07a.39.39,0,0,1,0-.53.37.37,0,0,1,.53,0L760.91,168.13a.39.39,0,0,1,0,.53A.4.4,0,0,1,760.64,168.77Z" transform="translate(54.11 29.1)"/><path class="cls-6" d="M764.41,165a.38.38,0,0,1-.26-.11L593.41-5.84a.39.39,0,0,1,0-.53.37.37,0,0,1,.53,0L764.68,164.36a.39.39,0,0,1,0,.53A.4.4,0,0,1,764.41,165Z" transform="translate(54.11 29.1)"/><path class="cls-6" d="M768.18,161.23a.38.38,0,0,1-.26-.11L597.18-9.61a.39.39,0,0,1,0-.53.37.37,0,0,1,.53,0L768.45,160.59a.39.39,0,0,1,0,.53A.4.4,0,0,1,768.18,161.23Z" transform="translate(54.11 29.1)"/><path class="cls-6" d="M772,157.46a.38.38,0,0,1-.26-.11L601-13.38a.39.39,0,0,1,0-.53.37.37,0,0,1,.53,0L772.22,156.82a.39.39,0,0,1,0,.53A.4.4,0,0,1,772,157.46Z" transform="translate(54.11 29.1)"/><path class="cls-6" d="M775.72,153.69a.38.38,0,0,1-.26-.11L604.72-17.16a.37.37,0,0,1,0-.52.37.37,0,0,1,.53,0L776,153.05a.39.39,0,0,1,0,.53A.4.4,0,0,1,775.72,153.69Z" transform="translate(54.11 29.1)"/><path class="cls-6" d="M779.49,149.92a.38.38,0,0,1-.26-.11L608.49-20.93a.37.37,0,0,1,0-.52.37.37,0,0,1,.53,0L779.76,149.28a.39.39,0,0,1,0,.53A.4.4,0,0,1,779.49,149.92Z" transform="translate(54.11 29.1)"/><path class="cls-6" d="M783.26,146.15A.38.38,0,0,1,783,146L612.27-24.7a.36.36,0,0,1,0-.52.36.36,0,0,1,.52,0L783.53,145.51a.39.39,0,0,1,0,.53A.4.4,0,0,1,783.26,146.15Z" transform="translate(54.11 29.1)"/><path class="cls-6" d="M787,142.38a.38.38,0,0,1-.26-.11L616-28.47a.36.36,0,0,1,0-.52.36.36,0,0,1,.52,0L787.3,141.74a.38.38,0,0,1-.27.64Z" transform="translate(54.11 29.1)"/></g><g class="cls-7"><path class="cls-8" d="M117,399a.38.38,0,0,1-.26-.11L-54,228.16a.37.37,0,0,1,0-.52.37.37,0,0,1,.53,0L117.27,398.37a.39.39,0,0,1,0,.53A.4.4,0,0,1,117,399Z" transform="translate(54.11 29.1)"/><path class="cls-8" d="M120.77,395.24a.38.38,0,0,1-.26-.11L-50.23,224.39a.39.39,0,0,1,0-.53.39.39,0,0,1,.53,0L121,394.6a.39.39,0,0,1,0,.53A.4.4,0,0,1,120.77,395.24Z" transform="translate(54.11 29.1)"/><path class="cls-8" d="M124.54,391.47a.38.38,0,0,1-.26-.11L-46.46,220.62a.39.39,0,0,1,0-.53.39.39,0,0,1,.53,0L124.81,390.83a.39.39,0,0,1,0,.53A.4.4,0,0,1,124.54,391.47Z" transform="translate(54.11 29.1)"/><path class="cls-8" d="M128.31,387.7a.38.38,0,0,1-.26-.11L-42.69,216.85a.39.39,0,0,1,0-.53.39.39,0,0,1,.53,0L128.58,387.06a.39.39,0,0,1,0,.53A.4.4,0,0,1,128.31,387.7Z" transform="translate(54.11 29.1)"/><path class="cls-8" d="M132.08,383.93a.38.38,0,0,1-.26-.11L-38.91,213.08a.37.37,0,0,1,0-.53.37.37,0,0,1,.52,0L132.35,383.29a.39.39,0,0,1,0,.53A.4.4,0,0,1,132.08,383.93Z" transform="translate(54.11 29.1)"/><path class="cls-8" d="M135.85,380.16a.38.38,0,0,1-.26-.11L-35.14,209.31a.37.37,0,0,1,0-.53.37.37,0,0,1,.52,0L136.12,379.52a.38.38,0,0,1-.27.64Z" transform="translate(54.11 29.1)"/><path class="cls-8" d="M139.62,376.39a.38.38,0,0,1-.26-.11L-31.37,205.54a.37.37,0,0,1,0-.53.37.37,0,0,1,.52,0L139.89,375.75a.38.38,0,0,1-.27.64Z" transform="translate(54.11 29.1)"/><path class="cls-8" d="M143.39,372.61a.37.37,0,0,1-.26-.1L-27.6,201.77a.37.37,0,0,1,0-.53.37.37,0,0,1,.52,0L143.66,372a.39.39,0,0,1,0,.53A.38.38,0,0,1,143.39,372.61Z" transform="translate(54.11 29.1)"/><path class="cls-8" d="M147.17,368.84a.38.38,0,0,1-.27-.1L-23.83,198a.37.37,0,0,1,0-.53.37.37,0,0,1,.52,0L147.43,368.21a.39.39,0,0,1,0,.53A.37.37,0,0,1,147.17,368.84Z" transform="translate(54.11 29.1)"/><path class="cls-8" d="M150.94,365.07a.35.35,0,0,1-.27-.11L-20.06,194.23a.37.37,0,0,1,0-.53.37.37,0,0,1,.52,0L151.2,364.44a.36.36,0,0,1,0,.52A.34.34,0,0,1,150.94,365.07Z" transform="translate(54.11 29.1)"/><path class="cls-8" d="M154.71,361.3a.35.35,0,0,1-.27-.11L-16.29,190.46a.37.37,0,0,1,0-.53.37.37,0,0,1,.52,0L155,360.67a.36.36,0,0,1,0,.52A.34.34,0,0,1,154.71,361.3Z" transform="translate(54.11 29.1)"/><path class="cls-8" d="M158.48,357.53a.36.36,0,0,1-.27-.11L-12.52,186.69a.37.37,0,0,1,0-.53.39.39,0,0,1,.53,0L158.74,356.9a.36.36,0,0,1,0,.52A.34.34,0,0,1,158.48,357.53Z" transform="translate(54.11 29.1)"/><path class="cls-8" d="M162.25,353.76a.36.36,0,0,1-.27-.11L-8.75,182.92a.37.37,0,0,1,0-.53.37.37,0,0,1,.53,0L162.51,353.13a.36.36,0,0,1,0,.52A.34.34,0,0,1,162.25,353.76Z" transform="translate(54.11 29.1)"/><path class="cls-8" d="M166,350a.36.36,0,0,1-.27-.11L-5,179.15a.37.37,0,0,1,0-.53.37.37,0,0,1,.53,0L166.28,349.36a.36.36,0,0,1,0,.52A.34.34,0,0,1,166,350Z" transform="translate(54.11 29.1)"/><path class="cls-8" d="M169.79,346.22a.36.36,0,0,1-.27-.11L-1.21,175.38a.37.37,0,0,1,0-.53.37.37,0,0,1,.53,0L170.05,345.59a.36.36,0,0,1,0,.52A.34.34,0,0,1,169.79,346.22Z" transform="translate(54.11 29.1)"/><path class="cls-8" d="M173.56,342.45a.36.36,0,0,1-.27-.11L2.56,171.61a.37.37,0,0,1,.53-.53L173.82,341.81a.37.37,0,0,1,0,.53A.34.34,0,0,1,173.56,342.45Z" transform="translate(54.11 29.1)"/><path class="cls-8" d="M177.33,338.68a.36.36,0,0,1-.27-.11L6.33,167.84a.37.37,0,1,1,.53-.53L177.59,338a.37.37,0,0,1,0,.53A.34.34,0,0,1,177.33,338.68Z" transform="translate(54.11 29.1)"/><path class="cls-8" d="M181.1,334.91a.4.4,0,0,1-.27-.11L10.1,164.07a.37.37,0,0,1,.53-.53L181.36,334.27a.37.37,0,0,1,0,.53A.38.38,0,0,1,181.1,334.91Z" transform="translate(54.11 29.1)"/><path class="cls-8" d="M184.87,331.14a.4.4,0,0,1-.27-.11L13.87,160.3a.37.37,0,0,1,.53-.53L185.13,330.5a.37.37,0,0,1,0,.53A.38.38,0,0,1,184.87,331.14Z" transform="translate(54.11 29.1)"/><path class="cls-8" d="M188.64,327.37a.36.36,0,0,1-.26-.11L17.64,156.53a.37.37,0,1,1,.53-.53L188.9,326.73a.37.37,0,0,1,0,.53A.38.38,0,0,1,188.64,327.37Z" transform="translate(54.11 29.1)"/><path class="cls-8" d="M192.41,323.6a.36.36,0,0,1-.26-.11L21.41,152.76a.37.37,0,0,1,.53-.53L192.67,323a.37.37,0,0,1,0,.53A.36.36,0,0,1,192.41,323.6Z" transform="translate(54.11 29.1)"/><path class="cls-8" d="M196.18,319.83a.36.36,0,0,1-.26-.11L25.18,149a.39.39,0,0,1,0-.53.37.37,0,0,1,.53,0L196.44,319.19a.37.37,0,0,1,0,.53A.36.36,0,0,1,196.18,319.83Z" transform="translate(54.11 29.1)"/><path class="cls-8" d="M200,316.06a.36.36,0,0,1-.26-.11L29,145.21a.37.37,0,0,1,0-.52.37.37,0,0,1,.53,0L200.21,315.42a.37.37,0,0,1,0,.53A.36.36,0,0,1,200,316.06Z" transform="translate(54.11 29.1)"/><path class="cls-8" d="M203.72,312.29a.38.38,0,0,1-.26-.11L32.72,141.44a.37.37,0,0,1,0-.52.37.37,0,0,1,.53,0L204,311.65a.37.37,0,0,1,0,.53A.36.36,0,0,1,203.72,312.29Z" transform="translate(54.11 29.1)"/><path class="cls-8" d="M207.49,308.52a.38.38,0,0,1-.26-.11L36.49,137.67a.37.37,0,0,1,0-.52.37.37,0,0,1,.53,0L207.76,307.88a.39.39,0,0,1,0,.53A.4.4,0,0,1,207.49,308.52Z" transform="translate(54.11 29.1)"/><path class="cls-8" d="M211.26,304.75a.38.38,0,0,1-.26-.11L40.26,133.9a.37.37,0,0,1,0-.52.37.37,0,0,1,.53,0L211.53,304.11a.39.39,0,0,1,0,.53A.4.4,0,0,1,211.26,304.75Z" transform="translate(54.11 29.1)"/><path class="cls-8" d="M215,301a.38.38,0,0,1-.26-.11L44,130.13a.37.37,0,0,1,0-.52.37.37,0,0,1,.53,0L215.3,300.34a.39.39,0,0,1,0,.53A.4.4,0,0,1,215,301Z" transform="translate(54.11 29.1)"/><path class="cls-8" d="M218.8,297.21a.38.38,0,0,1-.26-.11L47.8,126.36a.37.37,0,0,1,0-.52.37.37,0,0,1,.53,0L219.07,296.57a.39.39,0,0,1,0,.53A.4.4,0,0,1,218.8,297.21Z" transform="translate(54.11 29.1)"/><path class="cls-8" d="M222.57,293.44a.38.38,0,0,1-.26-.11L51.57,122.59a.37.37,0,0,1,.53-.53L222.84,292.8a.39.39,0,0,1,0,.53A.4.4,0,0,1,222.57,293.44Z" transform="translate(54.11 29.1)"/><path class="cls-8" d="M226.34,289.67a.38.38,0,0,1-.26-.11L55.34,118.82a.37.37,0,0,1,.53-.53L226.61,289a.39.39,0,0,1,0,.53A.4.4,0,0,1,226.34,289.67Z" transform="translate(54.11 29.1)"/><path class="cls-8" d="M230.11,285.9a.38.38,0,0,1-.26-.11L59.11,115.05a.37.37,0,0,1,.53-.53L230.38,285.26a.39.39,0,0,1,0,.53A.4.4,0,0,1,230.11,285.9Z" transform="translate(54.11 29.1)"/><path class="cls-8" d="M233.88,282.13a.38.38,0,0,1-.26-.11L62.88,111.28a.37.37,0,1,1,.53-.53L234.15,281.49a.39.39,0,0,1,0,.53A.4.4,0,0,1,233.88,282.13Z" transform="translate(54.11 29.1)"/><path class="cls-8" d="M237.65,278.36a.38.38,0,0,1-.26-.11L66.66,107.51a.37.37,0,0,1,0-.53.37.37,0,0,1,.52,0L237.92,277.72a.39.39,0,0,1,0,.53A.4.4,0,0,1,237.65,278.36Z" transform="translate(54.11 29.1)"/><path class="cls-8" d="M241.42,274.59a.38.38,0,0,1-.26-.11L70.43,103.74a.37.37,0,0,1,0-.53.37.37,0,0,1,.52,0L241.69,274a.38.38,0,0,1-.27.64Z" transform="translate(54.11 29.1)"/><path class="cls-8" d="M245.19,270.81a.37.37,0,0,1-.26-.1L74.2,100a.37.37,0,0,1,0-.53.37.37,0,0,1,.52,0L245.46,270.18a.39.39,0,0,1,0,.53A.38.38,0,0,1,245.19,270.81Z" transform="translate(54.11 29.1)"/></g><path class="cls-8" d="M31.11,248.33,71.7,424.63l162.08,24.3,126-38.52h0c0-3.36-2.56-6.17-5.85-7.35L229.63,394.7,185.19,253.61,33.48,245.07Z" transform="translate(54.11 29.1)"/><path class="cls-3" d="M233.53,448.94c-.57-7.69-6.92-8.62-7.19-8.65L75.06,419.52l0-.17L33.24,245.13l.48-.11,41.74,174L226.4,439.79c.07,0,7,1,7.63,9.12Z" transform="translate(54.11 29.1)"/><rect class="cls-3" x="74.29" y="406.75" width="156.32" height="0.5" transform="translate(-8.3 58.31) rotate(-9.09)"/><polygon class="cls-9" points="98.25 282.53 132.03 430.03 273.12 414.62 232.92 287.35 98.25 282.53"/><path class="cls-3" d="M184.26,428.18h0l-70.79-9.26,117.9-21.72h0l67,5.37Zm-67.62-9.36,67.59,8.85L295,402.8l-63.64-5.1Z" transform="translate(54.11 29.1)"/><rect class="cls-3" x="129.1" y="409.42" width="116.43" height="0.5" transform="translate(-20.91 72.58) rotate(-11.04)"/><rect class="cls-3" x="147.22" y="411.19" width="112.68" height="0.5" transform="translate(-27.49 80.81) rotate(-12.08)"/><rect class="cls-3" x="165.66" y="413.06" width="110.8" height="0.5" transform="translate(-32.22 88.57) rotate(-12.84)"/><rect class="cls-3" x="169.49" y="382.95" width="0.5" height="72.62" transform="translate(-210.93 573.09) rotate(-83.97)"/><rect class="cls-3" x="189.93" y="380.16" width="0.5" height="69.91" transform="translate(-188.52 589.71) rotate(-83.97)"/><rect class="cls-3" x="207.86" y="378.05" width="0.5" height="66.78" transform="translate(-169.62 602.12) rotate(-83.68)"/><rect class="cls-3" x="226.98" y="375.62" width="0.5" height="63.99" transform="translate(-148.8 617.72) rotate(-83.68)"/><rect class="cls-3" x="245.74" y="373.48" width="0.5" height="60.87" transform="translate(-128.44 633.08) rotate(-83.68)"/><path class="cls-6" d="M413.85,376.54l-74.29,3L316.44,369s-11.55-2-14.22,0c0,0-4.44-.67-6.81,1.41s-17.19,14.22-16,16,6.22.89,10.37-1.48,8.59-4.45,8.59-4.45,18.67,4.25,18.37,6.87-7.7,1.43-13,1.72-14.81,3.26-9.77,6.82,19,1.78,19,1.78,19,7.11,29,3c0,0,51,4.44,58.07,5.63S413.85,376.54,413.85,376.54Z" transform="translate(54.11 29.1)"/><rect class="cls-3" x="306.71" y="365.79" width="0.5" height="10.21" transform="translate(-97.1 547.85) rotate(-68.27)"/><path class="cls-10" d="M480.86,289.22s28.26-14.75,40.22-19.82,44.85-20.18,59.07-14.55,31.7,23.11,34.66,48,9.49,117.34,8.3,129.78S612.44,500,612.44,500H421.63l25.48-62.33S433.19,397.37,435,390,480.86,289.22,480.86,289.22Z" transform="translate(54.11 29.1)"/><path class="cls-3" d="M461.35,500.08l-.48-.16c.19-.58,19.11-58.8,19.54-62.73s0-41.24,0-41.61h.5c0,1.54.44,37.71,0,41.68S462.13,497.68,461.35,500.08Z" transform="translate(54.11 29.1)"/><path class="cls-3" d="M534.22,499.89s24.89-120.67,28-129,1.78-26.11,23.56-27.45,62.66,0,91.55-9.77,48.45-11.56,51.11,1.77-38.66,164.45-38.66,164.45Z" transform="translate(54.11 29.1)"/><path class="cls-6" d="M493.63,286.56s-19,5.92-24.3,14.22S427.56,365.07,416.89,374s-40.3,35.56-47.11,37.63-99-6.81-99-6.81-18.37-19.26-20.44-19.26H240l-4.44-4.45s-24.57-4.59-26.35-4-3.38.92-2.54,3.86c.59,2.07,11.85,6.27,11.85,6.27s-10.67.79-8.76,5.73c1,2.55,10.09.59,10.09.59s29,29.63,35,31.41,15.71,1.77,15.71,1.77,91.55,27,107,24.6S469,395,469,395s23.7,4.15,33.77-8.59,13.63-46.82,6.52-67.85S493.63,286.56,493.63,286.56Z" transform="translate(54.11 29.1)"/><path class="cls-3" d="M235.4,394.9l-8.59-6.71h0a14.25,14.25,0,0,0-6.06-.74,40.26,40.26,0,0,0-8.53,1.57l-.15-.48a40.82,40.82,0,0,1,8.66-1.59,14.47,14.47,0,0,1,6.34.81l8.64,6.75Z" transform="translate(54.11 29.1)"/><rect class="cls-3" x="241.97" y="383.98" width="0.5" height="4.75" transform="translate(-150.77 505.2) rotate(-69.26)"/><polygon class="cls-3" points="525.21 423.74 524.97 423.3 551.65 408.89 551.89 409.33 525.21 423.74"/><polygon class="cls-3" points="544.61 412.93 551.71 409.09 554.91 411.54 544.61 412.93"/><path class="cls-3" d="M490.5,384.07a.25.25,0,0,1-.23-.17.25.25,0,0,1,.11-.3l7.11-3.83a.24.24,0,0,1,.27,0l3.2,2.45a.25.25,0,0,1,.09.26.27.27,0,0,1-.21.19l-10.3,1.38Zm7.08-3.79-5.75,3.11,8.35-1.12Z" transform="translate(54.11 29.1)"/><path class="cls-9" d="M542.91,499.93l-.49-.09c1.05-5.77,25.76-141.5,34.94-146.83,4.11-2.39,14-2.32,26.52-2.23,16.18.11,36.31.25,55.17-4.47,9.9-2.47,19.26-5.15,27.53-7.52,20.39-5.84,35.12-10.07,41-6.6l-.25.43c-5.66-3.35-20.3.84-40.58,6.65-8.26,2.37-17.63,5.05-27.54,7.53-18.91,4.73-39.08,4.59-55.29,4.48-12.45-.09-22.28-.16-26.27,2.16C568.63,358.65,543.17,498.52,542.91,499.93Z" transform="translate(54.11 29.1)"/><path class="cls-6" d="M467,127.15l-3.55,64.59h5.33s11,38.52,16.89,41.78,25.48,0,25.48,0l10.37,37.33s-6.22,3.85-5.92,6.52,61.92-4.44,61.92-9.78-10.07-27.55-10.67-37,2.67-40.89,2.08-52.45-45-57.78-61-61.33S469.33,118.56,467,127.15Z" transform="translate(54.11 29.1)"/><path class="cls-3" d="M477.65,210.56l-.19-.46a12.68,12.68,0,0,0,6.52-8.28l.48.14A13.18,13.18,0,0,1,477.65,210.56Z" transform="translate(54.11 29.1)"/><path class="cls-3" d="M476.44,169a2.44,2.44,0,1,1-2.44-2.44A2.44,2.44,0,0,1,476.44,169Z" transform="translate(54.11 29.1)"/><path class="cls-3" d="M477.61,153.37h-7.67a.36.36,0,0,1-.37-.37.37.37,0,0,1,.37-.38h7.67a.38.38,0,0,1,.38.38A.37.37,0,0,1,477.61,153.37Z" transform="translate(54.11 29.1)"/><polygon class="cls-3" points="565.22 262.62 576.55 255.22 568.69 275.12 565.22 262.62"/><path class="cls-3" d="M514.58,246.26h0a.25.25,0,0,1-.23-.18l-3.47-12.49a.25.25,0,0,1,.1-.28l11.34-7.41a.24.24,0,0,1,.29,0,.25.25,0,0,1,.07.28l-7.86,19.9A.24.24,0,0,1,514.58,246.26Zm-3.18-12.63,3.22,11.6,7.3-18.48Z" transform="translate(54.11 29.1)"/><path class="cls-3" d="M511.11,169s6-.89,5.67,6.22" transform="translate(54.11 29.1)"/><path class="cls-3" d="M516.78,175.47h0a.24.24,0,0,1-.23-.26c.1-2.21-.41-3.85-1.52-4.86a5.18,5.18,0,0,0-3.86-1.1.27.27,0,0,1-.29-.21.26.26,0,0,1,.21-.29,5.67,5.67,0,0,1,4.27,1.23c1.23,1.11,1.8,2.88,1.69,5.25A.25.25,0,0,1,516.78,175.47Z" transform="translate(54.11 29.1)"/><path class="cls-3" d="M500.74,172.78l3.26,16h3.85s-1.78-20.45,2.37-22.82,11-.89,10.22,13.63-5.18,22.82-4.59,25.48,4.45,9.19,16.3,15.41,34.67,3.27,34.67,3.27a256.92,256.92,0,0,0,21.62-32c9.19-16.59,16-34.37,10.67-53.63a27.13,27.13,0,0,1,10.37,27.56C605.93,184,600,216,621.93,237.37S666.07,255.74,661,246s-8.89-16-2.08-42.07,14.52-74.67-1.48-92.15-53.92-17.64-66.67,3.92c0,0-14.51-29.1-38.51-34.14s-55.71.29-73.49,16-17.48,21.63-6.81,37.33S482,157.11,500.74,172.78Z" transform="translate(54.11 29.1)"/><path class="cls-9" d="M599,138.33c-6.08-3.34-9.67-7.39-10.67-12a14.61,14.61,0,0,1,2.29-10.8l.41.3a14,14,0,0,0-2.21,10.4c1,4.48,4.48,8.41,10.42,11.68Z" transform="translate(54.11 29.1)"/><path class="cls-11" d="M143.5,224.46s-30.17,8.47-34,9.8-18.37,3.41-24,20.74S83.85,316.78,87,328.93c0,0-4.32,58.51-4.31,61s0,11,0,11L187.31,389s-.2-11,.39-14.28a21.47,21.47,0,0,0,0-6.66s.6-15,3.41-26.23,11-38.22,11-38.22,8,23.26,12.6,29.34,9,15.4,13.63,16.88,13.92-3,17.92-12.59S253,314.56,253,311.74a6.31,6.31,0,0,0-1-4s3.7-3.36,3.85-6.35-13.63-13.65-18.37-12.46-3.7,9-3.7,9-2.67-12.59-4-17.63-4-32.59-9.93-36S176.59,232,173.63,231.59,143.5,224.46,143.5,224.46Z" transform="translate(54.11 29.1)"/><path class="cls-3" d="M100.91,321.28l-.49-.12c.1-.41,2.49-10.09,4.94-13.2,2.18-2.78,5.35-19.52,6.7-26.66l.36-1.9a15.75,15.75,0,0,1,4.24-8.53l3.79-23.18,4.85-1.29.12.48-4.53,1.21-3.77,23-.07.06a15.31,15.31,0,0,0-4.14,8.3l-.36,1.9c-1.47,7.79-4.54,24-6.8,26.87C103.37,311.3,100.93,321.18,100.91,321.28Z" transform="translate(54.11 29.1)"/><path class="cls-3" d="M96.46,316.19,96,316c3.78-11.14,10.77-11.58,11.06-11.6l0,.5C107,304.93,100.13,305.39,96.46,316.19Z" transform="translate(54.11 29.1)"/><path class="cls-3" d="M106.84,259.11C101.4,248.32,93,250.22,93,250.24l-.12-.48c.09,0,8.83-2,14.46,9.13Z" transform="translate(54.11 29.1)"/><path class="cls-3" d="M110.77,351.07c-.34,0-.68,0-1,0-10.26-1-17.41-10-20.43-17.49l.47-.19c3,7.33,10,16.22,20,17.18,8.78.84,18-10.67,20-15.19,1.79-4,11.15-50.5,11.83-54.6.73-4.33-1.37-10-1.39-10.1l0-.07,0-.07c0-.12,2.67-11.81,3.11-16.11.42-4.13-1.34-5.46-1.36-5.47l.29-.41c.08.06,2,1.48,1.56,5.94-.42,4.14-2.87,15.09-3.1,16.09.26.7,2.1,6,1.4,10.28S132,331.51,130.23,335.55C128.71,339,120.16,351.07,110.77,351.07Z" transform="translate(54.11 29.1)"/><polygon class="cls-3" points="203.3 285.82 197.52 281.38 197.82 280.99 203.13 285.06 212.4 267.39 212.85 267.63 203.3 285.82"/><polygon class="cls-3" points="234.44 284.36 228.17 270.8 226.11 270.8 226.11 270.3 228.49 270.3 234.22 282.69 237.64 262.95 238.13 263.04 234.44 284.36"/><path class="cls-3" d="M202.31,303.66l-.48-.14c2.68-9,4.34-45.06,4.36-45.42l.5,0C206.67,258.49,205,294.64,202.31,303.66Z" transform="translate(54.11 29.1)"/><path class="cls-3" d="M220.92,326.36l-.5-.05c0-.4.9-9.83,1.56-12.7s4.59-3.36,5.41-3.45l6.16-12.31.45.23-6.28,12.55-.14,0c-.05,0-4.5.4-5.11,3.07C221.81,316.56,220.92,326.26,220.92,326.36Z" transform="translate(54.11 29.1)"/><path class="cls-3" d="M216.47,326.36l-.5-.05c.23-2,5.4-10,5.62-10.34l.42.28C222,316.33,216.68,324.44,216.47,326.36Z" transform="translate(54.11 29.1)"/><path class="cls-3" d="M164.3,272.66a1.89,1.89,0,1,1,1.88-1.89A1.89,1.89,0,0,1,164.3,272.66Zm0-3.27a1.39,1.39,0,1,0,1.38,1.38A1.38,1.38,0,0,0,164.3,269.39Z" transform="translate(54.11 29.1)"/><path class="cls-3" d="M161,305.47a1.88,1.88,0,1,1,1.88-1.88A1.88,1.88,0,0,1,161,305.47Zm0-3.26a1.38,1.38,0,1,0,1.38,1.38A1.38,1.38,0,0,0,161,302.21Z" transform="translate(54.11 29.1)"/><path class="cls-3" d="M158.52,346.66a1.88,1.88,0,1,1,1.88-1.88A1.88,1.88,0,0,1,158.52,346.66Zm0-3.26a1.38,1.38,0,1,0,1.38,1.38A1.38,1.38,0,0,0,158.52,343.4Z" transform="translate(54.11 29.1)"/><path class="cls-3" d="M160.15,379.55a1.88,1.88,0,1,1,1.88-1.88A1.88,1.88,0,0,1,160.15,379.55Zm0-3.26a1.38,1.38,0,1,0,1.38,1.38A1.38,1.38,0,0,0,160.15,376.29Z" transform="translate(54.11 29.1)"/><path class="cls-3" d="M236.89,294.11a10,10,0,0,0-.31-2.75c-.4-1.86,1.53-.91,1.53-.91Z" transform="translate(54.11 29.1)"/><path class="cls-3" d="M236.89,294.36h0a.24.24,0,0,1-.2-.26,10,10,0,0,0-.31-2.68,1.22,1.22,0,0,1,.26-1.28c.55-.42,1.52,0,1.63.1a.25.25,0,0,1,.13.3l-1.22,3.66A.27.27,0,0,1,236.89,294.36Zm.28-3.9a.45.45,0,0,0-.27.07c-.14.1-.16.38-.08.77.13.58.2,1.07.25,1.47l.73-2.18A2,2,0,0,0,237.17,290.46Z" transform="translate(54.11 29.1)"/><path class="cls-3" d="M252.15,301.22s1.63,1.91,2.16,0-1.68-3.26-1.68-3.26Z" transform="translate(54.11 29.1)"/><path class="cls-3" d="M253.52,302.32a2.55,2.55,0,0,1-1.56-.94.22.22,0,0,1-.06-.19l.48-3.26a.22.22,0,0,1,.14-.19.26.26,0,0,1,.24,0c.09.06,2.36,1.47,1.79,3.54-.16.58-.44.92-.84,1Zm-1.11-1.18c.25.27.81.76,1.2.67.2,0,.35-.26.46-.65a2.79,2.79,0,0,0-1.26-2.75Z" transform="translate(54.11 29.1)"/><path class="cls-12" d="M198.92,191.61s10.41-7.28,10.56-17.94-9-20.3-16.59-23.86-22.22-1.48-22.22-1.48-10.08-4.14-18.23.74-18.07,13.34-17.92,31.41,1,27.71,1,27.71L173.93,206Z" transform="translate(54.11 29.1)"/><path class="cls-6" d="M201.33,173.81s-3.55,42.23-16.74,59.12h-9.92L164,253.52s-4.15-14.52-5.48-15.11-11-1.34-12.59-3.11-2.23-7.56-2.23-7.56-.29-8.89-1.92-12.3-5.27-10.07-5.27-10.07,13.27-20.15,16.38-22.81S167,171.3,171.26,167.74c0,0-3.56,3.7-.74,3.26s11.11-2.22,11.11-2.22-7.7,3.85-3.85,4.29,14.37-2.51,14.37-2.51-7,4.14-4.89,5a4.88,4.88,0,0,0,3.85,0S193,179.15,201.33,173.81Z" transform="translate(54.11 29.1)"/><polygon class="cls-3" points="239.05 237.61 232.85 235.75 232.99 235.27 238.65 236.97 242.6 212.06 243.09 212.14 239.05 237.61"/><path class="cls-9" d="M168.92,213.22l14.86,3.56s-6.3,4.89-10.45,2.52A8.31,8.31,0,0,1,168.92,213.22Z" transform="translate(54.11 29.1)"/><circle class="cls-3" cx="227.62" cy="217.27" r="1.51"/><path class="cls-3" d="M173.51,189.93a1.77,1.77,0,1,1,1.77-1.77A1.76,1.76,0,0,1,173.51,189.93Zm0-3a1.27,1.27,0,1,0,1.27,1.26A1.27,1.27,0,0,0,173.51,186.9Z" transform="translate(54.11 29.1)"/><path class="cls-3" d="M193.74,192.56a1.52,1.52,0,1,1-1.52-1.52A1.52,1.52,0,0,1,193.74,192.56Z" transform="translate(54.11 29.1)"/><path class="cls-3" d="M192.22,194.32a1.77,1.77,0,1,1,1.77-1.76A1.76,1.76,0,0,1,192.22,194.32Zm0-3a1.27,1.27,0,1,0,1.27,1.27A1.27,1.27,0,0,0,192.22,191.29Z" transform="translate(54.11 29.1)"/><path class="cls-3" d="M180.22,180.58a.22.22,0,0,1-.17-.07c-2.89-2.88-8.74-2.27-8.8-2.26A.26.26,0,0,1,171,178a.26.26,0,0,1,.22-.28c.25,0,6.16-.64,9.21,2.41a.25.25,0,0,1-.18.42Z" transform="translate(54.11 29.1)"/><path class="cls-3" d="M199.71,186.9a.29.29,0,0,1-.18-.07c-2.88-2.88-8.73-2.27-8.79-2.27a.24.24,0,0,1-.28-.22.24.24,0,0,1,.22-.27c.25,0,6.16-.65,9.21,2.4a.27.27,0,0,1,0,.36A.31.31,0,0,1,199.71,186.9Z" transform="translate(54.11 29.1)"/><polygon class="cls-3" points="228.77 262.03 218.4 258.6 225.93 267.51 228.77 262.03"/><path class="cls-3" d="M171.83,238.66a.22.22,0,0,1-.19-.09l-7.53-8.91a.24.24,0,0,1,0-.3.25.25,0,0,1,.29-.1l10.37,3.43a.25.25,0,0,1,.14.35l-2.84,5.48a.25.25,0,0,1-.19.14ZM165.06,230l6.72,8,2.53-4.89Z" transform="translate(54.11 29.1)"/><path class="cls-6" d="M236.89,294.11l2.81-8.44s-4.29-8-2.81-13.48,11-29.19,12.59-29.34,4.45-.74,3.56,4.74A152.93,152.93,0,0,1,249,263s10.22-1.78,14.81-7,9.48-17.34,11.11-18.52,3.71-.59,3.71,1-5.78,16.74-9.48,21.92l1.77,1S283.26,252.85,285,250s3.85-6.41,5-6.85,4,.29,2.82,4.15-4.59,8.14-5.93,9.77-5.48,5.63-5.48,5.63,7.71-4.59,8.89-5.63,3.11-1.48,3.56.6-1.78,4.89-3.26,5.92l-15.26,10.67a33.32,33.32,0,0,0,5.92-1c1.34-.59,7.56-4.59,8.89-4.29s1.78,1.92,1,3.4-10.82,8.3-13.63,9.93-16,5.78-16,5.78L253,295.15l-.89,6.07S240.15,303.15,236.89,294.11Z" transform="translate(54.11 29.1)"/><rect class="cls-3" x="272.4" y="265.12" width="9.86" height="0.5" transform="translate(-45.42 221.58) rotate(-32.79)"/><path class="cls-3" d="M141,172.93c3-.32,7-.6,9.18,3.7s2.52,12.25,0,16.86a11,11,0,0,1-9.78,6c-3-.06-8.88-3.45-8.74-11.16S132.74,173.81,141,172.93Z" transform="translate(54.11 29.1)"/><path class="cls-3" d="M148.8,174.66l1-3.07s2.66-.59,3.26-2.66a6,6,0,0,0,0-3.56s8.89-14.07,17.63-17c0,0-.46-2.44-5.93-1.44,0,0-10.11,4.41-15.94,16.85a5,5,0,0,0-5.69,2.22c-2.07,3.41,1.78,4.6,1.78,4.6l-1.33,2.21S145.59,175.65,148.8,174.66Z" transform="translate(54.11 29.1)"/><path class="cls-9" d="M145.83,173.09l-.46-.22c2.79-5.8,6.55-14.91,5.48-16.23a2.56,2.56,0,0,0-2.24-1.08,2,2,0,0,0-1.57,1c-1.4,2.8-6.67,13.78-6.94,16.42l-.5,0c.32-3.13,6.92-16.46,7-16.59a2.55,2.55,0,0,1,2-1.31,3,3,0,0,1,2.67,1.26C152.85,158.32,146.55,171.58,145.83,173.09Z" transform="translate(54.11 29.1)"/><path class="cls-9" d="M147.36,192.08l-.5-.08c1.45-8.84-3.4-16.34-3.45-16.42l.42-.27C143.88,175.38,148.84,183.05,147.36,192.08Z" transform="translate(54.11 29.1)"/><path class="cls-3" d="M160.9,208.67c-9.44-2.6-17.27-11.19-17.6-11.56l.74-.67c.08.09,8,8.74,17.13,11.26Z" transform="translate(54.11 29.1)"/><ellipse class="cls-3" cx="219.14" cy="239.88" rx="5.63" ry="4.89"/><path class="cls-3" d="M165,215.92c-3.25,0-5.88-2.31-5.88-5.14s2.63-5.14,5.88-5.14,5.88,2.3,5.88,5.14S168.28,215.92,165,215.92Zm0-9.78c-3,0-5.38,2.08-5.38,4.64s2.41,4.64,5.38,4.64,5.38-2.08,5.38-4.64S168,206.14,165,206.14Z" transform="translate(54.11 29.1)"/><path class="cls-6" d="M125,248.48l1-5.92s-7.55-22.67-7.26-24.15,10.52-12,12.3-12.89,11.41-11.71,12.45-12,2.51,2.22,1.33,4.59-6.22,9.19-6.22,9.19,6.66-.6,8.14-.45,7.41,3,7.41,3-1.48,3.41-2.52,3.41c0,0,0,3.41-1.18,3.71a10.27,10.27,0,0,1-3.11,0s.74,5.92.29,6.66-5.92,3-5.92,3-1.48,4.29-.89,5.63,2.07,11.11,1.78,13.18-1,5.78-1,5.78S127.85,251.44,125,248.48Z" transform="translate(54.11 29.1)"/><path class="cls-3" d="M126.38,213.42l-.31-.4,6.57-5.07h.06l5.82-.88,3.77-5.29c.05-.06,3.23-3.76,2.73-6.13-.25-1.2-.64-1.64-.92-1.81a.64.64,0,0,0-.46-.08l-.17-.47a1.09,1.09,0,0,1,.86.11,3,3,0,0,1,1.18,2.15c.55,2.61-2.69,6.38-2.82,6.54l-3.88,5.45-6,.89Z" transform="translate(54.11 29.1)"/><path class="cls-3" d="M137.84,218.65l-.13-.48,6.86-1.84,2.94.37c.57.27,2.19.79,2.82.06.83-1,1.12-3.54,1.13-3.57l.49.06c0,.11-.31,2.76-1.24,3.84s-3.05.22-3.37.08l-2.73-.33Z" transform="translate(54.11 29.1)"/><path class="cls-3" d="M141.45,226.91l.83-4.12,3.23-.71.1.49-2.9.64-.6,3c2.08-.65,5.08-1.85,5.36-2.68.35-1-.11-5.08-.31-6.55l.49-.07c0,.22.75,5.41.29,6.78s-5.52,3-6.09,3.13Z" transform="translate(54.11 29.1)"/><path class="cls-3" d="M131.28,216.77l-.33-.37,4.8-4.24,10.65-.82,5.31,1.62c1.54-.37,2.09-2.36,2.23-3l-7.17-2.87-8.09.45,0-.5,8.21-.45,7.64,3.06,0,.19c0,.13-.5,3.14-2.71,3.62h-.07l-.06,0-5.29-1.61-10.39.8Z" transform="translate(54.11 29.1)"/><circle class="cls-8" cx="55.11" cy="178.67" r="29.46" transform="translate(-76.37 230.5) rotate(-79.84)"/><path class="cls-4" d="M74.23,176.72a2.39,2.39,0,0,0-2.53-2.22v-.1a2.23,2.23,0,1,0,0-4.43H63.26l.3-1.48c.29-1.48.44-6.37-1.19-7s-2.37.3-3,4.15-8.3,7-8.3,7V188H71.7a2.23,2.23,0,1,0,0-4.43v-.17a2.23,2.23,0,1,0,0-4.43v-.05A2.39,2.39,0,0,0,74.23,176.72Z" transform="translate(54.11 29.1)"/><rect class="cls-3" x="95.88" y="200.18" width="9.33" height="18.45"/><circle class="cls-10" cx="130.01" cy="125.1" r="29.46"/><polygon class="cls-4" points="112.98 117.78 115.11 122.08 119.86 122.77 116.42 126.12 117.23 130.85 112.98 128.62 108.73 130.85 109.54 126.12 106.11 122.77 110.86 122.08 112.98 117.78"/><polygon class="cls-4" points="130.05 117.78 132.18 122.08 136.93 122.77 133.49 126.12 134.3 130.85 130.05 128.62 125.8 130.85 126.62 126.12 123.18 122.77 127.93 122.08 130.05 117.78"/><polygon class="cls-4" points="147.13 117.78 149.25 122.08 154 122.77 150.56 126.12 151.38 130.85 147.13 128.62 142.88 130.85 143.69 126.12 140.25 122.77 145 122.08 147.13 117.78"/><circle class="cls-8" cx="152.42" cy="54.97" r="23.31" transform="translate(59.88 152.98) rotate(-45)"/><path class="cls-4" d="M141.17,64.19l4.93-4.92s2.8,3.33,5.46,2.46,10.67-8,5.11-12L160.9,44s4.73,4.89,1.81,10.11-10.29,10.11-10.29,10.11S146.56,68.19,141.17,64.19Z" transform="translate(54.11 29.1)"/><path class="cls-9" d="M146.45,66.46a9.24,9.24,0,0,1-5.58-1.86.53.53,0,0,1-.2-.37.48.48,0,0,1,.15-.39l4.93-4.93a.49.49,0,0,1,.37-.14.47.47,0,0,1,.36.18s2.61,3.06,4.93,2.31c1.66-.55,6.11-4.12,6.63-7.49a3.51,3.51,0,0,0-1.66-3.61.5.5,0,0,1-.2-.33.52.52,0,0,1,.09-.38l4.22-5.77a.51.51,0,0,1,.37-.21.59.59,0,0,1,.4.15c.05.06,5,5.22,1.88,10.71C160.2,59.59,153,64.41,152.69,64.61A12.22,12.22,0,0,1,146.45,66.46ZM142,64.13c4.91,3.18,10.13-.31,10.18-.35s7.31-4.89,10.14-9.94c2.25-4-.3-7.79-1.34-9.07l-3.57,4.88A4.44,4.44,0,0,1,159,53.92c-.6,3.87-5.37,7.65-7.31,8.29C149.34,63,147,60.9,146.08,60Z" transform="translate(54.11 29.1)"/><path class="cls-10" d="M225.67,77.18A34.61,34.61,0,0,0,208.74,142l-5.46,7.22,11.48-4.56a34.61,34.61,0,1,0,10.91-67.46Z" transform="translate(54.11 29.1)"/><path class="cls-4" d="M208.12,111.8a4.85,4.85,0,1,1-4.84-4.85A4.84,4.84,0,0,1,208.12,111.8Z" transform="translate(54.11 29.1)"/><path class="cls-4" d="M230.52,111.8a4.85,4.85,0,1,1-4.85-4.85A4.85,4.85,0,0,1,230.52,111.8Z" transform="translate(54.11 29.1)"/><path class="cls-4" d="M252.92,111.8a4.85,4.85,0,1,1-4.85-4.85A4.85,4.85,0,0,1,252.92,111.8Z" transform="translate(54.11 29.1)"/><circle class="cls-10" cx="348.3" cy="93.98" r="29.98"/><path class="cls-9" d="M293.84,73.37a2,2,0,0,1-2-2V66a6.2,6.2,0,0,1,3.11-5.4c2.38-1.35,4.05-3.9,4-6.06a3.65,3.65,0,0,0-2.39-3.22c-4.17-2-7,2.6-7.35,3.13a2,2,0,0,1-3.46-2c1.69-2.91,6.48-7.65,12.54-4.73a7.58,7.58,0,0,1,4.66,6.7c.13,3.67-2.28,7.55-6,9.66A2.23,2.23,0,0,0,295.84,66v5.41A2,2,0,0,1,293.84,73.37Z" transform="translate(54.11 29.1)"/><path class="cls-9" d="M296,78.74a2.26,2.26,0,1,1-2.26-2.26A2.26,2.26,0,0,1,296,78.74Z" transform="translate(54.11 29.1)"/><circle class="cls-10" cx="386.03" cy="69.05" r="24.44" transform="translate(285.13 458.37) rotate(-76.86)"/><circle class="cls-4" cx="386.03" cy="69.05" r="12.44" transform="translate(284.7 458.19) rotate(-76.79)"/><path class="cls-13" d="M381.81,67.71a1.34,1.34,0,1,1-1.33-1.33A1.34,1.34,0,0,1,381.81,67.71Z" transform="translate(54.11 29.1)"/><path class="cls-13" d="M393,67.71a1.34,1.34,0,1,1-1.33-1.33A1.34,1.34,0,0,1,393,67.71Z" transform="translate(54.11 29.1)"/><path class="cls-13" d="M386.14,76.64a4.6,4.6,0,0,1-4.59-4.59.5.5,0,0,1,1,0,3.59,3.59,0,0,0,7.18,0,.5.5,0,0,1,.5-.5.5.5,0,0,1,.5.5A4.59,4.59,0,0,1,386.14,76.64Z" transform="translate(54.11 29.1)"/><circle class="cls-8" cx="384.44" cy="175.1" r="30.33"/><path class="cls-9" d="M320.3,153l-10.16,0-.27-3a17.87,17.87,0,0,0,2.58-1.71,14.77,14.77,0,0,0,2.35-2.21,3.35,3.35,0,0,0,.95-2,1.09,1.09,0,0,0-.3-.78,1.1,1.1,0,0,0-.84-.31,1.35,1.35,0,0,0-1,.45,1.6,1.6,0,0,0-.43,1.12l-3.31-.56a5.12,5.12,0,0,1,.73-2.42,4.64,4.64,0,0,1,1.78-1.71,5.07,5.07,0,0,1,2.52-.63,4.61,4.61,0,0,1,2.4.62,4.23,4.23,0,0,1,1.6,1.7,5.39,5.39,0,0,1,.56,2.48,5.28,5.28,0,0,1-1,3,12,12,0,0,1-2.72,2.78l4.17-.14Z" transform="translate(54.11 29.1)"/><path class="cls-9" d="M331,146.33v3.75l-1.78-.11-.05,2.92-3.75.11.07-3.25-4.69-.26-.1-10,3.76-.22.09,6.8,1,0,.07-3.05,3.71-1-.07,4.16Z" transform="translate(54.11 29.1)"/><path class="cls-9" d="M334.35,152.86h-3.57l5.64-13.43H340Z" transform="translate(54.11 29.1)"/><path class="cls-9" d="M350.89,142.68a25.86,25.86,0,0,0-3.2,5,19.79,19.79,0,0,0-.9,2.07c-.32.82-.7,1.9-1.15,3.25h-4.36a49,49,0,0,1,1.93-5.25,34.9,34.9,0,0,1,2.59-4.95l-4.71.16v-3.57h9.68Z" transform="translate(54.11 29.1)"/><circle class="cls-10" cx="444.99" cy="253.56" r="30.39"/><path class="cls-9" d="M407.19,239.87l-10.08-10.08a13.27,13.27,0,1,0-1.92,1.59l10.25,10.25Zm-30.14-19.38a10.71,10.71,0,1,1,10.71,10.7A10.72,10.72,0,0,1,377.05,220.49Z" transform="translate(54.11 29.1)"/></g></svg>