<svg xmlns="http://www.w3.org/2000/svg" xmlns:xlink="http://www.w3.org/1999/xlink" viewBox="0 0 3144.63 1669.28"><defs><style>.cls-1{fill:none;}.cls-2{isolation:isolate;}.cls-3{fill:#894eed;opacity:0.7;}.cls-4{fill:#f0fbff;opacity:0.8;}.cls-5{fill:#f7cc7f;}.cls-6{fill:#7bd1c0;}.cls-7{fill:#e8d1c3;mix-blend-mode:multiply;}.cls-8{fill:#184655;}.cls-9{fill:#50bfa5;}.cls-10,.cls-43{fill:#fff;}.cls-11{fill:#9ee5ff;}.cls-12{clip-path:url(#clip-path);}.cls-13{fill:#3cb4c5;opacity:0.2;}.cls-14{opacity:0.5;}.cls-15{fill:#96d9c9;}.cls-16{fill:#9896d9;}.cls-17,.cls-21{fill:#eafcfc;}.cls-18{fill:#d7d996;}.cls-19{fill:#cf96d9;}.cls-20{fill:#d99696;}.cls-21{opacity:0.4;}.cls-22{fill:#d9bf96;}.cls-23{fill:#7ec9b7;}.cls-24{fill:#bda6a6;}.cls-25{fill:#a34b3d;}.cls-26{fill:#f7a491;}.cls-27{fill:#f48c7f;}.cls-28{fill:#f79c8d;}.cls-29{fill:#86b1f2;}.cls-30{fill:#13375b;}.cls-31{fill:#eab054;}.cls-32{fill:#f47458;}.cls-33{fill:#b75742;}.cls-34{fill:#3c8f7c;}.cls-35{fill:#215e4b;}.cls-36{fill:#355389;}.cls-37{fill:#fae0b2;}.cls-38{fill:#f8a492;}.cls-39{fill:#e25a44;}.cls-40{fill:#d95b3f;}.cls-41{fill:#0e2e35;}.cls-42{fill:#6c46c1;}.cls-43{font-size:244.42px;font-family:AdobeArabic-Regular, Adobe Arabic;}</style><clipPath id="clip-path" transform="translate(-164.34 -177.61)"><rect class="cls-1" x="1209.25" y="798.47" width="509.35" height="888.65" transform="translate(2706.72 -221.13) rotate(90)"/></clipPath></defs><g class="cls-2"><g id="Layer_1" data-name="Layer 1"><path class="cls-3" d="M326.35,1834.6c-204.93-201.45-187.52-418.92-64.94-653.21,91.44-174.77-63.07-375.61,187.22-630.49,183.29-186.65,613.28-288.25,987.16-153.65,187,67.3,811.73-526.26,1378.66,0,324.88,301.57,358.64,658.38,294.78,768.06-116.34,199.8,300.31,309.5,48.95,669.29Z" transform="translate(-164.34 -177.61)"/><path class="cls-4" d="M1061.3,476.67c-4.15-13.31-20.33-23.24-39.68-23.24a54.65,54.65,0,0,0-10.28,1c-9.55-15-30.27-25.44-54.29-25.44a80,80,0,0,0-17.84,2c-12.93-15.76-36.43-26.3-63.28-26.3-31.94,0-59.15,14.92-69.45,35.8a65.21,65.21,0,0,0-24.65-4.7c-28,0-50.69,16.7-50.69,37.3a29,29,0,0,0,.24,3.62Z" transform="translate(-164.34 -177.61)"/><path class="cls-4" d="M471.07,1234.25c-4.37-14-21.4-24.45-41.76-24.45a57.73,57.73,0,0,0-10.82,1c-10.05-15.81-31.85-26.77-57.14-26.77a84,84,0,0,0-18.77,2.09c-13.62-16.59-38.35-27.68-66.6-27.68-1.36,0-2.7,0-4,.09-3.08,7.66-6.57,15.27-10.53,22.84q-13.91,26.58-26,52.86Z" transform="translate(-164.34 -177.61)"/><path class="cls-5" d="M3296.1,1846.89H177.21A12.87,12.87,0,0,1,164.34,1834h0a12.87,12.87,0,0,1,12.87-12.87H3296.1A12.87,12.87,0,0,1,3309,1834h0A12.87,12.87,0,0,1,3296.1,1846.89Z" transform="translate(-164.34 -177.61)"/><rect class="cls-6" x="268.15" y="504.24" width="1582.67" height="1101.91"/><path class="cls-7" d="M2015.15,704.45H432.48v143a23.41,23.41,0,0,0,16.15-22.2v9.93a47,47,0,0,0,47,47h2.94a47,47,0,0,0,47-47v-9.93A23.48,23.48,0,0,0,569,848.76h1.47A23.49,23.49,0,0,0,594,825.28v9.93a47,47,0,0,0,47,47h2.95a47,47,0,0,0,47-47v-9.93a23.48,23.48,0,0,0,23.48,23.48h1.48a23.49,23.49,0,0,0,23.49-23.48v9.93a47,47,0,0,0,47,47h3a47,47,0,0,0,47-47v-9.93a23.49,23.49,0,0,0,23.49,23.48h1.47a23.48,23.48,0,0,0,23.49-23.48v9.93a47,47,0,0,0,47,47h2.94a47,47,0,0,0,47-47v-9.93a23.49,23.49,0,0,0,23.49,23.48h1.47A23.49,23.49,0,0,0,1030,825.28v9.93a47,47,0,0,0,47,47h2.94a47,47,0,0,0,47-47v-9.93a23.48,23.48,0,0,0,23.49,23.48h1.47a23.49,23.49,0,0,0,23.49-23.48v9.93a47,47,0,0,0,47,47h3a47,47,0,0,0,47-47v-3.83c6.22,9.27,15.64,17.38,23.48,17.38h1.48a23.48,23.48,0,0,0,23.48-23.48v9.93a47,47,0,0,0,47,47h3a47,47,0,0,0,47-47v-9.93a23.49,23.49,0,0,0,23.49,23.48h1.47a23.48,23.48,0,0,0,23.49-23.48v9.93a47,47,0,0,0,47,47h3a47,47,0,0,0,47-47v-9.93a23.49,23.49,0,0,0,23.49,23.48h1.47a23.49,23.49,0,0,0,23.49-23.48v9.93a47,47,0,0,0,47,47h2.94a47,47,0,0,0,47-47v-9.93a23.48,23.48,0,0,0,23.49,23.48h1.47a23.49,23.49,0,0,0,23.49-23.48v9.93a47,47,0,0,0,47,47h3a47,47,0,0,0,47-47v-9.93a23.48,23.48,0,0,0,23.48,23.48h1.48a23.49,23.49,0,0,0,23.49-23.48v9.93a47,47,0,0,0,47,47h3a47,47,0,0,0,47-47v-9.93a23.42,23.42,0,0,0,16.15,22.2Z" transform="translate(-164.34 -177.61)"/><rect class="cls-8" x="357.49" y="810.55" width="399.92" height="816.86"/><rect class="cls-9" x="338.88" y="1222.15" width="765.81" height="348.87" transform="translate(1954.04 497.19) rotate(90)"/><rect class="cls-10" x="465.33" y="977.89" width="184.25" height="56.16" rx="5.77"/><path class="cls-9" d="M645.66,1183.56c0-26.8,39.75-26.8,39.75,0S645.66,1210.4,645.66,1183.56Zm29.62,0c0-14-19.43-14-19.43,0S675.28,1197.62,675.28,1183.56Z" transform="translate(-164.34 -177.61)"/><path class="cls-9" d="M692.91,1202.88v-38.76H710c18.55.06,18.55,28.85,0,28.85h-7.14v9.91Zm17-29.9c-2.32,0-4.81,0-7.08,0v11.07h7.08C715.33,1184.05,715.66,1173,709.9,1173Z" transform="translate(-164.34 -177.61)"/><path class="cls-9" d="M755.54,1173H741.2v5.48h13.18v8.81H741.2v6.8H756v8.81H731.35v-38.76h24.19Z" transform="translate(-164.34 -177.61)"/><path class="cls-9" d="M774.83,1183.83v19.05H764.59V1164h3.59l19.6,19.16v-19h10.13v38.81h-3.54Z" transform="translate(-164.34 -177.61)"/><rect class="cls-8" x="695.76" y="1118.28" width="12.42" height="218.94"/><rect class="cls-10" x="840.61" y="799.7" width="939.7" height="549.99"/><rect class="cls-11" x="1209.25" y="802.78" width="509.35" height="888.65" transform="translate(2546.69 -394.43) rotate(90)"/><path class="cls-10" d="M1253.28,491.74h48.45a0,0,0,0,1,0,0V612.57a23.49,23.49,0,0,1-23.49,23.49h-1.47a23.49,23.49,0,0,1-23.49-23.49V491.74a0,0,0,0,1,0,0Z"/><path class="cls-10" d="M1107.93,491.74h48.45a0,0,0,0,1,0,0V612.57a23.49,23.49,0,0,1-23.49,23.49h-1.47a23.49,23.49,0,0,1-23.49-23.49V491.74a0,0,0,0,1,0,0Z"/><path class="cls-10" d="M962.58,491.74H1011a0,0,0,0,1,0,0V612.57a23.49,23.49,0,0,1-23.49,23.49h-1.47a23.49,23.49,0,0,1-23.49-23.49V491.74a0,0,0,0,1,0,0Z"/><path class="cls-10" d="M817.23,491.74h48.45a0,0,0,0,1,0,0V612.57a23.49,23.49,0,0,1-23.49,23.49h-1.47a23.49,23.49,0,0,1-23.49-23.49V491.74A0,0,0,0,1,817.23,491.74Z"/><path class="cls-10" d="M671.89,491.74h48.45a0,0,0,0,1,0,0V612.57a23.49,23.49,0,0,1-23.49,23.49h-1.47a23.49,23.49,0,0,1-23.49-23.49V491.74a0,0,0,0,1,0,0Z"/><path class="cls-10" d="M1834.67,491.74h48.45a0,0,0,0,1,0,0V612.57a23.49,23.49,0,0,1-23.49,23.49h-1.47a23.49,23.49,0,0,1-23.49-23.49V491.74a0,0,0,0,1,0,0Z"/><path class="cls-10" d="M1689.32,491.74h48.45a0,0,0,0,1,0,0V612.57a23.49,23.49,0,0,1-23.49,23.49h-1.47a23.49,23.49,0,0,1-23.49-23.49V491.74a0,0,0,0,1,0,0Z"/><path class="cls-10" d="M1544,491.74h48.45a0,0,0,0,1,0,0V612.57a23.49,23.49,0,0,1-23.49,23.49h-1.47A23.49,23.49,0,0,1,1544,612.57V491.74a0,0,0,0,1,0,0Z"/><path class="cls-10" d="M1398.62,491.74h48.45a0,0,0,0,1,0,0V612.57a23.49,23.49,0,0,1-23.49,23.49h-1.47a23.49,23.49,0,0,1-23.49-23.49V491.74A0,0,0,0,1,1398.62,491.74Z"/><path class="cls-10" d="M526.54,491.74H575a0,0,0,0,1,0,0V612.57a23.49,23.49,0,0,1-23.49,23.49H550a23.49,23.49,0,0,1-23.49-23.49V491.74A0,0,0,0,1,526.54,491.74Z"/><path class="cls-10" d="M381.19,491.74h48.45a0,0,0,0,1,0,0V612.57a23.49,23.49,0,0,1-23.49,23.49h-1.47a23.49,23.49,0,0,1-23.49-23.49V491.74a0,0,0,0,1,0,0Z"/><path class="cls-10" d="M235.84,491.74h48.45a0,0,0,0,1,0,0V612.57a23.49,23.49,0,0,1-23.49,23.49h-1.47a23.49,23.49,0,0,1-23.49-23.49V491.74a0,0,0,0,1,0,0Z"/><path class="cls-8" d="M1156.38,491.74h96.9a0,0,0,0,1,0,0V622.5a47,47,0,0,1-47,47h-2.95a47,47,0,0,1-47-47V491.74a0,0,0,0,1,0,0Z"/><path class="cls-8" d="M1011,491.74h96.9a0,0,0,0,1,0,0V622.5a47,47,0,0,1-47,47H1058a47,47,0,0,1-47-47V491.74a0,0,0,0,1,0,0Z"/><path class="cls-8" d="M865.68,491.74h96.9a0,0,0,0,1,0,0V622.5a47,47,0,0,1-47,47h-2.95a47,47,0,0,1-47-47V491.74A0,0,0,0,1,865.68,491.74Z"/><path class="cls-8" d="M720.34,491.74h96.9a0,0,0,0,1,0,0V622.5a47,47,0,0,1-47,47h-2.95a47,47,0,0,1-47-47V491.74a0,0,0,0,1,0,0Z"/><path class="cls-8" d="M575,491.74h96.9a0,0,0,0,1,0,0V622.5a47,47,0,0,1-47,47H622a47,47,0,0,1-47-47V491.74A0,0,0,0,1,575,491.74Z"/><path class="cls-8" d="M1737.77,491.74h96.9a0,0,0,0,1,0,0V622.5a47,47,0,0,1-47,47h-2.95a47,47,0,0,1-47-47V491.74a0,0,0,0,1,0,0Z"/><path class="cls-8" d="M1592.42,491.74h96.9a0,0,0,0,1,0,0V622.5a47,47,0,0,1-47,47h-2.95a47,47,0,0,1-47-47V491.74a0,0,0,0,1,0,0Z"/><path class="cls-8" d="M1447.07,491.74H1544a0,0,0,0,1,0,0V622.5a47,47,0,0,1-47,47h-2.95a47,47,0,0,1-47-47V491.74a0,0,0,0,1,0,0Z"/><path class="cls-8" d="M1301.73,491.74h96.9a0,0,0,0,1,0,0V622.5a47,47,0,0,1-47,47h-2.95a47,47,0,0,1-47-47V491.74A0,0,0,0,1,1301.73,491.74Z"/><path class="cls-8" d="M429.64,491.74h96.9a0,0,0,0,1,0,0V622.5a47,47,0,0,1-47,47h-2.95a47,47,0,0,1-47-47V491.74a0,0,0,0,1,0,0Z"/><path class="cls-8" d="M284.29,491.74h96.9a0,0,0,0,1,0,0V622.5a47,47,0,0,1-47,47h-2.95a47,47,0,0,1-47-47V491.74a0,0,0,0,1,0,0Z"/><polygon class="cls-8" points="1893.34 1649.03 224.77 1649.03 224.77 1606.15 1894.19 1606.15 1893.34 1649.03"/><g class="cls-12"><rect class="cls-13" x="1280.55" y="1151.94" width="477.69" height="152.82"/><rect class="cls-13" x="1280.55" y="818.68" width="477.69" height="152.82"/><rect class="cls-13" x="1280.55" y="985.01" width="477.69" height="152.82"/><g class="cls-14"><rect class="cls-15" x="1519.39" y="1076.86" width="112.97" height="57.4"/><path class="cls-9" d="M1776.74,1254.47l-66.59,57.41h86.55v-57.41Z" transform="translate(-164.34 -177.61)"/><rect class="cls-10" x="1526.38" y="1084.22" width="56.67" height="3.31"/><rect class="cls-10" x="1526.38" y="1093.98" width="41.12" height="3.31"/></g><g class="cls-14"><rect class="cls-15" x="1519.39" y="1020.35" width="112.97" height="57.4"/><path class="cls-9" d="M1776.74,1198c-16.35,14.09-45.31,39-66.59,57.41h86.55V1198Z" transform="translate(-164.34 -177.61)"/><rect class="cls-10" x="1526.38" y="1027.71" width="56.67" height="3.31"/><rect class="cls-10" x="1526.38" y="1037.46" width="41.12" height="3.31"/></g><g class="cls-14"><rect class="cls-16" x="1653.77" y="1044.86" width="33.21" height="89.41"/><rect class="cls-17" x="1656.76" y="1054.35" width="27.22" height="2.37"/><rect class="cls-17" x="1656.76" y="1063.05" width="27.22" height="2.37"/><polygon class="cls-9" points="1653.77 1132.27 1653.77 1134.27 1686.98 1134.27 1686.98 1106.63 1653.77 1132.27"/><path class="cls-9" d="M1851.32,1266.79v-15.3l-33.21,31.26v13.31C1825.17,1289.9,1839.49,1277.25,1851.32,1266.79Z" transform="translate(-164.34 -177.61)"/></g><g class="cls-14"><rect class="cls-16" x="1700.05" y="1044.86" width="33.21" height="89.41"/><rect class="cls-17" x="1703.05" y="1054.35" width="27.22" height="2.37"/><rect class="cls-17" x="1703.05" y="1063.05" width="27.22" height="2.37"/><polygon class="cls-9" points="1700.05 1132.27 1700.05 1134.27 1733.27 1134.27 1733.27 1106.63 1700.05 1132.27"/><path class="cls-9" d="M1897.6,1266.79v-15.3l-33.21,31.26v13.31C1871.45,1289.9,1885.77,1277.25,1897.6,1266.79Z" transform="translate(-164.34 -177.61)"/></g><g class="cls-14"><rect class="cls-15" x="1653.77" y="877.99" width="33.21" height="89.41"/><rect class="cls-17" x="1656.76" y="887.48" width="27.22" height="2.37"/><rect class="cls-17" x="1656.76" y="896.19" width="27.22" height="2.37"/><polygon class="cls-9" points="1653.77 965.4 1653.77 967.4 1686.98 967.4 1686.98 939.76 1653.77 965.4"/><path class="cls-9" d="M1851.32,1099.92v-15.3l-33.21,31.27v13.3C1825.17,1123,1839.49,1110.39,1851.32,1099.92Z" transform="translate(-164.34 -177.61)"/></g><g class="cls-14"><rect class="cls-15" x="1325.65" y="877.99" width="33.21" height="89.41"/><rect class="cls-17" x="1328.64" y="887.48" width="27.23" height="2.37"/><rect class="cls-17" x="1328.64" y="896.19" width="27.23" height="2.37"/><polygon class="cls-9" points="1325.65 965.4 1325.65 967.4 1358.86 967.4 1358.86 939.76 1325.65 965.4"/><path class="cls-9" d="M1523.2,1099.92v-15.3L1490,1115.89v13.3C1497.05,1123,1511.37,1110.39,1523.2,1099.92Z" transform="translate(-164.34 -177.61)"/></g><g class="cls-14"><rect class="cls-15" x="1700.05" y="877.99" width="33.21" height="89.41"/><rect class="cls-17" x="1703.05" y="887.48" width="27.22" height="2.37"/><rect class="cls-17" x="1703.05" y="896.19" width="27.22" height="2.37"/><polygon class="cls-9" points="1700.05 965.4 1700.05 967.4 1733.27 967.4 1733.27 939.76 1700.05 965.4"/><path class="cls-9" d="M1897.6,1099.92v-15.3l-33.21,31.27v13.3C1871.45,1123,1885.77,1110.39,1897.6,1099.92Z" transform="translate(-164.34 -177.61)"/></g><g class="cls-14"><rect class="cls-18" x="1429.58" y="1044.86" width="33.21" height="89.41"/><rect class="cls-17" x="1432.58" y="1054.35" width="27.23" height="2.37"/><rect class="cls-17" x="1432.58" y="1063.05" width="27.23" height="2.37"/><polygon class="cls-9" points="1429.58 1132.27 1429.58 1134.27 1462.79 1134.27 1462.79 1106.63 1429.58 1132.27"/><path class="cls-9" d="M1627.13,1266.79v-15.3l-33.21,31.26v13.31C1601,1289.9,1615.3,1277.25,1627.13,1266.79Z" transform="translate(-164.34 -177.61)"/></g><g class="cls-14"><rect class="cls-19" x="1475.86" y="1044.86" width="33.21" height="89.41"/><rect class="cls-17" x="1478.86" y="1054.35" width="27.23" height="2.37"/><rect class="cls-17" x="1478.86" y="1063.05" width="27.23" height="2.37"/><polygon class="cls-9" points="1475.87 1132.27 1475.87 1134.27 1509.08 1134.27 1509.08 1106.63 1475.87 1132.27"/><path class="cls-9" d="M1673.41,1266.79v-15.3l-33.21,31.26v13.31C1647.26,1289.9,1661.58,1277.25,1673.41,1266.79Z" transform="translate(-164.34 -177.61)"/></g><g class="cls-14"><rect class="cls-19" x="1327.44" y="1044.86" width="33.21" height="89.41"/><rect class="cls-17" x="1330.44" y="1054.35" width="27.22" height="2.37"/><rect class="cls-17" x="1330.44" y="1063.05" width="27.22" height="2.37"/><polygon class="cls-9" points="1327.44 1132.27 1327.44 1134.27 1360.66 1134.27 1360.66 1106.63 1327.44 1132.27"/><path class="cls-9" d="M1525,1266.79v-15.3l-33.21,31.26v13.31C1498.84,1289.9,1513.16,1277.25,1525,1266.79Z" transform="translate(-164.34 -177.61)"/></g><g class="cls-14"><rect class="cls-15" x="1373.73" y="1044.86" width="33.21" height="89.41"/><rect class="cls-17" x="1376.72" y="1054.35" width="27.23" height="2.37"/><rect class="cls-17" x="1376.72" y="1063.05" width="27.23" height="2.37"/><polygon class="cls-9" points="1373.73 1132.27 1373.73 1134.27 1406.94 1134.27 1406.94 1106.63 1373.73 1132.27"/><path class="cls-9" d="M1571.28,1266.79v-15.3l-33.22,31.26v13.31C1545.12,1289.9,1559.44,1277.25,1571.28,1266.79Z" transform="translate(-164.34 -177.61)"/></g><g class="cls-14"><rect class="cls-20" x="1389.68" y="874.4" width="92.39" height="93"/><rect class="cls-10" x="1413.25" y="889.07" width="44.58" height="15.76"/></g><g class="cls-14"><rect class="cls-18" x="1532.06" y="874.4" width="92.71" height="93"/><rect class="cls-10" x="1544.13" y="889.07" width="67.58" height="15.76"/><rect class="cls-10" x="1544.13" y="931.24" width="67.58" height="4.29"/></g><g class="cls-14"><rect class="cls-15" x="1290.81" y="1237" width="98.87" height="63.65"/><rect class="cls-10" x="1304.35" y="1247.04" width="75.81" height="10.79"/><rect class="cls-10" x="1304.35" y="1275.9" width="75.81" height="2.93"/><rect class="cls-10" x="1304.35" y="1282.93" width="57.39" height="2.93"/><rect class="cls-10" x="1304.35" y="1289.96" width="71.68" height="2.93"/></g><g class="cls-14"><rect class="cls-15" x="1290.81" y="1174.23" width="98.87" height="63.65"/><rect class="cls-10" x="1304.35" y="1184.28" width="75.81" height="10.79"/><rect class="cls-10" x="1304.35" y="1213.14" width="75.81" height="2.93"/><rect class="cls-10" x="1304.35" y="1220.17" width="57.39" height="2.93"/><rect class="cls-10" x="1304.35" y="1227.2" width="71.68" height="2.93"/></g><path class="cls-17" d="M1926.56,1152.67H1440.9V992.73h485.66ZM1448,1145.55h471.42V999.85H1448Z" transform="translate(-164.34 -177.61)"/><path class="cls-21" d="M1444.46,1149.11l168.4-152.82h113.93c-1.58,0-169.31,152.82-169.31,152.82Z" transform="translate(-164.34 -177.61)"/><path class="cls-21" d="M1640.65,1149.11l168.41-152.82h65.68c-1.58,0-161.4,152.82-161.4,152.82Z" transform="translate(-164.34 -177.61)"/><path class="cls-17" d="M1926.56,1319H1440.9V1159.06h485.66ZM1448,1311.88h471.42v-145.7H1448Z" transform="translate(-164.34 -177.61)"/><path class="cls-21" d="M1444.46,1315.44l168.4-152.82h113.93c-1.58,0-169.31,152.82-169.31,152.82Z" transform="translate(-164.34 -177.61)"/><path class="cls-21" d="M1640.65,1315.44l168.41-152.82h65.68c-1.58,0-161.4,152.82-161.4,152.82Z" transform="translate(-164.34 -177.61)"/><path class="cls-17" d="M1926.56,1484.78H1440.9V1324.84h485.66ZM1448,1477.66h471.42V1332H1448Z" transform="translate(-164.34 -177.61)"/><path class="cls-21" d="M1444.46,1481.22l168.4-152.82h113.93c-1.58,0-169.31,152.82-169.31,152.82Z" transform="translate(-164.34 -177.61)"/><path class="cls-21" d="M1640.65,1481.22l168.41-152.82h65.68c-1.58,0-161.4,152.82-161.4,152.82Z" transform="translate(-164.34 -177.61)"/><rect class="cls-13" x="802.15" y="1151.94" width="477.69" height="152.82"/><rect class="cls-13" x="802.15" y="818.68" width="477.69" height="152.82"/><rect class="cls-13" x="802.15" y="985.01" width="477.69" height="152.82"/><g class="cls-14"><rect class="cls-15" x="1041" y="1076.86" width="112.97" height="57.4"/><path class="cls-9" d="M1298.34,1254.47l-66.59,57.41h86.55v-57.41Z" transform="translate(-164.34 -177.61)"/><rect class="cls-10" x="1047.99" y="1084.22" width="56.67" height="3.31"/><rect class="cls-10" x="1047.99" y="1093.98" width="41.12" height="3.31"/></g><g class="cls-14"><rect class="cls-15" x="1041" y="1020.35" width="112.97" height="57.4"/><path class="cls-9" d="M1298.34,1198c-16.35,14.09-45.31,39-66.59,57.41h86.55V1198Z" transform="translate(-164.34 -177.61)"/><rect class="cls-10" x="1047.99" y="1027.71" width="56.67" height="3.31"/><rect class="cls-10" x="1047.99" y="1037.46" width="41.12" height="3.31"/></g><g class="cls-14"><rect class="cls-15" x="1175.37" y="1044.86" width="33.21" height="89.41"/><rect class="cls-17" x="1178.37" y="1054.35" width="27.23" height="2.37"/><rect class="cls-17" x="1178.37" y="1063.05" width="27.23" height="2.37"/><polygon class="cls-9" points="1175.37 1132.27 1175.37 1134.27 1208.59 1134.27 1208.59 1106.63 1175.37 1132.27"/><path class="cls-9" d="M1372.92,1266.79v-15.3l-33.21,31.26v13.31C1346.77,1289.9,1361.09,1277.25,1372.92,1266.79Z" transform="translate(-164.34 -177.61)"/></g><g class="cls-14"><rect class="cls-19" x="1221.66" y="1044.86" width="33.21" height="89.41"/><rect class="cls-17" x="1224.65" y="1054.35" width="27.22" height="2.37"/><rect class="cls-17" x="1224.65" y="1063.05" width="27.22" height="2.37"/><polygon class="cls-9" points="1221.66 1132.27 1221.66 1134.27 1254.87 1134.27 1254.87 1106.63 1221.66 1132.27"/><path class="cls-9" d="M1419.21,1266.79v-15.3L1386,1282.75v13.31C1393.05,1289.9,1407.37,1277.25,1419.21,1266.79Z" transform="translate(-164.34 -177.61)"/></g><g class="cls-14"><rect class="cls-22" x="826.98" y="874.4" width="89.29" height="93"/><rect class="cls-10" x="839.05" y="889.07" width="67.58" height="15.76"/><rect class="cls-10" x="839.05" y="931.24" width="67.58" height="4.29"/><rect class="cls-10" x="839.05" y="941.51" width="51.16" height="4.29"/><rect class="cls-10" x="839.05" y="951.79" width="63.89" height="4.29"/></g><g class="cls-14"><rect class="cls-23" x="938.1" y="874.4" width="91.91" height="93"/><rect class="cls-10" x="950.17" y="889.07" width="67.58" height="15.76"/></g><g class="cls-14"><rect class="cls-19" x="826.98" y="1024.56" width="89.29" height="109.71"/><rect class="cls-10" x="839.05" y="1041.87" width="67.58" height="18.59"/><rect class="cls-10" x="839.05" y="1091.62" width="67.58" height="5.06"/><rect class="cls-10" x="839.05" y="1103.73" width="51.16" height="5.06"/><rect class="cls-10" x="839.05" y="1115.85" width="63.89" height="5.06"/></g><g class="cls-14"><rect class="cls-18" x="938.1" y="1024.56" width="91.91" height="109.71"/><rect class="cls-10" x="950.17" y="1041.87" width="67.58" height="18.59"/><rect class="cls-10" x="950.17" y="1103.73" width="51.16" height="5.06"/><rect class="cls-10" x="950.17" y="1115.85" width="63.89" height="5.06"/></g><g class="cls-14"><rect class="cls-20" x="957.97" y="1190.95" width="89.29" height="109.71"/></g><ellipse class="cls-24" cx="1002.61" cy="1220.96" rx="27" ry="11"/><g class="cls-14"><rect class="cls-23" x="1065.51" y="1190.95" width="91.91" height="109.71"/><rect class="cls-10" x="1077.57" y="1208.25" width="67.58" height="18.59"/><rect class="cls-10" x="1077.57" y="1233.45" width="67.58" height="4.84"/><rect class="cls-10" x="1077.57" y="1282.23" width="63.89" height="5.06"/></g><g class="cls-14"><rect class="cls-18" x="1175.7" y="1190.95" width="91.91" height="109.71"/><rect class="cls-10" x="1187.77" y="1208.25" width="67.58" height="18.59"/><rect class="cls-10" x="1187.77" y="1258" width="67.58" height="5.06"/><rect class="cls-10" x="1187.77" y="1270.12" width="51.16" height="5.06"/><rect class="cls-10" x="1187.77" y="1282.23" width="63.89" height="5.06"/></g><g class="cls-14"><rect class="cls-18" x="1417.49" y="1190.95" width="89.29" height="109.71"/></g><g class="cls-14"><rect class="cls-23" x="1525.03" y="1190.95" width="91.91" height="109.71"/><rect class="cls-10" x="1537.1" y="1208.25" width="67.58" height="18.59"/></g><g class="cls-14"><rect class="cls-18" x="1635.23" y="1190.95" width="91.91" height="109.71"/><rect class="cls-10" x="1647.3" y="1208.25" width="67.58" height="18.59"/><rect class="cls-10" x="1647.3" y="1258" width="67.58" height="5.06"/><rect class="cls-10" x="1647.3" y="1270.12" width="51.16" height="5.06"/><rect class="cls-10" x="1647.3" y="1282.23" width="63.89" height="5.06"/></g><g class="cls-14"><rect class="cls-18" x="1051.53" y="874.4" width="91.91" height="93"/><rect class="cls-10" x="1063.59" y="893.07" width="67.58" height="7.76"/><rect class="cls-10" x="1063.59" y="951.79" width="63.89" height="4.29"/></g><g class="cls-14"><rect class="cls-23" x="1159.64" y="874.4" width="91.91" height="93"/><rect class="cls-10" x="1180.04" y="889.07" width="50.91" height="11.76"/></g><g class="cls-14"><rect class="cls-15" x="812.41" y="1237" width="127.8" height="63.65"/><rect class="cls-10" x="825.95" y="1247.04" width="75.81" height="10.79"/><rect class="cls-10" x="825.95" y="1275.9" width="75.81" height="2.93"/><rect class="cls-10" x="825.95" y="1282.93" width="57.39" height="2.93"/><rect class="cls-10" x="825.95" y="1289.96" width="71.68" height="2.93"/></g><g class="cls-14"><rect class="cls-15" x="812.41" y="1174.23" width="127.8" height="63.65"/><rect class="cls-10" x="825.95" y="1184.28" width="75.81" height="10.79"/><rect class="cls-10" x="825.95" y="1213.14" width="75.81" height="2.93"/><rect class="cls-10" x="825.95" y="1220.17" width="57.39" height="2.93"/><rect class="cls-10" x="825.95" y="1227.2" width="71.68" height="2.93"/></g><path class="cls-17" d="M1448.16,1152.67H962.5V992.73h485.66Zm-478.54-7.12H1441V999.85H969.62Z" transform="translate(-164.34 -177.61)"/><path class="cls-21" d="M966.06,1149.11l168.41-152.82h113.92c-1.58,0-169.31,152.82-169.31,152.82Z" transform="translate(-164.34 -177.61)"/><path class="cls-21" d="M1162.25,1149.11l168.41-152.82h65.68c-1.58,0-161.4,152.82-161.4,152.82Z" transform="translate(-164.34 -177.61)"/><path class="cls-17" d="M1448.16,1319H962.5V1159.06h485.66Zm-478.54-7.12H1441v-145.7H969.62Z" transform="translate(-164.34 -177.61)"/><path class="cls-21" d="M966.06,1315.44l168.41-152.82h113.92c-1.58,0-169.31,152.82-169.31,152.82Z" transform="translate(-164.34 -177.61)"/><path class="cls-21" d="M1162.25,1315.44l168.41-152.82h65.68c-1.58,0-161.4,152.82-161.4,152.82Z" transform="translate(-164.34 -177.61)"/><path class="cls-17" d="M1448.16,1484.78H962.5V1324.84h485.66Zm-478.54-7.12H1441V1332H969.62Z" transform="translate(-164.34 -177.61)"/><path class="cls-21" d="M966.06,1481.22l168.41-152.82h113.92c-1.58,0-169.31,152.82-169.31,152.82Z" transform="translate(-164.34 -177.61)"/><path class="cls-21" d="M1162.25,1481.22l168.41-152.82h65.68c-1.58,0-161.4,152.82-161.4,152.82Z" transform="translate(-164.34 -177.61)"/></g><rect class="cls-9" x="813.21" y="1345.38" width="994.5" height="34.94"/><path class="cls-25" d="M1870.55,1214.69c.75-18.14-1.91-36-10-52.94-7-14.53-24.15-22.78-39.84-22.79-49.82-.07-56.16,66-87.87,91.53-9.69,7.8-20.52,14.14-29.69,22.54-33.86,31-18.61,88.46,12.48,115.66,21.58,18.88,55.48,29.6,82.07,14.85,13.88-7.7,24.42-20.51,31.93-34.54,10.65-19.91,17.52-42.88,25.1-64.1C1862.79,1262.32,1869.55,1238.8,1870.55,1214.69Z" transform="translate(-164.34 -177.61)"/><path class="cls-26" d="M1692.52,1144.1c2.3-1.66,8.12,10.2,10.92,10.09s-1.93-16.61.17-17.88c3.88-2.35,6.29,17.74,8.14,16.78s.39-21.81,4.4-20.71-.74,21.77,1.71,21.61,2.68-19.61,7.8-20.8c2.73-.64-4.62,33.22-2.15,36.15s13-7.84,15.66-5.72-20.58,17.94-21,20.06-5.17,47.58-4.54,62.6c5.18.3,34.51,6.1,39.37,6.27-3.22,9.5,4.71,19.32,2,28.93-16.43-1.45-65.32-5.18-68.38-8.71-9.34-10.73,7.77-77.1,11.71-88.73s.09-16.48.3-23.62S1690.22,1145.77,1692.52,1144.1Z" transform="translate(-164.34 -177.61)"/><path class="cls-27" d="M1768.71,1822.85c4.14-3,7.48-5.07,20.71-11.48.87-.42,4-2.42,5.14-3.12a39.63,39.63,0,0,0,8.24-7.29c2.37-2.65,3.5-11.13,4-17.89-1.37-15.1-23.24-257.27-27.86-283.48-4.76-27.07,2.49-68.34,2.49-68.34l16.89-6.37L1830.43,1536l-2.53,84.6s7.54,24.39,8.49,39-10.9,132.85-10.9,132.85h0a61.75,61.75,0,0,0,.64,10.44c.87,4.43,5.72,13.54,3.49,17.7s-4.76,5.2-4.76,5.2l-57.62.93C1764.1,1826.74,1766.18,1824.72,1768.71,1822.85Z" transform="translate(-164.34 -177.61)"/><path class="cls-28" d="M1856.15,1422.56s20,30.19,24.77,55.17-3.49,101.74,5.67,134.48c5,17.72,23.76,45.08,26.62,68s12.81,89,12.81,89h0c1.51,6.94,3.87,15.52,6.93,19.51,1.87,2.44,5.29,5.53,7.54,9.94,3.49,6.87,1.56,17.1-1,22.73-1.32,2.89.09,2.89-2.92,3.82a18.5,18.5,0,0,1-22.22-10.46,53.34,53.34,0,0,1-4.36-19.21,89.48,89.48,0,0,0-3.15-20.31h0l-64-156.88-46.3-135.39-11.86-69.73Z" transform="translate(-164.34 -177.61)"/><path class="cls-29" d="M1912.59,1810.22c13.84,2.53,23.05-5.59,27.85-11.66,3.51,6.88,5.23,17.15,2.64,22.8-2.28,5-8.94,4.84-14.18,5-5.55.21-9.84-2.88-12.59-7.72A46.65,46.65,0,0,1,1912.59,1810.22Z" transform="translate(-164.34 -177.61)"/><path class="cls-29" d="M1794.57,1808.25c15.24,3.92,26.5,1.25,32.8-1.29,1.63,4.61,3.78,10.41,2.64,13.74-1.4,4.09-3.39,5-5.15,5.06-13.92.37-51,.87-61.6,1a1.74,1.74,0,0,1-1.35-2.86C1764.55,1820.76,1793.43,1809,1794.57,1808.25Z" transform="translate(-164.34 -177.61)"/><path class="cls-30" d="M1843.18,1615.36l-3.61.23h-.19c-1.18.08-2.38.14-3.57.2l-.22,0-3.6.17h-.19c-1.22.06-2.45.1-3.68.14-13.65.45-30.52.28-41.35-1.56-5.52-55.24-7.57-105.66-9.61-116.82-5-27.06,4.31-69.77,4.31-69.77l-.74-10.14,2.37-6.47,74.31,9.36s20.8,30.19,25.76,55.17-3.64,101.74,5.89,134.48C1889.06,1610.38,1867.85,1613.68,1843.18,1615.36Z" transform="translate(-164.34 -177.61)"/><path class="cls-31" d="M1742,1248.41s55.64-5.82,72.06-.32,28,29,19.18,42.07-87.72-4.06-87.72-4.06Z" transform="translate(-164.34 -177.61)"/><path class="cls-5" d="M1840.11,1243.24s27.52-1.7,38.4,9.83-24.15,102.75-26.13,117.43,10.09,53.7,10.09,53.7-64.64,12.64-83.12.76c0,0-3.39-106.56-1.41-117s19.89-52.1,23.85-56.29S1840.11,1243.24,1840.11,1243.24Z" transform="translate(-164.34 -177.61)"/><path class="cls-26" d="M1831,1207.51s.14.78.39,2.12c1.23,6.43,6,27.76,9.15,33.62,3.85,7.09-13.21,29.69-29.63,26.93-4.89-.82,4.13-20.76,3.7-22.88-.83-4-2-9.56-3.11-15.21l-1.93-9.47c-1.75-8.64-3.19-15.71-3.19-15.71Z" transform="translate(-164.34 -177.61)"/><path class="cls-32" d="M1831.34,1209.63c-.25-1.34-.39-2.12-.39-2.12l-24.62-.6s1.44,7.07,3.19,15.71c.62,3,1.27,6.24,1.92,9.41a23.24,23.24,0,0,0,11.75-5.72,30.15,30.15,0,0,0,8.9-12.87C1831.79,1211.93,1831.53,1210.63,1831.34,1209.63Z" transform="translate(-164.34 -177.61)"/><path class="cls-26" d="M1814.38,1153.14s11.6-1.3,18.87,7.84,15.11,37.4-3,52.77-35.91-2-38.56-20.47S1788.07,1152.48,1814.38,1153.14Z" transform="translate(-164.34 -177.61)"/><path class="cls-26" d="M1786.4,1193c2.15,4.07,5.77,6.32,8.08,5s2.43-5.64.28-9.71-5.78-6.33-8.09-5S1784.24,1188.93,1786.4,1193Z" transform="translate(-164.34 -177.61)"/><path class="cls-25" d="M1813.08,1150.12s15.5,26.88,26.59,28.12,12.54,15.52,12.54,15.52-4-32.9-14.94-39.25S1813.08,1150.12,1813.08,1150.12Z" transform="translate(-164.34 -177.61)"/><path class="cls-26" d="M1836.76,1185c-.9,4.78.91,9.15,4,9.78s6.41-2.74,7.32-7.51-.92-9.15-4.05-9.77S1837.66,1180.22,1836.76,1185Z" transform="translate(-164.34 -177.61)"/><path class="cls-10" d="M1821.53,1197.42l-15.83,2.26s1.22,6,8.21,5.17C1822.44,1203.88,1821.53,1197.42,1821.53,1197.42Z" transform="translate(-164.34 -177.61)"/><path class="cls-33" d="M1938.69,1517.26l-2.15-5.29-3.7,2.68-2.52,7.28,1.79,1.45S1937.09,1518.55,1938.69,1517.26Z" transform="translate(-164.34 -177.61)"/><path class="cls-34" d="M1904,1550.37l.77-20.72c.58-15.42,9.26-28.74,19.36-29.69s21.45,11.69,25.31,28.17l5.18,22.14c.51,2.17,3.33,2.18,2.79,0l-5.51-22.22c-4.55-18.35-17.16-32.38-28.1-31.27s-20.58,15.91-21.49,33l-1.1,20.65A1.4,1.4,0,1,0,1904,1550.37Z" transform="translate(-164.34 -177.61)"/><polygon class="cls-35" points="1723.71 1355.26 1727.63 1355.17 1717.81 1491.12 1693.85 1491.29 1723.71 1355.26"/><polygon class="cls-34" points="1717.81 1491.12 1860.08 1491.12 1833.23 1355.58 1727.63 1355.17 1717.81 1491.12"/><polygon class="cls-35" points="1791.92 1477.9 1860.08 1491.12 1717.81 1491.12 1791.92 1477.9"/><path class="cls-34" d="M1914.89,1547.43l.77-20.72c.58-15.42,9.26-28.74,19.36-29.69s21.45,11.69,25.31,28.17l5.18,22.14c.51,2.17,3.33,2.18,2.79,0l-5.51-22.21c-4.55-18.36-17.16-32.39-28.1-31.28s-20.58,15.91-21.49,33l-1.1,20.65A1.4,1.4,0,1,0,1914.89,1547.43Z" transform="translate(-164.34 -177.61)"/><path class="cls-26" d="M1920.6,1482.31c.1-.43-17.24-74-24.25-90.3s-34.25-91.85-34.25-91.85l27.64-11.19s26.53,61.15,36.89,87.89,9.77,77.53,10.24,91.44c0,.2,1.52,11.77,1.53,12h0a20.9,20.9,0,0,0,.83,3.07,43.2,43.2,0,0,1,1.68,5.75,17.2,17.2,0,0,0,1.51,2.66c.42.68,1.38,10.14,1.59,11.66a23.16,23.16,0,0,1-.47,5l.37,6.34c.27,4.65-4.56,3.42-4.56,3.42.12,2.2-.65,3.34-1.88,3.76a10,10,0,0,1-2.93.15c-.23.09-.33.78-.33.78.13,1.4-1.44,2.47-2.46,2.67a4.64,4.64,0,0,1-3.34-1.08c-.51-.61-.87-.52-.87-.52-1,.88-5,.84-5.88-.43s-1.73-8-2.14-8.55a7,7,0,0,1-1.42-2.59c-.13-1-3.36-7.82-3.54-9.18s1.81-6,2.25-8.75,3.14-7.06,3.79-8.29a10.59,10.59,0,0,0,0-3.8Z" transform="translate(-164.34 -177.61)"/><path class="cls-5" d="M1877.32,1348.54s-31.08-46.51-33.87-63.59,12.58-38.23,28.28-36.59,42.52,79.44,42.52,79.44Z" transform="translate(-164.34 -177.61)"/><path class="cls-8" d="M1029.82,1162.64c4.85,19.94-21.41,34.42-42.2,34.95-13.52.34-19.73-1-21.92-15.23-3.54-23,6-37.06,19.31-42.86C1002.22,1132,1025.82,1146.19,1029.82,1162.64Z" transform="translate(-164.34 -177.61)"/><path class="cls-26" d="M1004.22,1487,987.9,1632.29s8,30.74,7,39.47S977.18,1795,977.18,1795l.71,6.43,0,19H915.64a280.31,280.31,0,0,0,31.7-17.56,12.68,12.68,0,0,0,5.29-9.09c4.93-35.31-4.84-153.08-4.84-153.08l-7.69-153.29Z" transform="translate(-164.34 -177.61)"/><path class="cls-26" d="M1054.26,1517.52c3.51.89,8.93,125.86,11.84,131.4,18.46,35.11,22.85,141.87,22.85,141.87l5.51,15.54,5.59,18.46s-18.43,4.74-28.09-.59l1.07-18.37,1-16.81-46.58-133-25.49-135.67Z" transform="translate(-164.34 -177.61)"/><path class="cls-36" d="M961.62,1275.43c7.51-10.23,38.51-39.88,42-39.82,10,.17,43,.19,49.44,3.45l-.32,56.44c-1,4.74-23.8,78.54-22.47,94.69l-.16.16a45.7,45.7,0,0,1-66.58-3.2h0a370.46,370.46,0,0,0-2.61-42.8C956.68,1312.35,943,1300.86,961.62,1275.43Z" transform="translate(-164.34 -177.61)"/><path class="cls-30" d="M934.29,1581.49l-2.22-86.23a166,166,0,0,1,14.59-70.71l16.83-37.4a104.51,104.51,0,0,0,20.38,4.8c15.57,1.74,30.88,0,46.36-1.76a9.75,9.75,0,0,0,.21,1.53c2.81,12.7,18.45,41,25,79.7,7.48,43.93,9.44,104.82,8.5,110C1020.65,1591.51,976.25,1591.84,934.29,1581.49Z" transform="translate(-164.34 -177.61)"/><path class="cls-26" d="M1013.68,1203.83s-.87,20.83,1,28.72,4.38,8.49-11.73,10.9c-6.33.94-12.44,2.35-12.44,2.35s1.66-11.59,1.91-16.49c.41-8.06-1.86-33-1.86-33Z" transform="translate(-164.34 -177.61)"/><path class="cls-32" d="M1001.41,1214.2a28.76,28.76,0,0,1-9.27,3.27c-.54-9.83-1.57-21.11-1.57-21.11l22,7.13A28.91,28.91,0,0,1,1001.41,1214.2Z" transform="translate(-164.34 -177.61)"/><path class="cls-32" d="M1073,1805.75c8.51,3.78,17.66,1.5,21.34.3l1.23,3.28,4.69,15.58s-18.67,4.62-28.33-.71Z" transform="translate(-164.34 -177.61)"/><path class="cls-32" d="M978.55,1825.15H913.82c-2.4-.21-3-2.16-2.15-3.36,1.71-2.48,9.26-4.29,17.75-8.24,14.89,1.57,46.13-8.68,48.48-12.12C979.25,1808.33,979.88,1824.86,978.55,1825.15Z" transform="translate(-164.34 -177.61)"/><path class="cls-37" d="M1004.67,1467.66l-8.06-.16,4.54-212.22a22.76,22.76,0,0,0-17.92,15.77l-56.08,191.64-7.75-2.13,56.08-191.64c3.76-12.84,16-21.81,29.8-21.81h4.11Z" transform="translate(-164.34 -177.61)"/><path class="cls-38" d="M886.42,1300.72c-.24-1.2.54-3.66-1.11-13.06-.47-2.72-3-5.69-3-5.69s-3.17-3.62-4.24-3.1a2.46,2.46,0,0,0-1.11,2.86c.31.88,1.74,2.17,2.06,3s-.91,3.63-1.69,4.41-9.75-10.23-9.75-10.23-2.43-3.28-3.14-4.43c-.62-1-2.22-4.09-2.22-4.09s-2.53-4.27-3.82-3.39c-.76.52.42,5,2.25,9,2,4.38,4.64,8.4,4.26,8.72-.87.74-5.94-5.17-5.94-5.17a24.39,24.39,0,0,0-3-4.51c-.72-2.25-2.94-5.47-4.44-4.28-.27.21,1.47,5.48,1.47,5.48s1.74,3.13,2.48,4.68c1.31,2.73,4.34,6,5.37,7.74.85,1.47.11,1.3,0,1.48a39.58,39.58,0,0,1-3.47-4,29.5,29.5,0,0,1-3.34-3.91,37.17,37.17,0,0,0-3.3-4.37c-2.63-3.06-4.11-.82-2.13,2.44.76,1.24,1.59,2.58,2.44,3.94,3.3,5.29,7.42,9.34,7,9.88-.55.69-7.61-7.17-7.61-7.17s-5-3.12-2.1,1.69a46.44,46.44,0,0,0,7.3,9.22c1.18,1,4.28,5.7,8.92,8.44,3.43,2,8.42,4.77,10.81,6.08Z" transform="translate(-164.34 -177.61)"/><path class="cls-26" d="M991.32,1316.66l-24-13.22s-12.8,19.25-14.69,21.17c0,0-47.95-15.63-66.24-23.89l-11.27,11.6c3.51,1.7,6.55,2.83,8.22,3.74,3.29,1.77,55.38,30.7,55.38,30.7s21.3,10.64,24.9,8.19S991.32,1316.66,991.32,1316.66Z" transform="translate(-164.34 -177.61)"/><path class="cls-34" d="M1017.7,1263.16c4.66,19.13-20.21,61.78-20.21,61.78s-35.42-16.65-41.64-23.83c0,0,24.06-41.39,25.64-43.9,7.14-11.4,16.83-11.41,23.15-10.67C1009.72,1247.14,1017.7,1263.16,1017.7,1263.16Z" transform="translate(-164.34 -177.61)"/><path class="cls-8" d="M1060.34,1330.37c41.07-12.29,30.07-48.37,29.84-47,.12-1.11,4-5.66,5.91-9.54,8-16.18-2.55-35.66-14.6-42.4,8-20.57,0-40.31-15-48.53a60.53,60.53,0,0,1-19.12-16.88c-11.4-15.16-32.12-30.41-57-25.43-24.65,6.29,8.35,20.52,5.09,44.16-1.66,12,3.1,10.26,10.53,19.89-10.69,18.73-4.51,50.17,11.88,64.43C1009.8,1302.81,1018.43,1342.91,1060.34,1330.37Z" transform="translate(-164.34 -177.61)"/><path class="cls-26" d="M999.28,1152a27.31,27.31,0,0,1,14,12.27c4.88,9.2,2.46,38.66-17.82,48.37s-29.59-12.35-28.12-28.62S974.69,1146.44,999.28,1152Z" transform="translate(-164.34 -177.61)"/><path class="cls-8" d="M1020.5,1186.56c3-15.22,1.83-26.76-9-32.33s-20.13-11.09-29.84-1.08l-2.2,1.23s18.33,5,19.35,14.75,10.77,21.23,9.27,26-3.23,14.27-3.23,14.27l4-3.29S1017.5,1201.79,1020.5,1186.56Z" transform="translate(-164.34 -177.61)"/><path class="cls-26" d="M1001.61,1180.73c-1.52,4.21-.37,8.43,2.55,9.43s6.53-1.59,8-5.8.37-8.42-2.55-9.42S1003.12,1176.53,1001.61,1180.73Z" transform="translate(-164.34 -177.61)"/><path class="cls-10" d="M985.07,1197l-13.22,3.21s1.52,4.94,7.38,3.7C986.36,1202.36,985.07,1197,985.07,1197Z" transform="translate(-164.34 -177.61)"/><path class="cls-31" d="M1004.79,1466.66v27.13c0,14.11-11.81,25.55-26.38,25.55H951.27v-63.26h42.6a11.08,11.08,0,0,1,7.52,2.91A10.34,10.34,0,0,1,1004.79,1466.66Z" transform="translate(-164.34 -177.61)"/><path class="cls-5" d="M1001.39,1459h-.18a10,10,0,0,0-10.14,9.82v20c0,16.88-14.14,30.57-31.57,30.57H943c-17.44,0-31.57-13.69-31.57-30.57V1468.9a13,13,0,0,1,13.24-12.82h69.23A11.08,11.08,0,0,1,1001.39,1459Z" transform="translate(-164.34 -177.61)"/><path class="cls-30" d="M1274.94,1306.5l-2,1.81a2.47,2.47,0,0,1-3.48-.09l-35.71-39.4a2.43,2.43,0,0,1,.27-3.45l2-1.81a2.47,2.47,0,0,1,3.48.09l35.72,39.39A2.46,2.46,0,0,1,1274.94,1306.5Z" transform="translate(-164.34 -177.61)"/><path class="cls-26" d="M1396,1274.49c-4.78-3.89-41.7,12.36-41.23,18S1329,1353,1329,1353l-45.33-36.26h0c-.41-1.31-4.7-15.42-4.91-17.94s-7.88-7.28-11.44-6.59,3.05,5.15,3.48,6c1.18,2.23-3.38,3.07-3.38,3.07s-13.1-7.21-13.38-11.45-3-13.13-5.81-11.27c-1.46,1-1.44,7.27-1,10.26-.84-3.4-2-7.24-3.19-7.62-2.12-.69-3.17,2-2.79,3.34s3.81,15.75,4.85,17.38,22.16,18.68,25.21,22.39c0,0,58.63,67.25,62.8,69,3.67,1.55,16.73-21.63,29.06-37S1410.94,1286.66,1396,1274.49Z" transform="translate(-164.34 -177.61)"/><path class="cls-27" d="M1514.32,1769s8.06,7.89,8.24,10.78.72,33.91-2.57,36.81-13,4.94-9.84,8.2c2.34,2.46,20.4,1.93,32.37,1.27,3.49-.19,7.88-28.16,9.26-32.27,2-6,6.9-19.42,5.07-23.58-.89-2-5.15-6.2-11.15-10.09-6.31-4.09-12.35-13.2-12.35-13.2Z" transform="translate(-164.34 -177.61)"/><path class="cls-26" d="M1430.87,1787.36s7.21,20.44,7.22,20.49c.53,3.24,2.64,11.24,2.64,14.18,0,11.06-49.69-9.39-38.56-14.29,1-.44,4.17-4,4.51-7.75.51-5.8-4.19-13.07-4.19-13.07Z" transform="translate(-164.34 -177.61)"/><path class="cls-36" d="M1352.9,1406.81s-3.62,36.63-3.62,37.18c0,59.26-11.71,175-9.48,186.17,5.43,27.18,63.89,165.81,63.89,165.81l31.6-3.79-41.17-166,15.15-66.82,21.44-132.06Z" transform="translate(-164.34 -177.61)"/><path class="cls-30" d="M1459,1439.21l6,34.72,16.23,142.91,61.77,139.67s-8.69,20.33-21.51,23.18l-98.32-143.4L1362,1452.8l2.14-40.77Z" transform="translate(-164.34 -177.61)"/><path class="cls-39" d="M1340.3,1319.58l43.82,4.48s2-36,2-53.23c0-20.86-1.77-47.72-4.28-47.15-7,1.63-16.54,5.53-22.19,13.32C1340.12,1264,1340.3,1319.58,1340.3,1319.58Z" transform="translate(-164.34 -177.61)"/><path class="cls-32" d="M1361.83,1267.15c-.92,6.36-17.76,179.25-17.76,179.25,79.77,38.66,123.79,6.89,123.79,6.89s-2.61-121.41.52-137.93c2.07-10.94,4.65-83.58-2.41-85.62-9.06-2.61-19.45-5.38-30.77-6.56-9.67-1-47.22-1.59-53.93.67C1381.27,1223.85,1365.69,1240.41,1361.83,1267.15Z" transform="translate(-164.34 -177.61)"/><path class="cls-32" d="M1545.31,1759.92s-18.57,52.45-25.84,55c-1.93.67-11.19,2.38-12.94,6.48-.52,1.24,0,5.38,0,5.38h38.71s4.89-23.12,6.83-33.27c0,0,10.24-24.81,9.1-27.07S1545.31,1759.92,1545.31,1759.92Z" transform="translate(-164.34 -177.61)"/><path class="cls-32" d="M1443.56,1825.68l-5.69-18s-11.95,5.07-17.93,4.23-17.64-4.23-17.64-4.23c-23.86,7.88-43.4,11.7-39.84,18h81.1Z" transform="translate(-164.34 -177.61)"/><path class="cls-26" d="M1334.15,1393.33a10.19,10.19,0,0,1-1.2-.89c1.42-16.94,1.16-33.35-4.14-38.9l2.5-5.3c6.14,4.76,9.06,17.42,7.91,38a34.65,34.65,0,0,1-.81,4.26C1336.63,1392.43,1335,1393.7,1334.15,1393.33Z" transform="translate(-164.34 -177.61)"/><path class="cls-38" d="M1546.88,1448.23a5.15,5.15,0,0,0,0-1.11c-1.18-12-11.09-112.51-12.76-116.79-1.5-3.86-45.93-67.62-45.93-67.62l-21.84,29.85,42.73,57.2c1,3.63,16.37,71.5,16.37,71.5s3.16,12.37,4.58,19.78c-.65,1.79-1.28,3.47-1.84,4.86a44.94,44.94,0,0,1-4.61,7.42c-1.91,2.57-5.06,8.18-5.45,9.68-.46,1.75-1.27,5.38-1.73,7.57s-1.1,4.74-1.2,5.93a11.75,11.75,0,0,1-1.38,3.18,1.91,1.91,0,0,0,2.25,2.76c1.55-.52,2.76-2.53,3.5-3.79,2.11-3.54,3.23-10,3.75-9.68s2.37,11.33,2.66,12.57,2.5,14,3.75,16.34,2.89,1.94,3.33.48c.38-1.26-1.38-19.11-1.38-19.11s-.21-2.28.78-1.57,2.62,16.92,3.31,19.29,2.27,3.63,3.6,1.72c1.63-2.31-1.17-19.5-1.17-19.5s-.31-2.16.61-2,2.07,14,2.79,15.2,2.52,1.63,3.38-.36c1-2.35-1.61-17.67-1.61-17.67s.13-1.22.7-.82,2.4,12.11,3.58,13.19a1.25,1.25,0,0,0,1.83,0c2.18-1.49-1.16-12.62-1.13-18.16s-2.52-11.75-1.76-18.34C1546.66,1449.88,1546.79,1448.87,1546.88,1448.23Z" transform="translate(-164.34 -177.61)"/><path class="cls-32" d="M1522.92,1303.09l-38,25.57s-21.39-31.94-32.87-43.31c-14.39-14.25,5.24-57.89,14.51-55.42C1487.33,1235.46,1522.92,1303.09,1522.92,1303.09Z" transform="translate(-164.34 -177.61)"/><path class="cls-26" d="M1432.41,1185.8l5.68,37.55s-20.74,44.7-33.11,40.83c-10.39-3.26-4-42.81-4-42.81s5.66-21.25,4-31.88S1432.41,1185.8,1432.41,1185.8Z" transform="translate(-164.34 -177.61)"/><path class="cls-32" d="M1404.94,1189.49c-1.69-10.63,27.47-3.69,27.47-3.69l.47,3.12a17.43,17.43,0,0,1-3.16,5.23,38.38,38.38,0,0,1-25.5,11.58C1405.1,1200,1405.64,1193.85,1404.94,1189.49Z" transform="translate(-164.34 -177.61)"/><path class="cls-26" d="M1437.19,1132.68c.83-.3,6.61,42.77-4.36,54.61s-32.36,15.73-40,6.4c-8.48-10.32-8-56.6,9-68.79S1437.19,1132.68,1437.19,1132.68Z" transform="translate(-164.34 -177.61)"/><path class="cls-8" d="M1408.3,1101.86a47.35,47.35,0,0,1,24.87,14.23c6,.71,14.13,4,22.53,18,10.34,17.17,2.7,36.19-9.32,45.52s-11.87,20.12-11.87,20.12l-1.9-5.58a31.13,31.13,0,0,1-1.5-13.13,25.58,25.58,0,0,1,1.94-7.9c2.89-6.23-6.21-10.37-8.77-15.56-2-4-2.06-13.12-5.16-19.72l-3.7-5s-8.53-6.67-16.89-4.79S1391.38,1098.4,1408.3,1101.86Z" transform="translate(-164.34 -177.61)"/><path class="cls-26" d="M1424.84,1165.22c-.08,5.25,2.3,9.55,5.32,9.6s5.54-4.16,5.63-9.42-2.29-9.55-5.31-9.6S1424.93,1160,1424.84,1165.22Z" transform="translate(-164.34 -177.61)"/><path class="cls-10" d="M1407,1177.36l-16.54-.86s.06,6.32,7.32,6.91C1406.66,1184.13,1407,1177.36,1407,1177.36Z" transform="translate(-164.34 -177.61)"/><path class="cls-25" d="M2924.55,1442.27c-6.55-18.57-.06-36.5,5.34-45.76s12-23.26,22.12-24.71c14.88-2.12,22.79-3.38,33.52,2.93,9.13,5.38,14.51,9.32,18.64,23.24,5.68,19.16,11.19,43.29,8.09,45.67-10.27,7.89-39.54,8.44-53.82,7.86C2936.28,1450.59,2924.55,1442.27,2924.55,1442.27Z" transform="translate(-164.34 -177.61)"/><path class="cls-34" d="M2966.1,1456.54s34.64-4.22,46.26,1.79,18,77.63,18,77.63L3020,1539.1s1.47,49.59-6.42,53-63.29-7.25-75.92-19.89-3.18-109.08,8-117.09C2948.83,1452.92,2966.41,1456.52,2966.1,1456.54Z" transform="translate(-164.34 -177.61)"/><path class="cls-26" d="M2644.18,1762.06s-2.37,25.92-.81,34.37a33.77,33.77,0,0,0,1.2,4.14c1.61,4.74-2.79,19.21-2.79,19.21l-59,.22c-3.22,0-1.07-2,1.55-3.9,4.28-3.07,7.73-5.08,21.36-11.46.89-.42,4.13-2.42,5.3-3.11a41.2,41.2,0,0,0,8.53-7.34c4.3-4.66,4.95-27.5,4.95-27.5Z" transform="translate(-164.34 -177.61)"/><path class="cls-36" d="M2611,1801.52c15.55,4.19,27.12,1.62,33.61-.9,1.61,4.73,4.59,20.35,2.82,20.73-7.55,1.59-27.32,2.8-69.73,2.13-1.52,0-1.33-5.24-.34-6.39C2580.07,1813.91,2609.81,1802.22,2611,1801.52Z" transform="translate(-164.34 -177.61)"/><path class="cls-40" d="M2718.2,1454.4s-.84,37-11.43,60.69c-10.32,23.07-59.71,80-72.84,113.2,4.06,18.73,15.22,45.06,14.41,65.83-.92,23.53.45,85.79.45,85.79l-26.5.84-34.77-160.67,52.39-173.37,23.78-42.1Z" transform="translate(-164.34 -177.61)"/><path class="cls-26" d="M2776.5,1731.82s11.93,25,18,31.83c3.22,3.68,12.74,9.58,12.91,14.7s-55.45,39.84-55.45,39.84c-2.93,1.76-2.07-1.27-.7-4.41,2.24-5.12,4.29-8.85,13.27-22.09.59-.87,2.46-4.47,3.15-5.73a43.38,43.38,0,0,0,3.8-11.36c1.39-6.59-10.44-27.81-10.44-27.81Z" transform="translate(-164.34 -177.61)"/><path class="cls-36" d="M2767.65,1786c16.48-4.65,25.65-13.3,30.2-19.13,4,3.44,15.18,11.26,13.82,12.61-10.67,10.65-22.21,24.21-61.3,46.7-1.4.8-5.25-6.05-5-7.65C2746.16,1814.09,2767,1787.22,2767.65,1786Z" transform="translate(-164.34 -177.61)"/><path class="cls-26" d="M3040.61,1518.49c7.43,4.06,25.43,20.55,31.52,26.17.12.71,1,4.78,5.92,9.66,3.48,3.44,6.57,11.68,8.47,9.12s-3.82-8.84-1.45-9.07,15.23,12.1,16.95,9.78-11.19-13.16-9.07-13.37,12.8,11,15.23,7.69-13.77-12-12.47-13.74,11.39,4,13.35,1.36-14.14-7.21-12.89-7.33,10.29-.59,10.22-2.34c-.08-2-23.23-3.21-26.31-6.39h0c-6.74-9.06-18.78-25.63-30.17-32.42-13.95-8.3-46-25.71-46-25.71l-13.6,20.8S3031.81,1513.66,3040.61,1518.49Z" transform="translate(-164.34 -177.61)"/><path class="cls-32" d="M2718.51,1427.93s14.53,34,14.68,60c.14,25.28-21.29,97.53-19.51,133.21,11.44,15.37,32.48,34.73,40.33,54,8.89,21.8,35.88,77.92,35.88,77.92l-23.78,11.74L2668,1632.86l-20.77-155.52-4-51.51Z" transform="translate(-164.34 -177.61)"/><path class="cls-26" d="M3048.48,1769.31l10.8,9.92c1.51,1.12,5.57,3.57,6.74,4.78,4.42,4.54-23.89,15.88-21.34,9.44.23-.58.67-5.71-.7-7.39-2.11-2.59-5.91-6.27-5.91-6.27Z" transform="translate(-164.34 -177.61)"/><path class="cls-8" d="M3044.69,1793.36s6.08-3.25,8.84-5.27,3.11-8.08,5.59-9c2.73-1,14.21,10.77,14.21,10.77s-22.43,24.4-34.17,32.53c-2.53,1.75-5.6,1.19-6.68,1.21C3028.33,1823.7,3038.17,1806.07,3044.69,1793.36Z" transform="translate(-164.34 -177.61)"/><path class="cls-26" d="M2895.77,1787.94s-3.35,16.22-3.35,16.25c-.21,2.12-.24,7.48-.73,9.33-1.84,6.92-29.13-14.11-21.44-15.34.7-.11,4.16-1.5,5.35-3.64,2.07-3.72,4-10.68,4-10.68Z" transform="translate(-164.34 -177.61)"/><path class="cls-8" d="M2870.35,1798.13a113.62,113.62,0,0,0,10.19,5.58c3.55,1.51,10.05-2.7,12.34-.8,2.52,2.1-1.59,20.68-1.59,20.68s-46.68-12.39-56.62-18.82C2830.74,1802.22,2854.3,1799.12,2870.35,1798.13Z" transform="translate(-164.34 -177.61)"/><path class="cls-36" d="M2921.26,1562.6l-28.93,115.73L2874,1790.4l22.77,3.07s40.26-102.69,43.23-112.14c6.36-20.25,58.94-76.06,58.94-76.06Z" transform="translate(-164.34 -177.61)"/><path class="cls-8" d="M2998.34,1562.08s8.25,105.64,10,116,44,89.68,44,89.68l-16.32,17.75s-68.84-84.91-71.89-92c-4.79-11.13-37.19-156.78-37.19-156.78Z" transform="translate(-164.34 -177.61)"/><path class="cls-26" d="M2866.14,1495.23c-8.6,3-34.76,5.57-43.65,6.41-.65-.42-4.53-2.66-12-2.22-5.26.31-14.08-3.15-13.4.22s9.83,3.3,8.3,5.37-20.65,3.49-20,6.54,18.59.51,17.23,2.36-18,2.36-17.13,6.68,19.52-2.42,20-.1-11.39,6.24-10.7,9.72,15.95-6.15,15.15-5.06-6.94,8.68-5.49,9.88c1.64,1.35,19.3-16.31,24.06-16.49h0c12.11,1.13,34.05,3.42,47.69-.83,16.68-5.2,53.73-18.37,53.73-18.37l-6.85-25.88S2876.35,1491.64,2866.14,1495.23Z" transform="translate(-164.34 -177.61)"/><path class="cls-27" d="M2809,1507.78a10.13,10.13,0,0,0,2.55,3.21,9.9,9.9,0,0,0,8.32,2.31A16.84,16.84,0,0,1,2809,1507.78Z" transform="translate(-164.34 -177.61)"/><path class="cls-5" d="M2892.43,1483.29s1.24,5.82,23.56,25.25l46.65-24.45-20-25.76Z" transform="translate(-164.34 -177.61)"/><path class="cls-37" d="M2961.08,1460.34s-16-2.65-17.75-2.65c-15.18,5.83-41.1,128.17-37.07,152.3,26.83,5.77,102.12,6,102.12,6s-.17-23.24-3.93-35.21c-6.5-20.73-10.19-68.17-10.19-76.53,0-4.92,25.43,12.12,25.43,12.12l10.66-38.54s-32.47-13-43.85-15.39C2983.33,1461.8,2961.08,1460.34,2961.08,1460.34Z" transform="translate(-164.34 -177.61)"/><path class="cls-34" d="M2914.23,1542.49c5.58-21.56,30.85-78.65,37.32-84.16l-6.26-2c-2.73,2.63-28.41,57.84-32.73,78.78Z" transform="translate(-164.34 -177.61)"/><path class="cls-34" d="M3004.73,1564.22l3.65-5.8c-.31-.2-31.07-19.85-34.54-44.92-3.51-25.33,14.34-51.94,14.52-52.21l-5.66-3.86c-.8,1.17-19.52,29-15.64,57C2971,1542.7,3003.36,1563.35,3004.73,1564.22Z" transform="translate(-164.34 -177.61)"/><path class="cls-26" d="M2952.44,1445.59s.51,17.11-1.09,18.72-3.85,4.28-1.49,8.36,12.62,1.48,17.4-.86a22.56,22.56,0,0,0,7.54-6.42l-2.39-27.11Z" transform="translate(-164.34 -177.61)"/><path class="cls-33" d="M2959.26,1452.68a24,24,0,0,0,13.49-10.6l-.34-3.8-20,7.31s.12,4.17.06,8.59A22.84,22.84,0,0,0,2959.26,1452.68Z" transform="translate(-164.34 -177.61)"/><path class="cls-26" d="M2975.93,1418.92s.49-10.06,6.66-8.1,1.47,17.14-3.65,16.64S2975.93,1418.92,2975.93,1418.92Z" transform="translate(-164.34 -177.61)"/><path class="cls-26" d="M2956.52,1386.05s-9.67-.21-14.61,7.31-10.31,29-2.15,43.85,18.58,11.17,22.88,9.67,12.78-4.84,17.07-18.7S2980.89,1383.15,2956.52,1386.05Z" transform="translate(-164.34 -177.61)"/><path class="cls-10" d="M2943.64,1429.21l18.65.74s-.71,7.07-8.92,7C2943.36,1436.83,2943.64,1429.21,2943.64,1429.21Z" transform="translate(-164.34 -177.61)"/><path class="cls-38" d="M2655.28,1382.38c.8-4.14,13-81.26,13-81.26l-35.1,13.76-7.69,59.64c-1,3.07-15.83,76.09-21.26,99.72a14.54,14.54,0,0,1-9.07,10.29l-.07,0c-3,1.16-8.83,4.27-10,5.35-1.34,1.26-4,3.93-5.61,5.57s-3.53,3.48-4.27,4.44a11.43,11.43,0,0,1-2.92,2,2,2,0,0,0,.44,3.61c1.62.4,3.76-.68,5.09-1.35,3.74-1.9,8.24-6.87,8.5-6.29s-4.12,11-4.55,12.28-5.46,13.42-5.65,16.11,1.44,3.25,2.62,2.24c1-.88,9.21-17.21,9.21-17.21s1.05-2.08,1.52-.92-6.95,16-7.64,18.41,0,4.36,2.17,3.46c2.67-1.11,9.61-17.44,9.61-17.44s.9-2,1.59-1.35-5.84,13.19-5.87,14.61,1.29,2.78,3.12,1.54c2.15-1.47,8.22-16.1,8.22-16.1s.78-1,1.05-.31-4.52,11.73-4.08,13.31a1.28,1.28,0,0,0,1.56,1c2.69-.09,5.87-11.5,8.91-16.25S2654.39,1387,2655.28,1382.38Z" transform="translate(-164.34 -177.61)"/><path class="cls-41" d="M2640.56,1225.53c-.7-17.15,1.81-34.09,9.44-50,6.57-13.74,22.83-21.54,37.65-21.56,47.07-.06,53,62.44,83,86.55,9.15,7.36,19.38,13.36,28,21.31,32,29.33,17.58,83.63-11.8,109.34-20.38,17.85-52.41,28-77.54,14-13.11-7.28-23.06-19.39-30.16-32.65-10.06-18.83-16.55-40.54-23.71-60.6C2647.89,1270.55,2641.51,1248.33,2640.56,1225.53Z" transform="translate(-164.34 -177.61)"/><path class="cls-27" d="M2789.48,1484.47c.09-.39-15.55-66.85-21.87-81.54s-30.89-83-30.89-83l31.8-7s20.51,53.41,29.86,77.56,5.35,68.67,5.77,81.23c0,.18,1.37,10.63,1.38,10.8h0a19.57,19.57,0,0,0,.75,2.78,39.52,39.52,0,0,1,1.52,5.19,15.35,15.35,0,0,0,1.36,2.4c.38.62,1.24,9.15,1.43,10.53a20.43,20.43,0,0,1-.42,4.5l.33,5.72c.25,4.2-4.11,3.09-4.11,3.09.11,2-.58,3-1.7,3.39a8.68,8.68,0,0,1-2.64.14c-.21.09-.29.71-.29.71.12,1.26-1.31,2.23-2.22,2.41a4.17,4.17,0,0,1-3-1c-.46-.55-.78-.47-.78-.47-.93.8-4.48.76-5.3-.39s-1.57-7.18-1.94-7.72a6.34,6.34,0,0,1-1.28-2.34c-.12-.87-3-7.06-3.19-8.29s1.63-5.4,2-7.89,2.83-6.38,3.42-7.49a9.58,9.58,0,0,0,0-3.44Z" transform="translate(-164.34 -177.61)"/><path class="cls-30" d="M2632.88,1308.58c14.7-44.63,31.14-42.73,31.14-42.73l-12.72,93.82c-9.07-2.48-20.9-8-30-10.57C2624.34,1335,2629.26,1319.57,2632.88,1308.58Z" transform="translate(-164.34 -177.61)"/><path class="cls-36" d="M2701.64,1257.84s27.09-1.73,37.81,10-23.78,104.39-25.72,119.29,9.93,54.56,9.93,54.56-63.63,12.84-81.82.77c0,0-2-107.21,0-117.86s18.19-54,22.09-58.22S2701.64,1257.84,2701.64,1257.84Z" transform="translate(-164.34 -177.61)"/><path class="cls-26" d="M2692.63,1221.54s.14.8.39,2.16c1.2,6.53,5.86,28.2,9,34.15,3.79,7.2-13,30.16-29.17,27.36-4.81-.84,4.07-21.1,3.64-23.24-.81-4.11-1.92-9.72-3-15.46l-1.9-9.62c-1.73-8.78-3.14-16-3.14-16Z" transform="translate(-164.34 -177.61)"/><path class="cls-32" d="M2693,1223.7c-.25-1.36-.39-2.16-.39-2.16l-24.23-.61s1.41,7.18,3.14,16c.61,3.07,1.25,6.34,1.89,9.56a22.62,22.62,0,0,0,11.56-5.81,30.68,30.68,0,0,0,8.76-13.07C2693.45,1226,2693.21,1224.71,2693,1223.7Z" transform="translate(-164.34 -177.61)"/><path class="cls-26" d="M2676.32,1166.31s11.42-1.32,18.58,8,14.87,38-2.91,53.6-35.35-2.06-37.95-20.8S2650.42,1165.64,2676.32,1166.31Z" transform="translate(-164.34 -177.61)"/><path class="cls-26" d="M2648.78,1206.81c2.12,4.13,5.68,6.43,8,5.11s2.39-5.72.27-9.86-5.69-6.43-8-5.12S2646.66,1202.67,2648.78,1206.81Z" transform="translate(-164.34 -177.61)"/><path class="cls-41" d="M2675,1163.24s15.26,27.31,26.17,28.57,12.34,15.77,12.34,15.77-3.9-33.43-14.7-39.88S2675,1163.24,2675,1163.24Z" transform="translate(-164.34 -177.61)"/><path class="cls-26" d="M2698.35,1198.67c-.89,4.85.9,9.29,4,9.93s6.31-2.78,7.2-7.63-.9-9.29-4-9.93S2699.24,1193.82,2698.35,1198.67Z" transform="translate(-164.34 -177.61)"/><path class="cls-10" d="M2687.66,1211.86l-22.82.9s.87,8.65,10.91,8.54C2688,1221.17,2687.66,1211.86,2687.66,1211.86Z" transform="translate(-164.34 -177.61)"/><path class="cls-36" d="M2751.65,1359.88s-35.12-42-41.46-57.6,3.15-38.86,18-40.69,51.86,67.18,51.86,67.18Z" transform="translate(-164.34 -177.61)"/><path class="cls-25" d="M2952.9,1383.36s13.5,28.55,28.28,27S2984,1389,2984,1389s-16.74-6.39-17.54-6.39S2952.9,1383.36,2952.9,1383.36Z" transform="translate(-164.34 -177.61)"/><path class="cls-30" d="M2247.59,1234.46c.29-.58.47-.89.47-.89l0-.24c.85-2.1,1.77-4.19,2.79-6.25,6.75-13.69,23.45-21.46,38.67-21.48a48.35,48.35,0,0,1,13.63,1.85c6.23,2.81,21.47,12.51,25.44,41.42a46.41,46.41,0,0,1-5.51,29c4.11,2.58,9.49,7.8,13.4,18.35,7.17,19.38,43,23.69,46.62,49.53s-33.71,72.49-73.16,42.35c-30-22.95-25.15-66.69-21.11-86.27a44,44,0,0,1-29.1-6.32c-12.31-7.45-17.3-17.49-18.64-27.32A100.18,100.18,0,0,1,2247.59,1234.46Z" transform="translate(-164.34 -177.61)"/><path class="cls-32" d="M2282.65,1302c24.45,0,41.86-22.15,42.59-23.09a2.15,2.15,0,1,0-3.4-2.64h0c-.17.22-16.88,21.42-39.19,21.42a2.16,2.16,0,0,0,0,4.31Z" transform="translate(-164.34 -177.61)"/><path class="cls-38" d="M2199.35,1500.66a4.32,4.32,0,0,0,.7-.65c6.67-7.84,62.63-73.68,64.26-77.25,1.48-3.22,14.25-68.55,14.25-68.55l-31.38,4.24-9.73,60.38c-1.67,2.75-34.25,52.59-34.25,52.59s-5.73,9.3-9.44,14.57c-1.49.66-2.9,1.28-4.09,1.75a38.63,38.63,0,0,1-7.31,1.57,43.26,43.26,0,0,0-9.21,2.38c-1.34.75-4.06,2.41-5.68,3.42s-3.57,2.14-4.37,2.78a9.65,9.65,0,0,1-2.78,1,1.64,1.64,0,0,0-.36,3c1.25.65,3.21.2,4.42-.08,3.44-.81,8.09-4,8.19-3.44s-5.56,8.19-6.15,9.11-7.13,9.86-7.82,12,.53,2.94,1.69,2.34c1-.51,10.94-12.2,10.94-12.2s1.27-1.49,1.43-.45-8.85,11.67-9.9,13.5-.88,3.56,1.09,3.25c2.39-.37,11.3-12.31,11.3-12.31s1.14-1.48,1.57-.79-7.39,9.61-7.7,10.76a1.56,1.56,0,0,0,2.25,1.87c2-.77,9.91-11.49,9.91-11.49s.82-.65.92,0-6,8.67-6,10a1.08,1.08,0,0,0,1.07,1.14c2.22.46,7.08-8.21,10.5-11.48s5.73-8.54,10.24-12Z" transform="translate(-164.34 -177.61)"/><path class="cls-33" d="M2186.64,1520.45v25.35c0,13.18,11,23.86,24.62,23.86h25.33v-59.1h-39.75a10.36,10.36,0,0,0-7,2.72A9.69,9.69,0,0,0,2186.64,1520.45Z" transform="translate(-164.34 -177.61)"/><path class="cls-33" d="M2273.68,1521.39l-7.52-.15L2270.4,1323a21.25,21.25,0,0,0-16.73,14.73l-52.32,179-7.24-2,52.33-179c3.5-12,14.94-20.38,27.8-20.38h3.84Z" transform="translate(-164.34 -177.61)"/><path class="cls-32" d="M2189.82,1513.28h.17a9.32,9.32,0,0,1,9.46,9.17v18.65c0,15.78,13.19,28.56,29.46,28.56h15.42c16.27,0,29.46-12.78,29.46-28.56v-18.55a12.18,12.18,0,0,0-12.36-12h-64.59A10.36,10.36,0,0,0,2189.82,1513.28Z" transform="translate(-164.34 -177.61)"/><path class="cls-26" d="M2381.25,1756.27l13.89,12.76c1.94,1.43,7.15,4.58,8.66,6.14,5.68,5.84-30.71,20.41-27.43,12.13.3-.75.86-7.34-.9-9.5-2.71-3.32-7.59-8.06-7.59-8.06Z" transform="translate(-164.34 -177.61)"/><path class="cls-8" d="M2376.38,1787.18a131.19,131.19,0,0,0,11.37-6.77c3.54-2.6,4-10.39,7.18-11.53,3.51-1.25,18.26,13.84,18.26,13.84s-28.83,31.36-43.92,41.81c-3.25,2.25-7.19,1.53-8.58,1.56C2355.36,1826.18,2368,1803.52,2376.38,1787.18Z" transform="translate(-164.34 -177.61)"/><path class="cls-26" d="M2206.75,1781s-4.31,20.84-4.31,20.88c-.27,2.73-.31,9.62-.94,12-2.37,8.9-37.44-18.14-27.55-19.71.9-.15,5.34-1.93,6.88-4.68,2.66-4.78,5.18-13.73,5.18-13.73Z" transform="translate(-164.34 -177.61)"/><path class="cls-8" d="M2174.07,1794.06a146.61,146.61,0,0,0,13.1,7.16c4.56,2,12.91-3.47,15.86-1,3.24,2.69-2,26.57-2,26.57s-60-15.92-72.77-24.18C2123.17,1799.31,2153.45,1795.33,2174.07,1794.06Z" transform="translate(-164.34 -177.61)"/><path class="cls-34" d="M2239,1495l-37.18,148.73-23.51,144,29.27,4s41.23-110.15,42.38-122.83,21.84-71.94,21.84-71.94Z" transform="translate(-164.34 -177.61)"/><path class="cls-15" d="M2325.82,1477.77s-2.79,142.6-.49,155.86S2389.92,1760,2389.92,1760l-21,22.81s-89.13-103.42-93.06-112.54c-6.16-14.3-36.56-175.53-36.56-175.53Z" transform="translate(-164.34 -177.61)"/><path class="cls-38" d="M2339.45,1524.29a4.22,4.22,0,0,0,.37-.88c2.86-9.89,26.85-92.93,26.87-96.85,0-3.55-15.16-68.36-15.16-68.36L2324.67,1375l15.91,59c-.39,3.19-9.63,62-9.63,62s-1.41,10.84-2.63,17.17c-1.08,1.22-2.12,2.36-3,3.28a38.82,38.82,0,0,1-6,4.43,43.2,43.2,0,0,0-7.41,6c-.92,1.24-2.72,3.86-3.78,5.46s-2.38,3.41-2.84,4.32a9.47,9.47,0,0,1-2.11,2.09,1.64,1.64,0,0,0,.92,2.91c1.4.09,3-1.13,4-1.89,2.79-2.15,5.74-6.94,6-6.5s-1.71,9.76-1.87,10.83-2.45,11.92-2.19,14.17,1.69,2.47,2.5,1.45,5-15.62,5-15.62.54-1.88,1.11-1-3.28,14.28-3.48,16.38.66,3.61,2.33,2.52c2-1.33,5.25-15.87,5.25-15.87s.43-1.82,1.1-1.37-2.79,11.79-2.6,13a1.56,1.56,0,0,0,2.81.79c1.56-1.54,4.32-14.56,4.32-14.56s.49-.92.82-.42-1.93,10.38-1.33,11.62a1.08,1.08,0,0,0,1.45.6c2.21-.49,3.08-10.39,4.86-14.78s1.71-10.14,4.41-15.14C2338.75,1525.53,2339.18,1524.76,2339.45,1524.29Z" transform="translate(-164.34 -177.61)"/><path class="cls-5" d="M2299.48,1309.5s26.34-1.68,36.76,9.67-23.12,101.08-25,115.52,15.55,43.23,15.55,43.23-72.51,33.93-90.2,22.24c0,0,2.84-115.72,4.73-126s17.69-52.26,21.48-56.38S2299.48,1309.5,2299.48,1309.5Z" transform="translate(-164.34 -177.61)"/><path class="cls-32" d="M2330.54,1405.4s-22.17-44-24.54-59,10.7-33.4,24-32,31.71,69.47,31.71,69.47Z" transform="translate(-164.34 -177.61)"/><path class="cls-26" d="M2294.6,1273s.15.8.41,2.15c1.24,6.51,6,28.11,9.24,34,3.9,7.18-13.35,30.06-30,27.27-4.94-.84,4.18-21,3.74-23.17-.84-4.09-2-9.68-3.14-15.4-.66-3.23-1.32-6.51-1.95-9.59l-3.22-15.9Z" transform="translate(-164.34 -177.61)"/><path class="cls-32" d="M2295,1275.13c-.26-1.35-.41-2.15-.41-2.15l-24.88-.6,3.22,15.9c.63,3.06,1.29,6.32,1.94,9.53a23.52,23.52,0,0,0,11.88-5.79,30.45,30.45,0,0,0,9-13C2295.46,1277.46,2295.2,1276.14,2295,1275.13Z" transform="translate(-164.34 -177.61)"/><path class="cls-26" d="M2277.86,1218s11.72-1.32,19.08,7.93,15.27,37.86-3,53.42-36.31-2-39-20.72S2251.25,1217.27,2277.86,1218Z" transform="translate(-164.34 -177.61)"/><path class="cls-26" d="M2249.56,1258.3c2.18,4.12,5.84,6.41,8.17,5.1s2.46-5.71.28-9.83-5.84-6.41-8.17-5.1S2247.38,1254.18,2249.56,1258.3Z" transform="translate(-164.34 -177.61)"/><path class="cls-30" d="M2276.54,1214.89s15.67,27.2,26.88,28.46,12.68,15.72,12.68,15.72-4-33.32-15.1-39.74S2276.54,1214.89,2276.54,1214.89Z" transform="translate(-164.34 -177.61)"/><path class="cls-26" d="M2300.48,1250.19c-.91,4.83.93,9.26,4.1,9.9s6.48-2.77,7.39-7.6-.92-9.27-4.09-9.9S2301.39,1245.36,2300.48,1250.19Z" transform="translate(-164.34 -177.61)"/><path class="cls-10" d="M2287,1266.29l-16.69,3.57s1.74,6.26,9.13,4.9C2288.46,1273.11,2287,1266.29,2287,1266.29Z" transform="translate(-164.34 -177.61)"/><path class="cls-4" d="M2740,418c-5.38-17.24-26.35-30.1-51.41-30.1a71.16,71.16,0,0,0-13.32,1.25c-12.37-19.47-39.22-33-70.36-33a103.19,103.19,0,0,0-23.11,2.58c-16.76-20.42-47.21-34.08-82-34.08-41.39,0-76.64,19.33-90,46.39a84.38,84.38,0,0,0-31.94-6.1c-36.27,0-65.68,21.64-65.68,48.33a36.34,36.34,0,0,0,.31,4.69Z" transform="translate(-164.34 -177.61)"/><path class="cls-4" d="M2807.6,1106.47a30,30,0,0,0,.25,3.81h321q2.1-10.08,3.59-21.14a55.37,55.37,0,0,0-19.11-3.31,56.9,56.9,0,0,0-10.82,1c-10-15.82-31.85-26.77-57.14-26.77a84,84,0,0,0-18.77,2.09c-13.62-16.59-38.35-27.68-66.6-27.68-33.62,0-62.25,15.7-73.1,37.68a68.49,68.49,0,0,0-25.93-5C2831.48,1067.22,2807.6,1084.79,2807.6,1106.47Z" transform="translate(-164.34 -177.61)"/><path class="cls-4" d="M2483.59,937.69c-3.75-13-18.36-22.78-35.81-22.78a45.28,45.28,0,0,0-9.28,1c-8.61-14.73-27.31-24.94-49-24.94a66.42,66.42,0,0,0-16.1,2c-11.67-15.46-32.88-25.79-57.11-25.79-28.82,0-53.37,14.63-62.67,35.1a54.81,54.81,0,0,0-22.24-4.61c-25.26,0-45.75,16.37-45.75,36.58a29.64,29.64,0,0,0,.22,3.54Z" transform="translate(-164.34 -177.61)"/><path class="cls-4" d="M1670.46,587.83c3.61-11.37,17.64-19.86,34.42-19.86a47.85,47.85,0,0,1,8.91.82C1722.07,556,1740,547,1760.88,547a70.59,70.59,0,0,1,15.47,1.7c11.21-13.47,31.59-22.48,54.87-22.48,27.7,0,51.3,12.75,60.24,30.61a57.12,57.12,0,0,1,21.37-4c24.28,0,44,14.28,44,31.9a24.42,24.42,0,0,1-.21,3.09Z" transform="translate(-164.34 -177.61)"/><ellipse class="cls-8" cx="1056.43" cy="493.19" rx="390.65" ry="113.76"/><path class="cls-42" d="M1233.13,793.32c-156.14,0-302.71-19.24-412.7-54.18-100.17-31.82-160-74.32-160-113.7s59.81-81.87,160-113.69c110-34.94,256.56-54.18,412.7-54.18s302.72,19.24,412.71,54.18c100.17,31.82,160,74.32,160,113.69s-59.8,81.88-160,113.7C1535.85,774.08,1389.28,793.32,1233.13,793.32Z" transform="translate(-164.34 -177.61)"/><text class="cls-43" transform="translate(865.68 504.24)"></text></g></g></svg>