<svg id="Layer_1" data-name="Layer 1" xmlns="http://www.w3.org/2000/svg" xmlns:xlink="http://www.w3.org/1999/xlink" viewBox="0 0 3144.66 1669.28"><defs><style>.cls-1{fill:none;}.cls-2{fill:#894eed;opacity:0.7;}.cls-12,.cls-2,.cls-20,.cls-3,.cls-42{isolation:isolate;}.cls-3{fill:#f0fbff;opacity:0.8;}.cls-4{fill:#f7cc7f;}.cls-5{fill:#7bd1c0;}.cls-6{fill:#e8d1c3;}.cls-7{fill:#184655;}.cls-8{fill:#50bfa5;}.cls-42,.cls-9{fill:#fff;}.cls-10{fill:#9ee5ff;}.cls-11{clip-path:url(#clip-path);}.cls-12{fill:#3cb4c5;opacity:0.2;}.cls-13{opacity:0.5;}.cls-14{fill:#96d9c9;}.cls-15{fill:#9896d9;}.cls-16,.cls-20{fill:#eafcfc;}.cls-17{fill:#d7d996;}.cls-18{fill:#cf96d9;}.cls-19{fill:#d99696;}.cls-20{opacity:0.4;}.cls-21{fill:#d9bf96;}.cls-22{fill:#7ec9b7;}.cls-23{fill:#bda6a6;}.cls-24{fill:#a34b3d;}.cls-25{fill:#f7a491;}.cls-26{fill:#f48c7f;}.cls-27{fill:#f79c8d;}.cls-28{fill:#86b1f2;}.cls-29{fill:#13375b;}.cls-30{fill:#eab054;}.cls-31{fill:#f47458;}.cls-32{fill:#b75742;}.cls-33{fill:#3c8f7c;}.cls-34{fill:#215e4b;}.cls-35{fill:#355389;}.cls-36{fill:#fae0b2;}.cls-37{fill:#f8a492;}.cls-38{fill:#e25a44;}.cls-39{fill:#d95b3f;}.cls-40{fill:#0e2e35;}.cls-41{fill:#6c46c1;}.cls-42{font-size:244.42px;font-family:18KhebratMusamimBold, "18 Khebrat Musamim";}</style><clipPath id="clip-path" transform="translate(0 0)"><rect class="cls-1" x="855.26" y="810.51" width="888.65" height="509.35"/></clipPath></defs><path class="cls-2" d="M162,1657c-204.93-201.45-187.52-418.92-64.94-653.21C188.51,829,34,628.17,284.29,373.29,467.58,186.64,897.57,85,1271.45,219.64c187,67.3,811.73-526.26,1378.66,0C2975,521.21,3008.75,878,2944.89,987.7c-116.34,199.8,300.31,309.5,49,669.29Z" transform="translate(0 0)"/><path class="cls-3" d="M897,299.06c-4.15-13.31-20.33-23.24-39.68-23.24a54.6,54.6,0,0,0-10.28,1c-9.55-15-30.27-25.44-54.29-25.44a80.51,80.51,0,0,0-17.84,2c-12.93-15.76-36.43-26.3-63.28-26.3-31.94,0-59.15,14.92-69.45,35.8a65.24,65.24,0,0,0-24.65-4.7c-28,0-50.69,16.7-50.69,37.3a27.4,27.4,0,0,0,.24,3.62Z" transform="translate(0 0)"/><path class="cls-3" d="M306.73,1056.64c-4.37-14-21.4-24.45-41.76-24.45a57.78,57.78,0,0,0-10.82,1c-10.05-15.81-31.85-26.77-57.14-26.77a84.05,84.05,0,0,0-18.77,2.09c-13.62-16.59-38.35-27.68-66.6-27.68-1.36,0-2.7,0-4,.09-3.08,7.66-6.57,15.27-10.53,22.84q-13.9,26.58-26,52.86Z" transform="translate(0 0)"/><path class="cls-4" d="M3131.76,1669.28H12.87A12.87,12.87,0,0,1,0,1656.41v0H0a12.87,12.87,0,0,1,12.87-12.87H3131.76a12.87,12.87,0,0,1,12.9,12.84v0h0a12.87,12.87,0,0,1-12.85,12.89Z" transform="translate(0 0)"/><rect class="cls-5" x="268.15" y="504.24" width="1582.67" height="1101.91"/><path class="cls-6" d="M1850.81,526.84H268.14v143a23.41,23.41,0,0,0,16.15-22.2v9.93a47,47,0,0,0,47,47h2.94a47,47,0,0,0,47-47h0v-9.93a23.48,23.48,0,0,0,23.43,23.51h1.47a23.49,23.49,0,0,0,23.53-23.45v9.9a47,47,0,0,0,47,47h2.95a47,47,0,0,0,47-47h0v-9.93a23.48,23.48,0,0,0,23.48,23.48h1.48a23.49,23.49,0,0,0,23.49-23.48v9.93a47,47,0,0,0,47,47h3a47,47,0,0,0,47-47h0v-9.93a23.49,23.49,0,0,0,23.49,23.48H697a23.48,23.48,0,0,0,23.49-23.47h0v9.93a47,47,0,0,0,47,47h2.94a47,47,0,0,0,47-47h0v-9.93a23.49,23.49,0,0,0,23.49,23.48h1.47a23.48,23.48,0,0,0,23.25-23.48v9.93a47,47,0,0,0,47,47h2.94a47,47,0,0,0,47-47h0v-9.93a23.48,23.48,0,0,0,23.48,23.48h1.48a23.49,23.49,0,0,0,23.49-23.48v9.93a47,47,0,0,0,47,47h3a47,47,0,0,0,47-47h0v-3.83c6.22,9.27,15.64,17.38,23.48,17.38H1133a23.48,23.48,0,0,0,23.48-23.48v9.93a47,47,0,0,0,47,47h3a47,47,0,0,0,47-47h0v-9.93A23.49,23.49,0,0,0,1277,671.15h1.47a23.48,23.48,0,0,0,23.49-23.47h0v9.93a47,47,0,0,0,47,47h3a47,47,0,0,0,47-47h0v-9.93a23.49,23.49,0,0,0,23.49,23.48h1.47a23.49,23.49,0,0,0,23.49-23.48v9.93a47,47,0,0,0,47,47h2.94a47,47,0,0,0,47-47h0v-9.93a23.48,23.48,0,0,0,23.48,23.48h1.48a23.49,23.49,0,0,0,23.49-23.48v9.93a47,47,0,0,0,47,47h3a47,47,0,0,0,47-47h0v-9.93a23.48,23.48,0,0,0,23.48,23.48h1.48a23.49,23.49,0,0,0,23.49-23.48v9.93a47,47,0,0,0,47,47h3a47,47,0,0,0,47-47h0v-9.93a23.43,23.43,0,0,0,16.15,22.2Z" transform="translate(0 0)"/><rect class="cls-7" x="357.49" y="810.55" width="399.92" height="816.86"/><rect class="cls-8" x="383.02" y="836.07" width="348.87" height="765.81"/><rect class="cls-9" x="465.33" y="977.89" width="184.25" height="56.16" rx="5.77"/><path class="cls-8" d="M481.32,1006c0-26.8,39.75-26.8,39.75,0S481.32,1032.79,481.32,1006Zm29.62,0c0-14-19.43-14-19.43,0s19.43,14.06,19.43,0Z" transform="translate(0 0)"/><path class="cls-8" d="M528.57,1025.27V986.51h17.09c18.55.06,18.55,28.85,0,28.85h-7.14v9.91Zm17-29.9h-7.08v11.07h7.08c5.42,0,5.75-11.05,0-11.05Z" transform="translate(0 0)"/><path class="cls-8" d="M591.2,995.39H576.86v5.48H590v8.81H576.86v6.8h14.8v8.81H567V986.53H591.2Z" transform="translate(0 0)"/><path class="cls-8" d="M610.49,1006.22v19H600.25V986.39h3.59l19.6,19.16v-19h10.13v38.81H630Z" transform="translate(0 0)"/><rect class="cls-7" x="695.76" y="1118.28" width="12.42" height="218.94"/><rect class="cls-9" x="840.61" y="799.7" width="939.7" height="549.99"/><rect class="cls-10" x="855.26" y="814.82" width="888.65" height="509.35"/><path class="cls-9" d="M1253.28,491.74h48.45V612.57a23.49,23.49,0,0,1-23.49,23.49h-1.47a23.49,23.49,0,0,1-23.49-23.49V491.74Z" transform="translate(0 0)"/><path class="cls-9" d="M1107.93,491.74h48.45V612.57a23.49,23.49,0,0,1-23.49,23.49h-1.47a23.49,23.49,0,0,1-23.49-23.49V491.74Z" transform="translate(0 0)"/><path class="cls-9" d="M962.58,491.74H1011V612.57a23.49,23.49,0,0,1-23.49,23.49H986a23.49,23.49,0,0,1-23.49-23.49V491.74h0Z" transform="translate(0 0)"/><path class="cls-9" d="M817.23,491.74h48.45V612.57a23.49,23.49,0,0,1-23.49,23.49h-1.47a23.49,23.49,0,0,1-23.49-23.49V491.74Z" transform="translate(0 0)"/><path class="cls-9" d="M671.89,491.74h48.45V612.57a23.49,23.49,0,0,1-23.49,23.49h-1.47a23.49,23.49,0,0,1-23.49-23.49V491.74Z" transform="translate(0 0)"/><path class="cls-9" d="M1834.67,491.74h48.45V612.57a23.49,23.49,0,0,1-23.49,23.49h-1.47a23.49,23.49,0,0,1-23.49-23.49V491.74Z" transform="translate(0 0)"/><path class="cls-9" d="M1689.32,491.74h48.45V612.57a23.49,23.49,0,0,1-23.49,23.49h-1.47a23.49,23.49,0,0,1-23.49-23.49V491.74Z" transform="translate(0 0)"/><path class="cls-9" d="M1544,491.74h48.45V612.57A23.49,23.49,0,0,1,1569,636.06h-1.47A23.49,23.49,0,0,1,1544,612.57V491.74Z" transform="translate(0 0)"/><path class="cls-9" d="M1398.62,491.74h48.45V612.57a23.49,23.49,0,0,1-23.49,23.49h-1.47a23.49,23.49,0,0,1-23.49-23.49V491.74Z" transform="translate(0 0)"/><path class="cls-9" d="M526.54,491.74H575V612.57a23.49,23.49,0,0,1-23.49,23.49H550a23.49,23.49,0,0,1-23.49-23.49V491.74Z" transform="translate(0 0)"/><path class="cls-9" d="M381.19,491.74h48.45V612.57a23.49,23.49,0,0,1-23.49,23.49h-1.47a23.49,23.49,0,0,1-23.49-23.49V491.74Z" transform="translate(0 0)"/><path class="cls-9" d="M235.84,491.74h48.45V612.57a23.49,23.49,0,0,1-23.49,23.49h-1.47a23.49,23.49,0,0,1-23.49-23.49V491.74Z" transform="translate(0 0)"/><path class="cls-7" d="M1156.38,491.74h96.9V622.5a47,47,0,0,1-47,47h-3a47,47,0,0,1-47-47h0V491.74h.05Z" transform="translate(0 0)"/><path class="cls-7" d="M1011,491.74h96.9V622.5a47,47,0,0,1-47,47H1058a47,47,0,0,1-47-47h0V491.74Z" transform="translate(0 0)"/><path class="cls-7" d="M865.68,491.74h96.9V622.5a47,47,0,0,1-47,47h-3a47,47,0,0,1-47-47h0V491.74Z" transform="translate(0 0)"/><path class="cls-7" d="M720.34,491.74h96.9V622.5a47,47,0,0,1-47,47h-3a47,47,0,0,1-47-47h0V491.74h.05Z" transform="translate(0 0)"/><path class="cls-7" d="M575,491.74h96.9V622.5a47,47,0,0,1-47,47H622a47,47,0,0,1-47-47h0V491.74Z" transform="translate(0 0)"/><path class="cls-7" d="M1737.77,491.74h96.9V622.5a47,47,0,0,1-47,47h-3a47,47,0,0,1-47-47h0V491.74h0Z" transform="translate(0 0)"/><path class="cls-7" d="M1592.42,491.74h96.9V622.5a47,47,0,0,1-47,47h-3a47,47,0,0,1-47-47h0V491.74h.05Z" transform="translate(0 0)"/><path class="cls-7" d="M1447.07,491.74H1544V622.5a47,47,0,0,1-47,47h-3a47,47,0,0,1-47-47h0V491.74h0Z" transform="translate(0 0)"/><path class="cls-7" d="M1301.73,491.74h96.9V622.5a47,47,0,0,1-47,47h-3a47,47,0,0,1-47-47h0V491.74Z" transform="translate(0 0)"/><path class="cls-7" d="M429.64,491.74h96.9V622.5a47,47,0,0,1-47,47h-3a47,47,0,0,1-47-47h0V491.74h.05Z" transform="translate(0 0)"/><path class="cls-7" d="M284.29,491.74h96.9V622.5a47,47,0,0,1-47,47h-2.95a47,47,0,0,1-47-47h0V491.74h.05Z" transform="translate(0 0)"/><polygon class="cls-7" points="1893.34 1649.03 224.77 1649.03 224.77 1606.15 1894.19 1606.15 1893.34 1649.03"/><g class="cls-11"><rect class="cls-12" x="1280.55" y="1151.94" width="477.69" height="152.82"/><rect class="cls-12" x="1280.55" y="818.68" width="477.69" height="152.82"/><rect class="cls-12" x="1280.55" y="985.01" width="477.69" height="152.82"/><g class="cls-13"><rect class="cls-14" x="1519.39" y="1076.86" width="112.97" height="57.4"/><path class="cls-8" d="M1612.4,1076.86l-66.59,57.41h86.55v-57.41Z" transform="translate(0 0)"/><rect class="cls-9" x="1526.38" y="1084.22" width="56.67" height="3.31"/><rect class="cls-9" x="1526.38" y="1093.98" width="41.12" height="3.31"/></g><g class="cls-13"><rect class="cls-14" x="1519.39" y="1020.35" width="112.97" height="57.4"/><path class="cls-8" d="M1612.4,1020.39c-16.35,14.09-45.31,39-66.59,57.41h86.55v-57.41Z" transform="translate(0 0)"/><rect class="cls-9" x="1526.38" y="1027.71" width="56.67" height="3.31"/><rect class="cls-9" x="1526.38" y="1037.46" width="41.12" height="3.31"/></g><g class="cls-13"><rect class="cls-15" x="1653.77" y="1044.86" width="33.21" height="89.41"/><rect class="cls-16" x="1656.76" y="1054.35" width="27.22" height="2.37"/><rect class="cls-16" x="1656.76" y="1063.05" width="27.22" height="2.37"/><polygon class="cls-8" points="1653.77 1132.27 1653.77 1134.27 1686.98 1134.27 1686.98 1106.63 1653.77 1132.27"/><path class="cls-8" d="M1687,1089.18v-15.3l-33.21,31.26v13.31C1660.83,1112.29,1675.15,1099.64,1687,1089.18Z" transform="translate(0 0)"/></g><g class="cls-13"><rect class="cls-15" x="1700.05" y="1044.86" width="33.21" height="89.41"/><rect class="cls-16" x="1703.05" y="1054.35" width="27.22" height="2.37"/><rect class="cls-16" x="1703.05" y="1063.05" width="27.22" height="2.37"/><polygon class="cls-8" points="1700.05 1132.27 1700.05 1134.27 1733.27 1134.27 1733.27 1106.63 1700.05 1132.27"/><path class="cls-8" d="M1733.26,1089.18v-15.3l-33.21,31.26v13.31C1707.11,1112.29,1721.43,1099.64,1733.26,1089.18Z" transform="translate(0 0)"/></g><g class="cls-13"><rect class="cls-14" x="1653.77" y="877.99" width="33.21" height="89.41"/><rect class="cls-16" x="1656.76" y="887.48" width="27.22" height="2.37"/><rect class="cls-16" x="1656.76" y="896.19" width="27.22" height="2.37"/><polygon class="cls-8" points="1653.77 965.4 1653.77 967.4 1686.98 967.4 1686.98 939.76 1653.77 965.4"/><path class="cls-8" d="M1687,922.31V907l-33.21,31.27v13.3C1660.83,945.39,1675.15,932.78,1687,922.31Z" transform="translate(0 0)"/></g><g class="cls-13"><rect class="cls-14" x="1325.65" y="877.99" width="33.21" height="89.41"/><rect class="cls-16" x="1328.64" y="887.48" width="27.23" height="2.37"/><rect class="cls-16" x="1328.64" y="896.19" width="27.23" height="2.37"/><polygon class="cls-8" points="1325.65 965.4 1325.65 967.4 1358.86 967.4 1358.86 939.76 1325.65 965.4"/><path class="cls-8" d="M1358.86,922.31V907l-33.2,31.27v13.3C1332.71,945.39,1347,932.78,1358.86,922.31Z" transform="translate(0 0)"/></g><g class="cls-13"><rect class="cls-14" x="1700.05" y="877.99" width="33.21" height="89.41"/><rect class="cls-16" x="1703.05" y="887.48" width="27.22" height="2.37"/><rect class="cls-16" x="1703.05" y="896.19" width="27.22" height="2.37"/><polygon class="cls-8" points="1700.05 965.4 1700.05 967.4 1733.27 967.4 1733.27 939.76 1700.05 965.4"/><path class="cls-8" d="M1733.26,922.31V907l-33.21,31.27v13.3C1707.11,945.39,1721.43,932.78,1733.26,922.31Z" transform="translate(0 0)"/></g><g class="cls-13"><rect class="cls-17" x="1429.58" y="1044.86" width="33.21" height="89.41"/><rect class="cls-16" x="1432.58" y="1054.35" width="27.23" height="2.37"/><rect class="cls-16" x="1432.58" y="1063.05" width="27.23" height="2.37"/><polygon class="cls-8" points="1429.58 1132.27 1429.58 1134.27 1462.79 1134.27 1462.79 1106.63 1429.58 1132.27"/><path class="cls-8" d="M1462.79,1089.18v-15.3l-33.21,31.26v13.31C1436.66,1112.29,1451,1099.64,1462.79,1089.18Z" transform="translate(0 0)"/></g><g class="cls-13"><rect class="cls-18" x="1475.86" y="1044.86" width="33.21" height="89.41"/><rect class="cls-16" x="1478.86" y="1054.35" width="27.23" height="2.37"/><rect class="cls-16" x="1478.86" y="1063.05" width="27.23" height="2.37"/><polygon class="cls-8" points="1475.87 1132.27 1475.87 1134.27 1509.08 1134.27 1509.08 1106.63 1475.87 1132.27"/><path class="cls-8" d="M1509.07,1089.18v-15.3l-33.21,31.26v13.31C1482.92,1112.29,1497.24,1099.64,1509.07,1089.18Z" transform="translate(0 0)"/></g><g class="cls-13"><rect class="cls-18" x="1327.44" y="1044.86" width="33.21" height="89.41"/><rect class="cls-16" x="1330.44" y="1054.35" width="27.22" height="2.37"/><rect class="cls-16" x="1330.44" y="1063.05" width="27.22" height="2.37"/><polygon class="cls-8" points="1327.44 1132.27 1327.44 1134.27 1360.66 1134.27 1360.66 1106.63 1327.44 1132.27"/><path class="cls-8" d="M1360.66,1089.18v-15.3l-33.21,31.26v13.31C1334.5,1112.29,1348.82,1099.64,1360.66,1089.18Z" transform="translate(0 0)"/></g><g class="cls-13"><rect class="cls-14" x="1373.73" y="1044.86" width="33.21" height="89.41"/><rect class="cls-16" x="1376.72" y="1054.35" width="27.23" height="2.37"/><rect class="cls-16" x="1376.72" y="1063.05" width="27.23" height="2.37"/><polygon class="cls-8" points="1373.73 1132.27 1373.73 1134.27 1406.94 1134.27 1406.94 1106.63 1373.73 1132.27"/><path class="cls-8" d="M1406.94,1089.18v-15.3l-33.22,31.26v13.31C1380.78,1112.29,1395.1,1099.64,1406.94,1089.18Z" transform="translate(0 0)"/></g><g class="cls-13"><rect class="cls-19" x="1389.68" y="874.4" width="92.39" height="93"/><rect class="cls-9" x="1413.25" y="889.07" width="44.58" height="15.76"/></g><g class="cls-13"><rect class="cls-17" x="1532.06" y="874.4" width="92.71" height="93"/><rect class="cls-9" x="1544.13" y="889.07" width="67.58" height="15.76"/><rect class="cls-9" x="1544.13" y="931.24" width="67.58" height="4.29"/></g><g class="cls-13"><rect class="cls-14" x="1290.81" y="1237" width="98.87" height="63.65"/><rect class="cls-9" x="1304.35" y="1247.04" width="75.81" height="10.79"/><rect class="cls-9" x="1304.35" y="1275.9" width="75.81" height="2.93"/><rect class="cls-9" x="1304.35" y="1282.93" width="57.39" height="2.93"/><rect class="cls-9" x="1304.35" y="1289.96" width="71.68" height="2.93"/></g><g class="cls-13"><rect class="cls-14" x="1290.81" y="1174.23" width="98.87" height="63.65"/><rect class="cls-9" x="1304.35" y="1184.28" width="75.81" height="10.79"/><rect class="cls-9" x="1304.35" y="1213.14" width="75.81" height="2.93"/><rect class="cls-9" x="1304.35" y="1220.17" width="57.39" height="2.93"/><rect class="cls-9" x="1304.35" y="1227.2" width="71.68" height="2.93"/></g><path class="cls-16" d="M1762.22,975.06H1276.56V815.12h485.66Zm-478.56-7.12h471.42V822.24H1283.66Z" transform="translate(0 0)"/><path class="cls-20" d="M1280.12,971.5l168.4-152.82h113.93c-1.58,0-169.31,152.82-169.31,152.82Z" transform="translate(0 0)"/><path class="cls-20" d="M1476.31,971.5l168.41-152.82h65.68c-1.58,0-161.4,152.82-161.4,152.82Z" transform="translate(0 0)"/><path class="cls-16" d="M1762.22,1141.39H1276.56V981.45h485.66Zm-478.56-7.12h471.42V988.57H1283.66Z" transform="translate(0 0)"/><path class="cls-20" d="M1280.12,1137.83,1448.52,985h113.93c-1.58,0-169.31,152.82-169.31,152.82Z" transform="translate(0 0)"/><path class="cls-20" d="M1476.31,1137.83,1644.72,985h65.68c-1.58,0-161.4,152.82-161.4,152.82Z" transform="translate(0 0)"/><path class="cls-16" d="M1762.22,1307.17H1276.56V1147.23h485.66Zm-478.56-7.12h471.42V1154.39H1283.66Z" transform="translate(0 0)"/><path class="cls-20" d="M1280.12,1303.61l168.4-152.82h113.93c-1.58,0-169.31,152.82-169.31,152.82Z" transform="translate(0 0)"/><path class="cls-20" d="M1476.31,1303.61l168.41-152.82h65.68c-1.58,0-161.4,152.82-161.4,152.82Z" transform="translate(0 0)"/><rect class="cls-12" x="802.15" y="1151.94" width="477.69" height="152.82"/><rect class="cls-12" x="802.15" y="818.68" width="477.69" height="152.82"/><rect class="cls-12" x="802.15" y="985.01" width="477.69" height="152.82"/><g class="cls-13"><rect class="cls-14" x="1041" y="1076.86" width="112.97" height="57.4"/><path class="cls-8" d="M1134,1076.86l-66.59,57.41H1154v-57.41Z" transform="translate(0 0)"/><rect class="cls-9" x="1047.99" y="1084.22" width="56.67" height="3.31"/><rect class="cls-9" x="1047.99" y="1093.98" width="41.12" height="3.31"/></g><g class="cls-13"><rect class="cls-14" x="1041" y="1020.35" width="112.97" height="57.4"/><path class="cls-8" d="M1134,1020.39c-16.35,14.09-45.31,39-66.59,57.41H1154v-57.41Z" transform="translate(0 0)"/><rect class="cls-9" x="1047.99" y="1027.71" width="56.67" height="3.31"/><rect class="cls-9" x="1047.99" y="1037.46" width="41.12" height="3.31"/></g><g class="cls-13"><rect class="cls-14" x="1175.37" y="1044.86" width="33.21" height="89.41"/><rect class="cls-16" x="1178.37" y="1054.35" width="27.23" height="2.37"/><rect class="cls-16" x="1178.37" y="1063.05" width="27.23" height="2.37"/><polygon class="cls-8" points="1175.37 1132.27 1175.37 1134.27 1208.59 1134.27 1208.59 1106.63 1175.37 1132.27"/><path class="cls-8" d="M1208.58,1089.18v-15.3l-33.21,31.26v13.31C1182.43,1112.29,1196.75,1099.64,1208.58,1089.18Z" transform="translate(0 0)"/></g><g class="cls-13"><rect class="cls-18" x="1221.66" y="1044.86" width="33.21" height="89.41"/><rect class="cls-16" x="1224.65" y="1054.35" width="27.22" height="2.37"/><rect class="cls-16" x="1224.65" y="1063.05" width="27.22" height="2.37"/><polygon class="cls-8" points="1221.66 1132.27 1221.66 1134.27 1254.87 1134.27 1254.87 1106.63 1221.66 1132.27"/><path class="cls-8" d="M1254.87,1089.18v-15.3l-33.21,31.26v13.31C1228.71,1112.29,1243,1099.64,1254.87,1089.18Z" transform="translate(0 0)"/></g><g class="cls-13"><rect class="cls-21" x="826.98" y="874.4" width="89.29" height="93"/><rect class="cls-9" x="839.05" y="889.07" width="67.58" height="15.76"/><rect class="cls-9" x="839.05" y="931.24" width="67.58" height="4.29"/><rect class="cls-9" x="839.05" y="941.51" width="51.16" height="4.29"/><rect class="cls-9" x="839.05" y="951.79" width="63.89" height="4.29"/></g><g class="cls-13"><rect class="cls-22" x="938.1" y="874.4" width="91.91" height="93"/><rect class="cls-9" x="950.17" y="889.07" width="67.58" height="15.76"/></g><g class="cls-13"><rect class="cls-18" x="826.98" y="1024.56" width="89.29" height="109.71"/><rect class="cls-9" x="839.05" y="1041.87" width="67.58" height="18.59"/><rect class="cls-9" x="839.05" y="1091.62" width="67.58" height="5.06"/><rect class="cls-9" x="839.05" y="1103.73" width="51.16" height="5.06"/><rect class="cls-9" x="839.05" y="1115.85" width="63.89" height="5.06"/></g><g class="cls-13"><rect class="cls-17" x="938.1" y="1024.56" width="91.91" height="109.71"/><rect class="cls-9" x="950.17" y="1041.87" width="67.58" height="18.59"/><rect class="cls-9" x="950.17" y="1103.73" width="51.16" height="5.06"/><rect class="cls-9" x="950.17" y="1115.85" width="63.89" height="5.06"/></g><g class="cls-13"><rect class="cls-19" x="957.97" y="1190.95" width="89.29" height="109.71"/></g><ellipse class="cls-23" cx="1002.61" cy="1220.96" rx="27" ry="11"/><g class="cls-13"><rect class="cls-22" x="1065.51" y="1190.95" width="91.91" height="109.71"/><rect class="cls-9" x="1077.57" y="1208.25" width="67.58" height="18.59"/><rect class="cls-9" x="1077.57" y="1233.45" width="67.58" height="4.84"/><rect class="cls-9" x="1077.57" y="1282.23" width="63.89" height="5.06"/></g><g class="cls-13"><rect class="cls-17" x="1175.7" y="1190.95" width="91.91" height="109.71"/><rect class="cls-9" x="1187.77" y="1208.25" width="67.58" height="18.59"/><rect class="cls-9" x="1187.77" y="1258" width="67.58" height="5.06"/><rect class="cls-9" x="1187.77" y="1270.12" width="51.16" height="5.06"/><rect class="cls-9" x="1187.77" y="1282.23" width="63.89" height="5.06"/></g><g class="cls-13"><rect class="cls-17" x="1417.49" y="1190.95" width="89.29" height="109.71"/></g><g class="cls-13"><rect class="cls-22" x="1525.03" y="1190.95" width="91.91" height="109.71"/><rect class="cls-9" x="1537.1" y="1208.25" width="67.58" height="18.59"/></g><g class="cls-13"><rect class="cls-17" x="1635.23" y="1190.95" width="91.91" height="109.71"/><rect class="cls-9" x="1647.3" y="1208.25" width="67.58" height="18.59"/><rect class="cls-9" x="1647.3" y="1258" width="67.58" height="5.06"/><rect class="cls-9" x="1647.3" y="1270.12" width="51.16" height="5.06"/><rect class="cls-9" x="1647.3" y="1282.23" width="63.89" height="5.06"/></g><g class="cls-13"><rect class="cls-17" x="1051.53" y="874.4" width="91.91" height="93"/><rect class="cls-9" x="1063.59" y="893.07" width="67.58" height="7.76"/><rect class="cls-9" x="1063.59" y="951.79" width="63.89" height="4.29"/></g><g class="cls-13"><rect class="cls-22" x="1159.64" y="874.4" width="91.91" height="93"/><rect class="cls-9" x="1180.04" y="889.07" width="50.91" height="11.76"/></g><g class="cls-13"><rect class="cls-14" x="812.41" y="1237" width="127.8" height="63.65"/><rect class="cls-9" x="825.95" y="1247.04" width="75.81" height="10.79"/><rect class="cls-9" x="825.95" y="1275.9" width="75.81" height="2.93"/><rect class="cls-9" x="825.95" y="1282.93" width="57.39" height="2.93"/><rect class="cls-9" x="825.95" y="1289.96" width="71.68" height="2.93"/></g><g class="cls-13"><rect class="cls-14" x="812.41" y="1174.23" width="127.8" height="63.65"/><rect class="cls-9" x="825.95" y="1184.28" width="75.81" height="10.79"/><rect class="cls-9" x="825.95" y="1213.14" width="75.81" height="2.93"/><rect class="cls-9" x="825.95" y="1220.17" width="57.39" height="2.93"/><rect class="cls-9" x="825.95" y="1227.2" width="71.68" height="2.93"/></g><path class="cls-16" d="M1283.82,975.06H798.16V815.12h485.66Zm-478.54-7.12h471.38V822.24H805.28Z" transform="translate(0 0)"/><path class="cls-20" d="M801.72,971.5,970.13,818.68h113.92c-1.58,0-169.31,152.82-169.31,152.82Z" transform="translate(0 0)"/><path class="cls-20" d="M997.91,971.5l168.41-152.82H1232c-1.58,0-161.4,152.82-161.4,152.82Z" transform="translate(0 0)"/><path class="cls-16" d="M1283.82,1141.39H798.16V981.45h485.66Zm-478.54-7.12h471.38V988.57H805.28Z" transform="translate(0 0)"/><path class="cls-20" d="M801.72,1137.83,970.13,985h113.92c-1.58,0-169.31,152.82-169.31,152.82Z" transform="translate(0 0)"/><path class="cls-20" d="M997.91,1137.83,1166.32,985H1232c-1.58,0-161.4,152.82-161.4,152.82Z" transform="translate(0 0)"/><path class="cls-16" d="M1283.82,1307.17H798.16V1147.23h485.66Zm-478.54-7.12h471.38V1154.39H805.28Z" transform="translate(0 0)"/><path class="cls-20" d="M801.72,1303.61l168.41-152.82h113.92c-1.58,0-169.31,152.82-169.31,152.82Z" transform="translate(0 0)"/><path class="cls-20" d="M997.91,1303.61l168.41-152.82H1232c-1.58,0-161.4,152.82-161.4,152.82Z" transform="translate(0 0)"/></g><rect class="cls-8" x="813.21" y="1345.38" width="994.5" height="34.94"/><path class="cls-24" d="M1706.21,1037.08c.75-18.14-1.91-36-10-52.94-7-14.53-24.15-22.78-39.84-22.79-49.82-.07-56.16,66-87.87,91.53-9.69,7.8-20.52,14.14-29.69,22.54-33.86,31-18.61,88.46,12.48,115.66,21.58,18.88,55.48,29.6,82.07,14.85,13.88-7.7,24.42-20.51,31.93-34.54,10.65-19.91,17.52-42.88,25.1-64.1C1698.45,1084.71,1705.21,1061.19,1706.21,1037.08Z" transform="translate(0 0)"/><path class="cls-25" d="M1528.18,966.49c2.3-1.66,8.12,10.2,10.92,10.09s-1.93-16.61.17-17.88c3.88-2.35,6.29,17.74,8.14,16.78s.39-21.81,4.4-20.71-.74,21.77,1.71,21.61,2.68-19.61,7.8-20.8c2.73-.64-4.62,33.22-2.15,36.15s13-7.84,15.66-5.72-20.58,17.94-21,20.06-5.17,47.58-4.54,62.6c5.18.3,34.51,6.1,39.37,6.27-3.22,9.5,4.71,19.32,2,28.93-16.43-1.45-65.32-5.18-68.38-8.71-9.34-10.73,7.77-77.1,11.71-88.73s.09-16.48.3-23.62S1525.88,968.16,1528.18,966.49Z" transform="translate(0 0)"/><path class="cls-26" d="M1604.37,1645.24c4.14-3,7.48-5.07,20.71-11.48.87-.42,4-2.42,5.14-3.12a39.76,39.76,0,0,0,8.24-7.29c2.37-2.65,3.5-11.13,4-17.89-1.37-15.1-23.24-257.27-27.86-283.48-4.76-27.07,2.49-68.34,2.49-68.34l16.89-6.37,32.11,111.12-2.53,84.6s7.54,24.39,8.49,39-10.9,132.85-10.9,132.85h0a61.84,61.84,0,0,0,.64,10.44c.87,4.43,5.72,13.54,3.49,17.7s-4.76,5.2-4.76,5.2l-57.62.93C1599.76,1649.13,1601.84,1647.11,1604.37,1645.24Z" transform="translate(0 0)"/><path class="cls-27" d="M1691.81,1245s20,30.19,24.77,55.17-3.49,101.74,5.67,134.48c5,17.72,23.76,45.08,26.62,68s12.81,89,12.81,89h0c1.51,6.94,3.87,15.52,6.93,19.51,1.87,2.44,5.29,5.53,7.54,9.94,3.49,6.87,1.56,17.1-1,22.73-1.32,2.89.09,2.89-2.92,3.82a18.5,18.5,0,0,1-22.22-10.46,53.46,53.46,0,0,1-4.36-19.21,89.51,89.51,0,0,0-3.15-20.31h0l-64-156.88-46.3-135.39-11.86-69.73Z" transform="translate(0 0)"/><path class="cls-28" d="M1748.25,1632.61c13.84,2.53,23-5.59,27.85-11.66,3.51,6.88,5.23,17.15,2.64,22.8-2.28,5-8.94,4.84-14.18,5-5.55.21-9.84-2.88-12.59-7.72A47.18,47.18,0,0,1,1748.25,1632.61Z" transform="translate(0 0)"/><path class="cls-28" d="M1630.23,1630.64c15.24,3.92,26.5,1.25,32.8-1.29,1.63,4.61,3.78,10.41,2.64,13.74-1.4,4.09-3.39,5-5.15,5.06-13.92.37-51,.87-61.6,1a1.74,1.74,0,0,1-1.35-2.86C1600.21,1643.15,1629.09,1631.39,1630.23,1630.64Z" transform="translate(0 0)"/><path class="cls-29" d="M1678.84,1437.75l-3.61.23H1675c-1.18.08-2.38.14-3.57.2h-.22l-3.6.17h-.19c-1.22.06-2.45.1-3.68.14-13.65.45-30.52.28-41.35-1.56-5.52-55.24-7.57-105.66-9.61-116.82-5-27.06,4.31-69.77,4.31-69.77l-.74-10.14,2.37-6.47,74.31,9.36s20.8,30.19,25.76,55.17-3.64,101.74,5.89,134.48C1724.72,1432.77,1703.51,1436.07,1678.84,1437.75Z" transform="translate(0 0)"/><path class="cls-30" d="M1577.66,1070.8s55.64-5.82,72.06-.32,28,29,19.18,42.07-87.72-4.06-87.72-4.06Z" transform="translate(0 0)"/><path class="cls-4" d="M1675.77,1065.63s27.52-1.7,38.4,9.83S1690,1178.21,1688,1192.89s10.09,53.7,10.09,53.7-64.64,12.64-83.12.76c0,0-3.39-106.56-1.41-117s19.89-52.1,23.85-56.29S1675.77,1065.63,1675.77,1065.63Z" transform="translate(0 0)"/><path class="cls-25" d="M1666.66,1029.9s.14.78.39,2.12c1.23,6.43,6,27.76,9.15,33.62,3.85,7.09-13.21,29.69-29.63,26.93-4.89-.82,4.13-20.76,3.7-22.88-.83-4-2-9.56-3.11-15.21l-1.93-9.47c-1.75-8.64-3.19-15.71-3.19-15.71Z" transform="translate(0 0)"/><path class="cls-31" d="M1667,1032c-.25-1.34-.39-2.12-.39-2.12l-24.62-.6s1.44,7.07,3.19,15.71c.62,3,1.27,6.24,1.92,9.41a23.24,23.24,0,0,0,11.75-5.72,30.09,30.09,0,0,0,8.9-12.87C1667.45,1034.32,1667.19,1033,1667,1032Z" transform="translate(0 0)"/><path class="cls-25" d="M1650,975.53s11.6-1.3,18.87,7.84,15.11,37.4-3,52.77-35.91-2-38.56-20.47S1623.73,974.87,1650,975.53Z" transform="translate(0 0)"/><path class="cls-25" d="M1622.06,1015.39c2.15,4.07,5.77,6.32,8.08,5s2.43-5.64.28-9.71-5.78-6.33-8.09-5S1619.9,1011.32,1622.06,1015.39Z" transform="translate(0 0)"/><path class="cls-24" d="M1648.74,972.51s15.5,26.88,26.59,28.12,12.54,15.52,12.54,15.52-4-32.9-14.94-39.25S1648.74,972.51,1648.74,972.51Z" transform="translate(0 0)"/><path class="cls-25" d="M1672.42,1007.39c-.9,4.78.91,9.15,4,9.78s6.41-2.74,7.32-7.51-.92-9.15-4-9.77S1673.32,1002.61,1672.42,1007.39Z" transform="translate(0 0)"/><path class="cls-9" d="M1657.19,1019.81l-15.83,2.26s1.22,6,8.21,5.17C1658.1,1026.27,1657.19,1019.81,1657.19,1019.81Z" transform="translate(0 0)"/><path class="cls-32" d="M1774.35,1339.65l-2.15-5.29-3.7,2.68-2.52,7.28,1.79,1.45S1772.75,1340.94,1774.35,1339.65Z" transform="translate(0 0)"/><path class="cls-33" d="M1739.66,1372.76l.77-20.72c.58-15.42,9.26-28.74,19.36-29.69s21.45,11.69,25.31,28.17l5.18,22.14c.51,2.17,3.33,2.18,2.79,0l-5.51-22.22c-4.55-18.35-17.16-32.38-28.1-31.27s-20.58,15.91-21.49,33l-1.1,20.65a1.39,1.39,0,0,0,1.31,1.48,1.41,1.41,0,0,0,1.49-1.31A1.77,1.77,0,0,0,1739.66,1372.76Z" transform="translate(0 0)"/><polygon class="cls-34" points="1723.71 1355.26 1727.63 1355.17 1717.81 1491.12 1693.85 1491.29 1723.71 1355.26"/><polygon class="cls-33" points="1717.81 1491.12 1860.08 1491.12 1833.23 1355.58 1727.63 1355.17 1717.81 1491.12"/><polygon class="cls-34" points="1791.92 1477.9 1860.08 1491.12 1717.81 1491.12 1791.92 1477.9"/><path class="cls-33" d="M1750.55,1369.82l.77-20.72c.58-15.42,9.26-28.74,19.36-29.69s21.45,11.69,25.31,28.17l5.18,22.14c.51,2.17,3.33,2.18,2.79,0l-5.51-22.21c-4.55-18.36-17.16-32.39-28.1-31.28s-20.58,15.91-21.49,33l-1.1,20.65a1.39,1.39,0,0,0,1.31,1.48,1.41,1.41,0,0,0,1.49-1.31A1.77,1.77,0,0,0,1750.55,1369.82Z" transform="translate(0 0)"/><path class="cls-25" d="M1756.26,1304.7c.1-.43-17.24-74-24.25-90.3s-34.25-91.85-34.25-91.85l27.64-11.19s26.53,61.15,36.89,87.89,9.77,77.53,10.24,91.44c0,.2,1.52,11.77,1.53,12h0a21.75,21.75,0,0,0,.83,3.07,44.48,44.48,0,0,1,1.68,5.75,17,17,0,0,0,1.51,2.66c.42.68,1.38,10.14,1.59,11.66a22.66,22.66,0,0,1-.47,5l.37,6.34c.27,4.65-4.56,3.42-4.56,3.42.12,2.2-.65,3.34-1.88,3.76a10.28,10.28,0,0,1-2.93.15c-.23.09-.33.78-.33.78.13,1.4-1.44,2.47-2.46,2.67a4.67,4.67,0,0,1-3.34-1.08c-.51-.61-.87-.52-.87-.52-1,.88-5,.84-5.88-.43s-1.73-8-2.14-8.55a7,7,0,0,1-1.42-2.59c-.13-1-3.36-7.82-3.54-9.18s1.81-6,2.25-8.75,3.14-7.06,3.79-8.29a10.55,10.55,0,0,0,0-3.8Z" transform="translate(0 0)"/><path class="cls-4" d="M1713,1170.93s-31.08-46.51-33.87-63.59,12.58-38.23,28.28-36.59,42.52,79.44,42.52,79.44Z" transform="translate(0 0)"/><path class="cls-7" d="M865.48,985c4.85,19.94-21.41,34.42-42.2,35-13.52.34-19.73-1-21.92-15.23-3.54-23,6-37.06,19.31-42.86C837.88,954.39,861.48,968.58,865.48,985Z" transform="translate(0 0)"/><path class="cls-25" d="M839.88,1309.39l-16.32,145.29s8,30.74,7,39.47-17.72,123.24-17.72,123.24l.71,6.43v19H751.3a280.57,280.57,0,0,0,31.7-17.56,12.66,12.66,0,0,0,5.29-9.09c4.93-35.31-4.84-153.08-4.84-153.08l-7.69-153.29Z" transform="translate(0 0)"/><path class="cls-25" d="M889.92,1339.91c3.51.89,8.93,125.86,11.84,131.4,18.46,35.11,22.85,141.87,22.85,141.87l5.51,15.54,5.59,18.46s-18.43,4.74-28.09-.59l1.07-18.37,1-16.81-46.58-133-25.49-135.67Z" transform="translate(0 0)"/><path class="cls-35" d="M797.28,1097.82c7.51-10.23,38.51-39.88,42-39.82,10,.17,43,.19,49.44,3.45l-.32,56.44c-1,4.74-23.8,78.54-22.47,94.69l-.16.16a45.7,45.7,0,0,1-64.62-1c-.68-.7-1.33-1.42-2-2.16h0a368.72,368.72,0,0,0-2.61-42.8C792.34,1134.74,778.66,1123.25,797.28,1097.82Z" transform="translate(0 0)"/><path class="cls-29" d="M770,1403.88l-2.22-86.23a166.09,166.09,0,0,1,14.59-70.71l16.83-37.4a104.13,104.13,0,0,0,20.38,4.8c15.57,1.74,30.88,0,46.36-1.76a9.88,9.88,0,0,0,.21,1.53c2.81,12.7,18.45,41,25,79.7,7.48,43.93,9.44,104.82,8.5,110C856.31,1413.9,811.91,1414.23,770,1403.88Z" transform="translate(0 0)"/><path class="cls-25" d="M849.34,1026.22s-.87,20.83,1,28.72,4.38,8.49-11.73,10.9c-6.33.94-12.44,2.35-12.44,2.35s1.66-11.59,1.91-16.49c.41-8.06-1.86-33-1.86-33Z" transform="translate(0 0)"/><path class="cls-31" d="M837.07,1036.59a28.9,28.9,0,0,1-9.27,3.27c-.54-9.83-1.57-21.11-1.57-21.11l22,7.13A28.93,28.93,0,0,1,837.07,1036.59Z" transform="translate(0 0)"/><path class="cls-31" d="M908.66,1628.14c8.51,3.78,17.66,1.5,21.34.3l1.23,3.28,4.69,15.58s-18.67,4.62-28.33-.71Z" transform="translate(0 0)"/><path class="cls-31" d="M814.21,1647.54H749.48c-2.4-.21-3-2.16-2.15-3.36,1.71-2.48,9.26-4.29,17.75-8.24,14.89,1.57,46.13-8.68,48.48-12.12C814.91,1630.72,815.54,1647.25,814.21,1647.54Z" transform="translate(0 0)"/><path class="cls-36" d="M840.33,1290.05l-8.06-.16,4.54-212.22a22.76,22.76,0,0,0-17.92,15.77l-56.08,191.64-7.75-2.13,56.08-191.64c3.76-12.84,16-21.81,29.8-21.81h4.11Z" transform="translate(0 0)"/><path class="cls-37" d="M722.08,1123.11c-.24-1.2.54-3.66-1.11-13.06-.47-2.72-3-5.69-3-5.69s-3.17-3.62-4.24-3.1a2.46,2.46,0,0,0-1.11,2.86c.31.88,1.74,2.17,2.06,3s-.91,3.63-1.69,4.41-9.75-10.23-9.75-10.23-2.43-3.28-3.14-4.43c-.62-1-2.22-4.09-2.22-4.09s-2.53-4.27-3.82-3.39c-.76.52.42,5,2.25,9,2,4.38,4.64,8.4,4.26,8.72-.87.74-5.94-5.17-5.94-5.17a24.73,24.73,0,0,0-3-4.51c-.72-2.25-2.94-5.47-4.44-4.28-.27.21,1.47,5.48,1.47,5.48s1.74,3.13,2.48,4.68c1.31,2.73,4.34,6,5.37,7.74.85,1.47.11,1.3,0,1.48a40.11,40.11,0,0,1-3.47-4,29,29,0,0,1-3.34-3.91,36,36,0,0,0-3.3-4.37c-2.63-3.06-4.11-.82-2.13,2.44.76,1.24,1.59,2.58,2.44,3.94,3.3,5.29,7.42,9.34,7,9.88-.55.69-7.61-7.17-7.61-7.17s-5-3.12-2.1,1.69a46.45,46.45,0,0,0,7.3,9.22c1.18,1,4.28,5.7,8.92,8.44,3.43,2,8.42,4.77,10.81,6.08Z" transform="translate(0 0)"/><path class="cls-25" d="M827,1139.05l-24-13.22s-12.8,19.25-14.69,21.17c0,0-47.95-15.63-66.24-23.89l-11.27,11.6c3.51,1.7,6.55,2.83,8.22,3.74,3.29,1.77,55.38,30.7,55.38,30.7s21.3,10.64,24.9,8.19S827,1139.05,827,1139.05Z" transform="translate(0 0)"/><path class="cls-33" d="M853.36,1085.55c4.66,19.13-20.21,61.78-20.21,61.78s-35.42-16.65-41.64-23.83c0,0,24.06-41.39,25.64-43.9,7.14-11.4,16.83-11.41,23.15-10.67C845.38,1069.53,853.36,1085.55,853.36,1085.55Z" transform="translate(0 0)"/><path class="cls-7" d="M896,1152.76c41.07-12.29,30.07-48.37,29.84-47,.12-1.11,4-5.66,5.91-9.54,8-16.18-2.55-35.66-14.6-42.4,8-20.57,0-40.31-15-48.53A60.46,60.46,0,0,1,883,988.41C871.63,973.25,850.91,958,826,963c-24.65,6.29,8.35,20.52,5.09,44.16-1.66,12,3.1,10.26,10.53,19.89-10.69,18.73-4.51,50.17,11.88,64.43C845.46,1125.2,854.09,1165.3,896,1152.76Z" transform="translate(0 0)"/><path class="cls-25" d="M834.94,974.39a27.32,27.32,0,0,1,14,12.27c4.88,9.2,2.46,38.66-17.82,48.37s-29.59-12.35-28.12-28.62S810.35,968.83,834.94,974.39Z" transform="translate(0 0)"/><path class="cls-7" d="M856.16,1009c3-15.22,1.83-26.76-9-32.33s-20.13-11.09-29.84-1.08l-2.2,1.23s18.33,5,19.35,14.75,10.77,21.23,9.27,26-3.23,14.27-3.23,14.27l4-3.29S853.16,1024.18,856.16,1009Z" transform="translate(0 0)"/><path class="cls-25" d="M837.27,1003.12c-1.52,4.21-.37,8.43,2.55,9.43s6.53-1.59,8-5.8.37-8.42-2.55-9.42S838.78,998.92,837.27,1003.12Z" transform="translate(0 0)"/><path class="cls-9" d="M820.73,1019.39l-13.22,3.21s1.52,4.94,7.38,3.7C822,1024.75,820.73,1019.39,820.73,1019.39Z" transform="translate(0 0)"/><path class="cls-30" d="M840.45,1289.05v27.13c0,14.11-11.81,25.55-26.38,25.55H786.93v-63.26h42.6a11.08,11.08,0,0,1,7.52,2.91A10.33,10.33,0,0,1,840.45,1289.05Z" transform="translate(0 0)"/><path class="cls-4" d="M837.05,1281.39h-.18a10,10,0,0,0-10.14,9.82v20c0,16.88-14.14,30.57-31.57,30.57h-16.5c-17.44,0-31.57-13.69-31.57-30.57v-19.92a13,13,0,0,1,13.18-12.82h69.29A11.06,11.06,0,0,1,837.05,1281.39Z" transform="translate(0 0)"/><path class="cls-29" d="M1110.6,1128.89l-2,1.81a2.47,2.47,0,0,1-3.48-.09l-35.71-39.4a2.44,2.44,0,0,1,.24-3.43l0,0,2-1.81a2.47,2.47,0,0,1,3.48.09l35.72,39.39A2.46,2.46,0,0,1,1110.6,1128.89Z" transform="translate(0 0)"/><path class="cls-25" d="M1231.66,1096.88c-4.78-3.89-41.7,12.36-41.23,18s-25.77,60.51-25.77,60.51l-45.33-36.26h0c-.41-1.31-4.7-15.42-4.91-17.94s-7.88-7.28-11.44-6.59,3,5.15,3.48,6c1.18,2.23-3.38,3.07-3.38,3.07s-13.1-7.21-13.38-11.45-3-13.13-5.81-11.27c-1.46,1-1.44,7.27-1,10.26-.84-3.4-2-7.24-3.19-7.62-2.12-.69-3.17,2-2.79,3.34s3.81,15.75,4.85,17.38,22.16,18.68,25.21,22.39c0,0,58.63,67.25,62.8,69,3.67,1.55,16.73-21.63,29.06-37S1246.6,1109.05,1231.66,1096.88Z" transform="translate(0 0)"/><path class="cls-26" d="M1350,1591.39s8.06,7.89,8.24,10.78.72,33.91-2.57,36.81-13,4.94-9.84,8.2c2.34,2.46,20.4,1.93,32.37,1.27,3.49-.19,7.88-28.16,9.26-32.27,2-6,6.9-19.42,5.07-23.58-.89-2-5.15-6.2-11.15-10.09-6.31-4.09-12.35-13.2-12.35-13.2Z" transform="translate(0 0)"/><path class="cls-25" d="M1266.53,1609.75s7.21,20.44,7.22,20.49c.53,3.24,2.64,11.24,2.64,14.18,0,11.06-49.69-9.39-38.56-14.29,1-.44,4.17-4,4.51-7.75.51-5.8-4.19-13.07-4.19-13.07Z" transform="translate(0 0)"/><path class="cls-35" d="M1188.56,1229.2s-3.62,36.63-3.62,37.18c0,59.26-11.71,175-9.48,186.17,5.43,27.18,63.89,165.81,63.89,165.81l31.6-3.79-41.17-166,15.15-66.82,21.44-132.06Z" transform="translate(0 0)"/><path class="cls-29" d="M1294.66,1261.6l6,34.72,16.23,142.91,61.77,139.67s-8.69,20.33-21.51,23.18l-98.32-143.4-61.17-183.49,2.14-40.77Z" transform="translate(0 0)"/><path class="cls-38" d="M1176,1142l43.82,4.48s2-36,2-53.23c0-20.86-1.77-47.72-4.28-47.15-7,1.63-16.54,5.53-22.19,13.32C1175.78,1086.39,1176,1142,1176,1142Z" transform="translate(0 0)"/><path class="cls-31" d="M1197.49,1089.54c-.92,6.36-17.76,179.25-17.76,179.25,79.77,38.66,123.79,6.89,123.79,6.89s-2.61-121.41.52-137.93c2.07-10.94,4.65-83.58-2.41-85.62-9.06-2.61-19.45-5.38-30.77-6.56-9.67-1-47.22-1.59-53.93.67C1216.93,1046.24,1201.35,1062.8,1197.49,1089.54Z" transform="translate(0 0)"/><path class="cls-31" d="M1381,1582.31s-18.57,52.45-25.84,55c-1.93.67-11.19,2.38-12.94,6.48-.52,1.24,0,5.38,0,5.38h38.71s4.89-23.12,6.83-33.27c0,0,10.24-24.81,9.1-27.07S1381,1582.31,1381,1582.31Z" transform="translate(0 0)"/><path class="cls-31" d="M1279.22,1648.07l-5.69-18s-12,5.07-17.93,4.23-17.64-4.23-17.64-4.23c-23.86,7.88-43.4,11.7-39.84,18Z" transform="translate(0 0)"/><path class="cls-25" d="M1169.81,1215.72a10.34,10.34,0,0,1-1.2-.89c1.42-16.94,1.16-33.35-4.14-38.9l2.5-5.3c6.14,4.76,9.06,17.42,7.91,38a34,34,0,0,1-.81,4.26C1172.29,1214.82,1170.66,1216.09,1169.81,1215.72Z" transform="translate(0 0)"/><path class="cls-37" d="M1382.54,1270.62a5.15,5.15,0,0,0,0-1.11c-1.18-12-11.09-112.51-12.76-116.79-1.5-3.86-45.93-67.62-45.93-67.62L1302,1115l42.73,57.2c1,3.63,16.37,71.5,16.37,71.5s3.16,12.37,4.58,19.78c-.65,1.79-1.28,3.47-1.84,4.86a45,45,0,0,1-4.61,7.42c-1.91,2.57-5.06,8.18-5.45,9.68-.46,1.75-1.27,5.38-1.73,7.57s-1.1,4.74-1.2,5.93a12,12,0,0,1-1.38,3.18,1.9,1.9,0,0,0,.72,2.6,1.86,1.86,0,0,0,1.53.16c1.55-.52,2.76-2.53,3.5-3.79,2.11-3.54,3.23-10,3.75-9.68s2.37,11.33,2.66,12.57,2.5,14,3.75,16.34,2.89,1.94,3.33.48c.38-1.26-1.38-19.11-1.38-19.11s-.21-2.28.78-1.57,2.62,16.92,3.31,19.29,2.27,3.63,3.6,1.72c1.63-2.31-1.17-19.5-1.17-19.5s-.31-2.16.61-2,2.07,14,2.79,15.2,2.52,1.63,3.38-.36c1-2.35-1.61-17.67-1.61-17.67s.13-1.22.7-.82,2.4,12.11,3.58,13.19a1.25,1.25,0,0,0,1.77.06l.06-.06c2.18-1.49-1.16-12.62-1.13-18.16s-2.52-11.75-1.76-18.34C1382.32,1272.27,1382.45,1271.26,1382.54,1270.62Z" transform="translate(0 0)"/><path class="cls-31" d="M1358.58,1125.48l-38,25.57s-21.39-31.94-32.87-43.31c-14.39-14.25,5.24-57.89,14.51-55.42C1323,1057.85,1358.58,1125.48,1358.58,1125.48Z" transform="translate(0 0)"/><path class="cls-25" d="M1268.07,1008.19l5.68,37.55s-20.74,44.7-33.11,40.83c-10.39-3.26-4-42.81-4-42.81s5.66-21.25,4-31.88S1268.07,1008.19,1268.07,1008.19Z" transform="translate(0 0)"/><path class="cls-31" d="M1240.6,1011.88c-1.69-10.63,27.47-3.69,27.47-3.69l.47,3.12a17.45,17.45,0,0,1-3.16,5.23,38.39,38.39,0,0,1-25.5,11.58C1240.76,1022.39,1241.3,1016.24,1240.6,1011.88Z" transform="translate(0 0)"/><path class="cls-25" d="M1272.85,955.07c.83-.3,6.61,42.77-4.36,54.61s-32.36,15.73-40,6.4c-8.48-10.32-8-56.6,9-68.79S1272.85,955.07,1272.85,955.07Z" transform="translate(0 0)"/><path class="cls-7" d="M1244,924.25a47.33,47.33,0,0,1,24.87,14.23c6,.71,14.13,4,22.53,18,10.34,17.17,2.7,36.19-9.32,45.52s-11.87,20.12-11.87,20.12l-1.9-5.58a31.13,31.13,0,0,1-1.5-13.13,25.64,25.64,0,0,1,1.94-7.9c2.89-6.23-6.21-10.37-8.77-15.56-2-4-2.06-13.12-5.16-19.72l-3.7-5s-8.53-6.67-16.89-4.79S1227,920.79,1244,924.25Z" transform="translate(0 0)"/><path class="cls-25" d="M1260.5,987.61c-.08,5.25,2.3,9.55,5.32,9.6s5.54-4.16,5.63-9.42-2.29-9.55-5.31-9.6S1260.59,982.39,1260.5,987.61Z" transform="translate(0 0)"/><path class="cls-9" d="M1242.66,999.75l-16.54-.86s.06,6.32,7.32,6.91C1242.32,1006.52,1242.66,999.75,1242.66,999.75Z" transform="translate(0 0)"/><path class="cls-24" d="M2760.21,1264.66c-6.55-18.57-.06-36.5,5.34-45.76s12-23.26,22.12-24.71c14.88-2.12,22.79-3.38,33.52,2.93,9.13,5.38,14.51,9.32,18.64,23.24,5.68,19.16,11.19,43.29,8.09,45.67-10.27,7.89-39.54,8.44-53.82,7.86C2771.94,1273,2760.21,1264.66,2760.21,1264.66Z" transform="translate(0 0)"/><path class="cls-33" d="M2801.76,1278.93s34.64-4.22,46.26,1.79,18,77.63,18,77.63l-10.36,3.14s1.47,49.59-6.42,53-63.29-7.25-75.92-19.89-3.18-109.08,8-117.09C2784.49,1275.31,2802.07,1278.91,2801.76,1278.93Z" transform="translate(0 0)"/><path class="cls-25" d="M2479.84,1584.45s-2.37,25.92-.81,34.37a33.19,33.19,0,0,0,1.2,4.14c1.61,4.74-2.79,19.21-2.79,19.21l-59,.22c-3.22,0-1.07-2,1.55-3.9,4.28-3.07,7.73-5.08,21.36-11.46.89-.42,4.13-2.42,5.3-3.11a41,41,0,0,0,8.53-7.34c4.3-4.66,5-27.5,5-27.5Z" transform="translate(0 0)"/><path class="cls-35" d="M2446.66,1623.91c15.55,4.19,27.12,1.62,33.61-.9,1.61,4.73,4.59,20.35,2.82,20.73-7.55,1.59-27.32,2.8-69.73,2.13-1.52,0-1.33-5.24-.34-6.39C2415.73,1636.3,2445.47,1624.61,2446.66,1623.91Z" transform="translate(0 0)"/><path class="cls-39" d="M2553.86,1276.79s-.84,37-11.43,60.69c-10.32,23.07-59.71,80-72.84,113.2,4.06,18.73,15.22,45.06,14.41,65.83-.92,23.53.45,85.79.45,85.79l-26.5.84-34.77-160.67,52.39-173.37,23.78-42.1Z" transform="translate(0 0)"/><path class="cls-25" d="M2612.16,1554.21s11.93,25,18,31.83c3.22,3.68,12.74,9.58,12.91,14.7s-55.45,39.84-55.45,39.84c-2.93,1.76-2.07-1.27-.7-4.41,2.24-5.12,4.29-8.85,13.27-22.09.59-.87,2.46-4.47,3.15-5.73a43.42,43.42,0,0,0,3.8-11.36c1.39-6.59-10.44-27.81-10.44-27.81Z" transform="translate(0 0)"/><path class="cls-35" d="M2603.31,1608.39c16.48-4.65,25.65-13.3,30.2-19.13,4,3.44,15.18,11.26,13.82,12.61-10.67,10.65-22.21,24.21-61.3,46.7-1.4.8-5.25-6-5-7.65C2581.82,1636.48,2602.66,1609.61,2603.31,1608.39Z" transform="translate(0 0)"/><path class="cls-25" d="M2876.27,1340.88c7.43,4.06,25.43,20.55,31.52,26.17.12.71,1,4.78,5.92,9.66,3.48,3.44,6.57,11.68,8.47,9.12s-3.82-8.84-1.45-9.07,15.23,12.1,16.95,9.78-11.19-13.16-9.07-13.37,12.8,11,15.23,7.69-13.77-12-12.47-13.74,11.39,4,13.35,1.36-14.14-7.21-12.89-7.33,10.29-.59,10.22-2.34c-.08-2-23.23-3.21-26.31-6.39h0c-6.74-9.06-18.78-25.63-30.17-32.42-14-8.3-46-25.71-46-25.71l-13.6,20.8S2867.47,1336.05,2876.27,1340.88Z" transform="translate(0 0)"/><path class="cls-31" d="M2554.17,1250.32s14.53,34,14.68,60c.14,25.28-21.29,97.53-19.51,133.21,11.44,15.37,32.48,34.73,40.33,54,8.89,21.8,35.88,77.92,35.88,77.92l-23.78,11.74-98.11-131.94-20.77-155.52-4-51.51Z" transform="translate(0 0)"/><path class="cls-25" d="M2884.14,1591.7l10.8,9.92c1.51,1.12,5.57,3.57,6.74,4.78,4.42,4.54-23.89,15.88-21.34,9.44.23-.58.67-5.71-.7-7.39-2.11-2.59-5.91-6.27-5.91-6.27Z" transform="translate(0 0)"/><path class="cls-7" d="M2880.35,1615.75s6.08-3.25,8.84-5.27,3.11-8.08,5.59-9c2.73-1,14.21,10.77,14.21,10.77s-22.43,24.4-34.17,32.53c-2.53,1.75-5.6,1.19-6.68,1.21C2864,1646.09,2873.83,1628.46,2880.35,1615.75Z" transform="translate(0 0)"/><path class="cls-25" d="M2731.43,1610.33s-3.35,16.22-3.35,16.25c-.21,2.12-.24,7.48-.73,9.33-1.84,6.92-29.13-14.11-21.44-15.34.7-.11,4.16-1.5,5.35-3.64,2.07-3.72,4-10.68,4-10.68Z" transform="translate(0 0)"/><path class="cls-7" d="M2706,1620.52a115.59,115.59,0,0,0,10.19,5.58c3.55,1.51,10.05-2.7,12.34-.8,2.52,2.1-1.59,20.68-1.59,20.68s-46.68-12.39-56.62-18.82C2666.4,1624.61,2690,1621.51,2706,1620.52Z" transform="translate(0 0)"/><path class="cls-35" d="M2756.92,1385,2728,1500.72l-18.33,112.07,22.77,3.07s40.26-102.69,43.23-112.14c6.36-20.25,58.94-76.06,58.94-76.06Z" transform="translate(0 0)"/><path class="cls-7" d="M2834,1384.47s8.25,105.64,10,116,44,89.68,44,89.68l-16.32,17.75s-68.84-84.91-71.89-92c-4.79-11.13-37.19-156.78-37.19-156.78Z" transform="translate(0 0)"/><path class="cls-25" d="M2701.8,1317.62c-8.6,3-34.76,5.57-43.65,6.41-.65-.42-4.53-2.66-12-2.22-5.26.31-14.08-3.15-13.4.22s9.83,3.3,8.3,5.37-20.65,3.49-20,6.54,18.59.51,17.23,2.36-18,2.36-17.13,6.68,19.52-2.42,20-.1-11.39,6.24-10.7,9.72,16-6.15,15.15-5.06-6.94,8.68-5.49,9.88c1.64,1.35,19.3-16.31,24.06-16.49h0c12.11,1.13,34,3.42,47.69-.83,16.68-5.2,53.73-18.37,53.73-18.37l-6.85-25.88S2712,1314,2701.8,1317.62Z" transform="translate(0 0)"/><path class="cls-26" d="M2644.66,1330.17a10.18,10.18,0,0,0,2.55,3.21,9.92,9.92,0,0,0,8.32,2.31A16.86,16.86,0,0,1,2644.66,1330.17Z" transform="translate(0 0)"/><path class="cls-4" d="M2728.09,1305.68s1.24,5.82,23.56,25.25l46.65-24.45-20-25.76Z" transform="translate(0 0)"/><path class="cls-36" d="M2796.74,1282.73s-16-2.65-17.75-2.65c-15.18,5.83-41.1,128.17-37.07,152.3,26.83,5.77,102.12,6,102.12,6s-.17-23.24-3.93-35.21c-6.5-20.73-10.19-68.17-10.19-76.53,0-4.92,25.43,12.12,25.43,12.12l10.66-38.54s-32.47-13-43.85-15.39C2819,1284.19,2796.74,1282.73,2796.74,1282.73Z" transform="translate(0 0)"/><path class="cls-33" d="M2749.89,1364.88c5.58-21.56,30.85-78.65,37.32-84.16l-6.26-2c-2.73,2.63-28.41,57.84-32.73,78.78Z" transform="translate(0 0)"/><path class="cls-33" d="M2840.39,1386.61l3.65-5.8c-.31-.2-31.07-19.85-34.54-44.92-3.51-25.33,14.34-51.94,14.52-52.21l-5.66-3.86c-.8,1.17-19.52,29-15.64,57C2806.66,1365.09,2839,1385.74,2840.39,1386.61Z" transform="translate(0 0)"/><path class="cls-25" d="M2788.1,1268s.51,17.11-1.09,18.72-3.85,4.28-1.49,8.36,12.62,1.48,17.4-.86a22.65,22.65,0,0,0,7.54-6.42l-2.39-27.11Z" transform="translate(0 0)"/><path class="cls-32" d="M2794.92,1275.07a24,24,0,0,0,13.49-10.6l-.34-3.8-20,7.31s.12,4.17.06,8.59A22.89,22.89,0,0,0,2794.92,1275.07Z" transform="translate(0 0)"/><path class="cls-25" d="M2811.59,1241.31s.49-10.06,6.66-8.1,1.47,17.14-3.65,16.64S2811.59,1241.31,2811.59,1241.31Z" transform="translate(0 0)"/><path class="cls-25" d="M2792.18,1208.44s-9.67-.21-14.61,7.31-10.31,29-2.15,43.85,18.58,11.17,22.88,9.67,12.78-4.84,17.07-18.7S2816.55,1205.54,2792.18,1208.44Z" transform="translate(0 0)"/><path class="cls-9" d="M2779.3,1251.6l18.65.74s-.71,7.07-8.92,7C2779,1259.22,2779.3,1251.6,2779.3,1251.6Z" transform="translate(0 0)"/><path class="cls-37" d="M2490.94,1204.77c.8-4.14,13-81.26,13-81.26l-35.1,13.76-7.69,59.64c-1,3.07-15.83,76.09-21.26,99.72a14.54,14.54,0,0,1-9.07,10.29h-.07c-3,1.16-8.83,4.27-10,5.35-1.34,1.26-4,3.93-5.61,5.57s-3.53,3.48-4.27,4.44a11.47,11.47,0,0,1-2.92,2,2,2,0,0,0,.44,3.61c1.62.4,3.76-.68,5.09-1.35,3.74-1.9,8.24-6.87,8.5-6.29s-4.12,11-4.55,12.28-5.46,13.42-5.65,16.11,1.44,3.25,2.62,2.24c1-.88,9.21-17.21,9.21-17.21s1-2.08,1.52-.92-7,16-7.64,18.41,0,4.36,2.17,3.46c2.67-1.11,9.61-17.44,9.61-17.44s.9-2,1.59-1.35S2425,1349,2425,1350.44s1.29,2.78,3.12,1.54c2.15-1.47,8.22-16.1,8.22-16.1s.78-1,1.05-.31-4.52,11.73-4.08,13.31a1.28,1.28,0,0,0,1.5,1h.06c2.69-.09,5.87-11.5,8.91-16.25S2490.05,1209.39,2490.94,1204.77Z" transform="translate(0 0)"/><path class="cls-40" d="M2476.22,1047.92c-.7-17.15,1.81-34.09,9.44-50,6.57-13.74,22.83-21.54,37.65-21.56,47.07-.06,53,62.44,83,86.55,9.15,7.36,19.38,13.36,28,21.31,32,29.33,17.58,83.63-11.8,109.34-20.38,17.85-52.41,28-77.54,14-13.11-7.28-23.06-19.39-30.16-32.65-10.06-18.83-16.55-40.54-23.71-60.6C2483.55,1092.94,2477.17,1070.72,2476.22,1047.92Z" transform="translate(0 0)"/><path class="cls-26" d="M2625.14,1306.86c.09-.39-15.55-66.85-21.87-81.54s-30.89-83-30.89-83l31.8-7s20.51,53.41,29.86,77.56,5.35,68.67,5.77,81.23c0,.18,1.37,10.63,1.38,10.8h0a19.36,19.36,0,0,0,.75,2.78,40.6,40.6,0,0,1,1.52,5.19,15.76,15.76,0,0,0,1.36,2.4c.38.62,1.24,9.15,1.43,10.53a20,20,0,0,1-.42,4.5l.33,5.72c.25,4.2-4.11,3.09-4.11,3.09.11,2-.58,3-1.7,3.39a8.67,8.67,0,0,1-2.64.14c-.21.09-.29.71-.29.71.12,1.26-1.31,2.23-2.22,2.41a4.21,4.21,0,0,1-3-1c-.46-.55-.78-.47-.78-.47-.93.8-4.48.76-5.3-.39s-1.57-7.18-1.94-7.72a6.38,6.38,0,0,1-1.28-2.34c-.12-.87-3-7.06-3.19-8.29s1.63-5.4,2-7.89,2.83-6.38,3.42-7.49a9.47,9.47,0,0,0,0-3.44Z" transform="translate(0 0)"/><path class="cls-29" d="M2468.54,1131c14.7-44.63,31.14-42.73,31.14-42.73L2487,1182.06c-9.07-2.48-20.9-8-30-10.57C2460,1157.39,2464.92,1142,2468.54,1131Z" transform="translate(0 0)"/><path class="cls-35" d="M2537.3,1080.23s27.09-1.73,37.81,10-23.78,104.39-25.72,119.29,9.93,54.56,9.93,54.56-63.63,12.84-81.82.77c0,0-2-107.21,0-117.86s18.19-54,22.09-58.22S2537.3,1080.23,2537.3,1080.23Z" transform="translate(0 0)"/><path class="cls-25" d="M2528.29,1043.93s.14.8.39,2.16c1.2,6.53,5.86,28.2,9,34.15,3.79,7.2-13,30.16-29.17,27.36-4.81-.84,4.07-21.1,3.64-23.24-.81-4.11-1.92-9.72-3-15.46l-1.9-9.62c-1.73-8.78-3.14-16-3.14-16Z" transform="translate(0 0)"/><path class="cls-31" d="M2528.66,1046.09c-.25-1.36-.39-2.16-.39-2.16l-24.23-.61,3.14,16c.61,3.07,1.25,6.34,1.89,9.56a22.63,22.63,0,0,0,11.56-5.81,30.63,30.63,0,0,0,8.76-13.07C2529.11,1048.39,2528.87,1047.1,2528.66,1046.09Z" transform="translate(0 0)"/><path class="cls-25" d="M2512,988.7s11.42-1.32,18.58,8,14.87,38-2.91,53.6-35.35-2.06-38-20.8S2486.08,988,2512,988.7Z" transform="translate(0 0)"/><path class="cls-25" d="M2484.44,1029.2c2.12,4.13,5.68,6.43,8,5.11s2.39-5.72.27-9.86-5.69-6.43-8-5.12S2482.32,1025.06,2484.44,1029.2Z" transform="translate(0 0)"/><path class="cls-40" d="M2510.66,985.63s15.26,27.31,26.17,28.57,12.34,15.77,12.34,15.77-3.9-33.43-14.7-39.88S2510.66,985.63,2510.66,985.63Z" transform="translate(0 0)"/><path class="cls-25" d="M2534,1021.06c-.89,4.85.9,9.29,4,9.93s6.31-2.78,7.2-7.63-.9-9.29-4-9.93S2534.9,1016.21,2534,1021.06Z" transform="translate(0 0)"/><path class="cls-9" d="M2523.32,1034.25l-22.82.9s.87,8.65,10.91,8.54C2523.66,1043.56,2523.32,1034.25,2523.32,1034.25Z" transform="translate(0 0)"/><path class="cls-35" d="M2587.31,1182.27s-35.12-42-41.46-57.6,3.15-38.86,18-40.69,51.86,67.18,51.86,67.18Z" transform="translate(0 0)"/><path class="cls-24" d="M2788.56,1205.75s13.5,28.55,28.28,27,2.82-21.36,2.82-21.36-16.74-6.39-17.54-6.39S2788.56,1205.75,2788.56,1205.75Z" transform="translate(0 0)"/><path class="cls-29" d="M2083.25,1056.85c.29-.58.47-.89.47-.89v-.24c.85-2.1,1.77-4.19,2.79-6.25,6.75-13.69,23.45-21.46,38.67-21.48a48.3,48.3,0,0,1,13.63,1.85c6.23,2.81,21.47,12.51,25.44,41.42a46.42,46.42,0,0,1-5.51,29c4.11,2.58,9.49,7.8,13.4,18.35,7.17,19.38,43,23.69,46.62,49.53s-33.71,72.49-73.16,42.35c-30-23-25.15-66.69-21.11-86.27a44,44,0,0,1-29.1-6.32c-12.31-7.45-17.3-17.49-18.64-27.32A100.32,100.32,0,0,1,2083.25,1056.85Z" transform="translate(0 0)"/><path class="cls-31" d="M2118.31,1124.39c24.45,0,41.86-22.15,42.59-23.09a2.15,2.15,0,1,0-3.4-2.64h0c-.17.22-16.88,21.42-39.19,21.42a2.16,2.16,0,0,0,0,4.31Z" transform="translate(0 0)"/><path class="cls-37" d="M2035,1323.05a4.32,4.32,0,0,0,.7-.65c6.67-7.84,62.63-73.68,64.26-77.25,1.48-3.22,14.25-68.55,14.25-68.55l-31.38,4.24-9.73,60.38c-1.67,2.75-34.25,52.59-34.25,52.59s-5.73,9.3-9.44,14.57c-1.49.66-2.9,1.28-4.09,1.75a38.87,38.87,0,0,1-7.31,1.57,43,43,0,0,0-9.21,2.38c-1.34.75-4.06,2.41-5.68,3.42s-3.57,2.14-4.37,2.78a9.84,9.84,0,0,1-2.78,1,1.64,1.64,0,0,0-.36,3c1.25.65,3.21.2,4.42-.08,3.44-.81,8.09-4,8.19-3.44s-5.56,8.19-6.15,9.11-7.13,9.86-7.82,12,.53,2.94,1.69,2.34c1-.51,10.94-12.2,10.94-12.2s1.27-1.49,1.43-.45-8.85,11.67-9.9,13.5-.88,3.56,1.09,3.25c2.39-.37,11.3-12.31,11.3-12.31s1.14-1.48,1.57-.79-7.39,9.61-7.7,10.76a1.56,1.56,0,0,0,2.25,1.87c2-.77,9.91-11.49,9.91-11.49s.82-.65.92,0-6,8.67-6,10a1.08,1.08,0,0,0,1,1.14h0c2.22.46,7.08-8.21,10.5-11.48s5.73-8.54,10.24-12Z" transform="translate(0 0)"/><path class="cls-32" d="M2022.3,1342.84v25.35c0,13.18,11,23.86,24.62,23.86h25.33V1333H2032.5a10.37,10.37,0,0,0-7,2.72A9.71,9.71,0,0,0,2022.3,1342.84Z" transform="translate(0 0)"/><path class="cls-32" d="M2109.34,1343.78l-7.52-.15,4.24-198.24a21.25,21.25,0,0,0-16.73,14.73l-52.32,179-7.24-2,52.33-179c3.5-12,14.94-20.38,27.8-20.38h3.84Z" transform="translate(0 0)"/><path class="cls-31" d="M2025.48,1335.67h.17a9.32,9.32,0,0,1,9.46,9.17v18.65c0,15.78,13.19,28.56,29.46,28.56H2080c16.27,0,29.46-12.78,29.46-28.56v-18.55a12.18,12.18,0,0,0-12.36-12H2032.5A10.36,10.36,0,0,0,2025.48,1335.67Z" transform="translate(0 0)"/><path class="cls-25" d="M2216.91,1578.66l13.89,12.76c1.94,1.43,7.15,4.58,8.66,6.14,5.68,5.84-30.71,20.41-27.43,12.13.3-.75.86-7.34-.9-9.5-2.71-3.32-7.59-8.06-7.59-8.06Z" transform="translate(0 0)"/><path class="cls-7" d="M2212,1609.57a129,129,0,0,0,11.37-6.77c3.54-2.6,4-10.39,7.18-11.53,3.51-1.25,18.26,13.84,18.26,13.84s-28.83,31.36-43.92,41.81c-3.25,2.25-7.19,1.53-8.58,1.56C2191,1648.57,2203.66,1625.91,2212,1609.57Z" transform="translate(0 0)"/><path class="cls-25" d="M2042.41,1603.39s-4.31,20.84-4.31,20.88c-.27,2.73-.31,9.62-.94,12-2.37,8.9-37.44-18.14-27.55-19.71.9-.15,5.34-1.93,6.88-4.68,2.66-4.78,5.18-13.73,5.18-13.73Z" transform="translate(0 0)"/><path class="cls-7" d="M2009.73,1616.45a144.42,144.42,0,0,0,13.1,7.16c4.56,2,12.91-3.47,15.86-1,3.24,2.69-2,26.57-2,26.57s-60-15.92-72.77-24.18C1958.83,1621.7,1989.11,1617.72,2009.73,1616.45Z" transform="translate(0 0)"/><path class="cls-33" d="M2074.66,1317.39l-37.18,148.73-23.51,144,29.27,4s41.23-110.15,42.38-122.83,21.84-71.94,21.84-71.94Z" transform="translate(0 0)"/><path class="cls-14" d="M2161.48,1300.16s-2.79,142.6-.49,155.86,64.59,126.37,64.59,126.37l-21,22.81s-89.13-103.42-93.06-112.54c-6.16-14.3-36.56-175.53-36.56-175.53Z" transform="translate(0 0)"/><path class="cls-37" d="M2175.11,1346.68a4,4,0,0,0,.37-.88c2.86-9.89,26.85-92.93,26.87-96.85,0-3.55-15.16-68.36-15.16-68.36l-26.86,16.8,15.91,59c-.39,3.19-9.63,62-9.63,62s-1.41,10.84-2.63,17.17c-1.08,1.22-2.12,2.36-3,3.28a38.24,38.24,0,0,1-6,4.43,43.16,43.16,0,0,0-7.41,6c-.92,1.24-2.72,3.86-3.78,5.46s-2.38,3.41-2.84,4.32a9.51,9.51,0,0,1-2.11,2.09,1.64,1.64,0,0,0,.92,2.91c1.4.09,3-1.13,4-1.89,2.79-2.15,5.74-6.94,6-6.5s-1.71,9.76-1.87,10.83-2.45,11.92-2.19,14.17,1.69,2.47,2.5,1.45,5-15.62,5-15.62.54-1.88,1.11-1-3.28,14.28-3.48,16.38.66,3.61,2.33,2.52c2-1.33,5.25-15.87,5.25-15.87s.43-1.82,1.1-1.37-2.79,11.79-2.6,13a1.56,1.56,0,0,0,2.81.79c1.56-1.54,4.32-14.56,4.32-14.56s.49-.92.82-.42-1.93,10.38-1.33,11.62a1.07,1.07,0,0,0,1.39.62l.06,0c2.21-.49,3.08-10.39,4.86-14.78s1.71-10.14,4.41-15.14C2174.41,1347.92,2174.84,1347.15,2175.11,1346.68Z" transform="translate(0 0)"/><path class="cls-4" d="M2135.14,1131.89s26.34-1.68,36.76,9.67-23.12,101.08-25,115.52,15.55,43.23,15.55,43.23-72.51,33.93-90.2,22.24c0,0,2.84-115.72,4.73-126s17.69-52.26,21.48-56.38S2135.14,1131.89,2135.14,1131.89Z" transform="translate(0 0)"/><path class="cls-31" d="M2166.2,1227.79s-22.17-44-24.54-59,10.7-33.4,24-32,31.71,69.47,31.71,69.47Z" transform="translate(0 0)"/><path class="cls-25" d="M2130.26,1095.39s.15.8.41,2.15c1.24,6.51,6,28.11,9.24,34,3.9,7.18-13.35,30.06-30,27.27-4.94-.84,4.18-21,3.74-23.17-.84-4.09-2-9.68-3.14-15.4-.66-3.23-1.32-6.51-2-9.59l-3.22-15.9Z" transform="translate(0 0)"/><path class="cls-31" d="M2130.66,1097.52c-.26-1.35-.41-2.15-.41-2.15l-24.88-.6,3.22,15.9c.63,3.06,1.29,6.32,1.94,9.53a23.47,23.47,0,0,0,11.88-5.79,30.47,30.47,0,0,0,9-13C2131.12,1099.85,2130.86,1098.53,2130.66,1097.52Z" transform="translate(0 0)"/><path class="cls-25" d="M2113.52,1040.39s11.72-1.32,19.08,7.93,15.27,37.86-3,53.42-36.31-2-39-20.72S2086.91,1039.66,2113.52,1040.39Z" transform="translate(0 0)"/><path class="cls-25" d="M2085.22,1080.69c2.18,4.12,5.84,6.41,8.17,5.1s2.46-5.71.28-9.83-5.84-6.41-8.17-5.1S2083,1076.57,2085.22,1080.69Z" transform="translate(0 0)"/><path class="cls-29" d="M2112.2,1037.28s15.67,27.2,26.88,28.46,12.68,15.72,12.68,15.72-4-33.32-15.1-39.74S2112.2,1037.28,2112.2,1037.28Z" transform="translate(0 0)"/><path class="cls-25" d="M2136.14,1072.58c-.91,4.83.93,9.26,4.1,9.9s6.48-2.77,7.39-7.6-.92-9.27-4.09-9.9S2137.05,1067.75,2136.14,1072.58Z" transform="translate(0 0)"/><path class="cls-9" d="M2122.66,1088.68l-16.69,3.57s1.74,6.26,9.13,4.9C2124.12,1095.5,2122.66,1088.68,2122.66,1088.68Z" transform="translate(0 0)"/><path class="cls-3" d="M2575.66,240.39c-5.38-17.24-26.35-30.1-51.41-30.1a71.71,71.71,0,0,0-13.32,1.25c-12.37-19.47-39.22-33-70.36-33a103.24,103.24,0,0,0-23.11,2.58c-16.76-20.42-47.21-34.08-82-34.08-41.39,0-76.64,19.33-90,46.39a84.42,84.42,0,0,0-31.94-6.1c-36.27,0-65.68,21.64-65.68,48.33a36.82,36.82,0,0,0,.31,4.69Z" transform="translate(0 0)"/><path class="cls-3" d="M2643.26,928.86a30.34,30.34,0,0,0,.25,3.81h321q2.1-10.08,3.59-21.14a55.34,55.34,0,0,0-19.11-3.31,57,57,0,0,0-10.82,1c-10-15.82-31.85-26.77-57.14-26.77a84.05,84.05,0,0,0-18.77,2.09c-13.62-16.59-38.35-27.68-66.6-27.68-33.62,0-62.25,15.7-73.1,37.68a68.57,68.57,0,0,0-25.93-5C2667.14,889.61,2643.26,907.18,2643.26,928.86Z" transform="translate(0 0)"/><path class="cls-3" d="M2319.25,760.08c-3.75-13-18.36-22.78-35.81-22.78a45.23,45.23,0,0,0-9.28,1c-8.61-14.73-27.31-24.94-49-24.94a66.67,66.67,0,0,0-16.1,2c-11.67-15.46-32.88-25.79-57.11-25.79-28.82,0-53.37,14.63-62.67,35.1a54.92,54.92,0,0,0-22.24-4.61c-25.26,0-45.75,16.37-45.75,36.58a29.9,29.9,0,0,0,.22,3.54Z" transform="translate(0 0)"/><path class="cls-3" d="M1506.12,410.22c3.61-11.37,17.64-19.86,34.42-19.86a47.57,47.57,0,0,1,8.91.82c8.28-12.79,26.21-21.79,47.09-21.79a70,70,0,0,1,15.47,1.7c11.21-13.47,31.59-22.48,54.87-22.48,27.7,0,51.3,12.75,60.24,30.61a57.05,57.05,0,0,1,21.37-4c24.28,0,44,14.28,44,31.9a22.81,22.81,0,0,1-.21,3.09Z" transform="translate(0 0)"/><ellipse class="cls-7" cx="1056.43" cy="493.19" rx="390.65" ry="113.76"/><path class="cls-41" d="M1068.79,615.71c-156.14,0-302.71-19.24-412.7-54.18-100.17-31.82-160-74.32-160-113.7s59.81-81.87,160-113.69c110-34.94,256.56-54.18,412.7-54.18s302.72,19.24,412.71,54.18c100.17,31.82,160,74.32,160,113.69s-59.8,81.88-160,113.7C1371.51,596.47,1224.94,615.71,1068.79,615.71Z" transform="translate(0 0)"/><text class="cls-42" transform="translate(728.43 518.59)">Services</text></svg>